<svg width="28" height="28" viewBox="0 0 28 28" fill="none" xmlns="http://www.w3.org/2000/svg">
<path d="M12.0986 15.7754C13.2226 16.6448 14.8269 16.6446 15.9502 15.7734L25.5 8.375V20.5459C25.4999 21.0558 25.2872 21.5506 24.9014 21.9189C24.5145 22.2882 23.9858 22.5 23.4287 22.5H4.57129C4.01424 22.5 3.48545 22.2882 3.09863 21.9189C2.71282 21.5506 2.50012 21.0558 2.5 20.5459V8.34961L12.0986 15.7754ZM4.57129 5.5H23.4287C23.8099 5.50004 24.1762 5.60083 24.4941 5.78125L14.2568 13.7129C14.1389 13.8037 13.9728 13.8152 13.8428 13.7471L13.7891 13.7129L3.52246 5.77148C3.8365 5.59709 4.19681 5.50001 4.57129 5.5Z" fill="white" stroke="white"/>
</svg>
