<svg width="28" height="28" viewBox="0 0 28 28" fill="none" xmlns="http://www.w3.org/2000/svg">
<path d="M4.49121 2.50293L4.50098 2.50391L7.9082 2.64453V2.64551C8.57309 2.67505 9.12143 3.1932 9.18359 3.84668V3.84766L9.59277 8.13086C9.61902 8.41648 9.52123 8.68985 9.32227 8.89355L7.17773 11.0381L7.33594 11.3594C7.6568 12.0107 8.96034 14.482 11.2402 16.7617C13.5196 19.0409 15.9855 20.3444 16.6445 20.666L16.9658 20.8223L19.1094 18.6787C19.3129 18.4752 19.5844 18.3787 19.8672 18.4082H19.8721L24.1562 18.8184C24.7701 18.8766 25.2642 19.3623 25.3477 19.9658L25.3584 20.0879L25.4951 23.499V23.5068L25.4961 23.5137C25.5688 24.5708 24.609 25.5435 23.543 25.498H23.5234C12.3559 25.4448 2.54769 15.6795 2.50195 4.48047V4.45898L2.50391 4.26074C2.57399 3.27896 3.49852 2.44171 4.49121 2.50293Z" fill="white" stroke="white"/>
</svg>
