<svg width="28" height="28" viewBox="0 0 28 28" fill="none" xmlns="http://www.w3.org/2000/svg">
<path d="M13.9998 2.5C18.6313 2.5 22.3883 6.26177 22.3884 10.9023C22.3884 13.6724 20.939 16.7261 19.1697 19.4033C17.411 22.0644 15.3886 24.2778 14.3474 25.3525H14.3464C14.1801 25.5243 13.9192 25.5461 13.7292 25.417L13.6531 25.3525C12.6117 24.2773 10.5895 22.0643 8.83081 19.4033C7.06149 16.7262 5.61108 13.6725 5.61108 10.9023C5.61118 6.26178 9.36823 2.50005 13.9998 2.5ZM13.9998 6.44629C11.5415 6.44634 9.54965 8.44223 9.54956 10.9023C9.54956 13.3625 11.5415 15.3593 13.9998 15.3594C16.458 15.3594 18.45 13.3639 18.45 10.9023C18.4499 8.4422 16.458 6.44629 13.9998 6.44629Z" fill="white" stroke="white"/>
</svg>
