<svg width="32" height="32" viewBox="0 0 32 32" fill="none" xmlns="http://www.w3.org/2000/svg">
<path d="M19.8997 23.0075H22.0677L12.0882 9.03973H9.92014L19.8997 23.0075Z" fill="white"/>
<path fill-rule="evenodd" clip-rule="evenodd" d="M5 0C2.23859 0 0 2.23859 0 5V27C0 29.7614 2.23859 32 5 32H27C29.7614 32 32 29.7614 32 27V5C32 2.23859 29.7614 0 27 0H5ZM23.4785 8L17.5218 14.7749L24 24H19.2356L14.8732 17.7878L9.41156 24H8L14.2466 16.8955L8 8H12.7644L16.8952 13.8826L22.0671 8H23.4785Z" fill="white"/>
</svg>
