<svg width="56" height="56" viewBox="0 0 56 56" fill="none" xmlns="http://www.w3.org/2000/svg">
<path d="M40.5517 45.6685H50.4138C52.3944 45.6685 54 44.0629 54 42.0823V9.80642C54 7.82581 52.3944 6.22021 50.4138 6.22021H5.58621C3.6056 6.22021 2 7.82581 2 9.80642V42.0823C2 44.0629 3.6056 45.6685 5.58621 45.6685H40.5517Z" fill="#F3D55B"/>
<path d="M34.2758 38.496H10.9655C8.98487 38.496 7.37927 36.8904 7.37927 34.9098V16.9788C7.37927 14.9982 8.98487 13.3926 10.9655 13.3926H34.2758V38.496Z" fill="white"/>
<path d="M34.2758 39.3926H10.9655C8.49096 39.3897 6.48569 37.3844 6.48273 34.9099V16.9789C6.48569 14.5043 8.49096 12.4991 10.9655 12.4961H34.2758C34.771 12.4961 35.1724 12.8975 35.1724 13.3926V38.4961C35.1724 38.9912 34.771 39.3926 34.2758 39.3926ZM10.9655 14.2892C9.48003 14.2892 8.27583 15.4934 8.27583 16.9789V34.9099C8.27583 36.3953 9.48003 37.5995 10.9655 37.5995H33.3793V14.2892H10.9655Z" fill="#E4C05C"/>
<path d="M24.4138 26.841H11.8621C11.3669 26.841 10.9655 26.4396 10.9655 25.9444C10.9655 25.4493 11.3669 25.0479 11.8621 25.0479H24.4138C24.9089 25.0479 25.3103 25.4493 25.3103 25.9444C25.3103 26.4396 24.9089 26.841 24.4138 26.841Z" fill="#547580"/>
<path d="M24.4138 23.255H11.8621C11.3669 23.255 10.9655 22.8536 10.9655 22.3585C10.9655 21.8633 11.3669 21.4619 11.8621 21.4619H24.4138C24.9089 21.4619 25.3103 21.8633 25.3103 22.3585C25.3103 22.8536 24.9089 23.255 24.4138 23.255Z" fill="#547580"/>
<path d="M24.4138 19.6686H11.8621C11.3669 19.6686 10.9655 19.2672 10.9655 18.772C10.9655 18.2769 11.3669 17.8755 11.8621 17.8755H24.4138C24.9089 17.8755 25.3103 18.2769 25.3103 18.772C25.3103 19.2672 24.9089 19.6686 24.4138 19.6686Z" fill="#547580"/>
<path d="M11.8621 35.8063C11.4371 35.8067 11.0702 35.5088 10.9834 35.0928C10.8966 34.6768 11.1138 34.2571 11.5034 34.0876C12.1286 33.8639 12.7064 33.5251 13.2069 33.0888C13.6647 32.6394 13.9159 32.0204 13.9008 31.3791C13.8737 30.9354 14.1758 30.5388 14.6108 30.4471C15.0458 30.3554 15.4823 30.5964 15.6365 31.0133C15.9075 31.8216 16.4511 32.5107 17.1741 32.9624C17.3447 33.0869 17.5564 33.1414 17.7658 33.1148C17.8992 33.0263 17.9759 32.8739 17.9676 32.714C17.9363 32.2697 18.236 31.8698 18.6712 31.775C19.1065 31.6803 19.5453 31.9194 19.7015 32.3366C19.7912 32.5742 20.0054 32.9113 20.8419 33.104L21.535 33.2681C22.7398 33.6292 23.9926 33.8045 25.2503 33.7881C25.7442 33.7525 26.1735 34.124 26.2091 34.6179C26.2448 35.1118 25.8733 35.5411 25.3794 35.5767C23.9381 35.6076 22.5006 35.4171 21.1172 35.0119L20.4394 34.8514C19.9714 34.752 19.5245 34.5715 19.1187 34.318C18.9166 34.5261 18.672 34.6882 18.4015 34.7931C17.696 35.0307 16.9204 34.9316 16.2973 34.5242C15.8505 34.2678 15.4481 33.9408 15.1058 33.5559C14.9301 33.8493 14.7194 34.1203 14.4782 34.3628C13.8209 34.9604 13.0544 35.4252 12.2207 35.7318C12.1077 35.7815 11.9855 35.8068 11.8621 35.8063Z" fill="#547580"/>
<path d="M40.5517 40.289V48.8834C40.5516 49.2459 40.3332 49.5728 39.9982 49.7115C39.6632 49.8502 39.2777 49.7736 39.0213 49.5172L36.9655 47.4614L34.9097 49.5172C34.6533 49.7736 34.2677 49.8502 33.9328 49.7115C33.5978 49.5728 33.3793 49.2459 33.3793 48.8834V27.7373C33.6347 27.9899 33.9794 28.1317 34.3386 28.1318C34.5012 28.1317 34.6623 28.1013 34.8138 28.0421C34.9647 27.9814 35.1262 27.951 35.2889 27.9525C35.8282 27.9558 36.3171 28.2701 36.5441 28.7594C36.7671 29.2467 37.2544 29.5588 37.7903 29.5573C38.1367 29.5587 38.4704 29.4271 38.7227 29.1897C38.7317 29.1808 38.7496 29.1718 38.7586 29.1628L40.5517 40.289Z" fill="#FF5364"/>
<path d="M45.931 27.7373V39.9179C45.9309 40.2804 45.7125 40.6072 45.3775 40.746C45.0426 40.8847 44.657 40.808 44.4006 40.5517L42.3448 38.4959L40.289 40.5517C40.0326 40.808 39.6471 40.8847 39.3121 40.746C38.9771 40.6072 38.7587 40.2804 38.7586 39.9179V29.1592C39.2838 28.6948 40.0762 28.7065 40.5876 29.1861C40.8399 29.4235 41.1736 29.5551 41.52 29.5537C42.0559 29.5552 42.5432 29.2432 42.7662 28.7558C42.9932 28.2666 43.4821 27.9523 44.0214 27.9489C44.1841 27.9474 44.3455 27.9778 44.4965 28.0385C44.648 28.0977 44.8091 28.1281 44.9717 28.1282C45.3304 28.1291 45.6751 27.9886 45.931 27.7373Z" fill="#DF4D60"/>
<path d="M50.0462 21.4972C50.2836 21.7495 50.4152 22.0832 50.4138 22.4296C50.4153 22.9656 50.1032 23.4529 49.6159 23.6758C49.1266 23.9028 48.8123 24.3917 48.809 24.931C48.8075 25.0937 48.8379 25.2552 48.8986 25.4062C48.9578 25.5576 48.9882 25.7188 48.9883 25.8813C48.9845 26.6201 48.3996 27.2247 47.6614 27.2531C46.9447 27.2793 46.3697 27.8543 46.3435 28.571C46.3355 28.9243 46.1871 29.2599 45.931 29.5034C45.6757 29.756 45.331 29.8978 44.9717 29.8979C44.8091 29.8978 44.648 29.8674 44.4966 29.8082C44.3456 29.7475 44.1841 29.7171 44.0214 29.7186C43.4821 29.7219 42.9932 30.0362 42.7662 30.5255C42.5433 31.0128 42.056 31.3249 41.52 31.3234C41.1736 31.3248 40.8399 31.1932 40.5876 30.9558C40.0762 30.4762 39.2839 30.4645 38.7586 30.9289C38.7497 30.9379 38.7317 30.9469 38.7228 30.9558C38.4705 31.1932 38.1368 31.3248 37.7903 31.3234C37.2544 31.3249 36.7671 31.0128 36.5441 30.5255C36.3172 30.0362 35.8283 29.7219 35.289 29.7186C35.1262 29.7171 34.9648 29.7475 34.8138 29.8082C34.6623 29.8674 34.5012 29.8978 34.3386 29.8979C33.9794 29.8978 33.6347 29.756 33.3793 29.5034C33.1232 29.2599 32.9748 28.9243 32.9669 28.571C32.9406 27.8543 32.3657 27.2793 31.649 27.2531C30.9108 27.2247 30.3259 26.6201 30.3221 25.8813C30.3222 25.7188 30.3526 25.5576 30.4117 25.4062C30.4724 25.2552 30.5029 25.0937 30.5014 24.931C30.498 24.3917 30.1837 23.9028 29.6945 23.6758C29.2071 23.4529 28.8951 22.9656 28.8966 22.4296C28.8952 22.0832 29.0268 21.7495 29.2641 21.4972C29.7543 20.9722 29.7543 20.1574 29.2641 19.6324C29.0268 19.3801 28.8952 19.0464 28.8966 18.7C28.8951 18.164 29.2071 17.6767 29.6945 17.4537C30.1837 17.2268 30.498 16.7379 30.5014 16.1986C30.5029 16.0358 30.4724 15.8744 30.4117 15.7234C30.3526 15.572 30.3222 15.4108 30.3221 15.2482C30.3259 14.5095 30.9108 13.9048 31.649 13.8765C32.3657 13.8502 32.9406 13.2753 32.9669 12.5586C32.9952 11.8204 33.5999 11.2355 34.3386 11.2317C34.5012 11.2318 34.6623 11.2622 34.8138 11.3213C34.9648 11.382 35.1262 11.4125 35.289 11.411C35.8283 11.4076 36.3172 11.0933 36.5441 10.6041C36.7671 10.1167 37.2544 9.80471 37.7903 9.80616C38.1368 9.8048 38.4705 9.93637 38.7228 10.1737C39.2478 10.6639 40.0626 10.6639 40.5876 10.1737C40.9097 9.87477 41.3555 9.74821 41.7866 9.83337C42.2178 9.91853 42.582 10.2051 42.7662 10.6041C42.9932 11.0933 43.4821 11.4076 44.0214 11.411C44.1841 11.4125 44.3456 11.382 44.4966 11.3213C44.648 11.2622 44.8091 11.2318 44.9717 11.2317C45.7105 11.2355 46.3151 11.8204 46.3435 12.5586C46.3697 13.2753 46.9447 13.8502 47.6614 13.8765C48.3996 13.9048 48.9845 14.5095 48.9883 15.2482C48.9882 15.4108 48.9578 15.572 48.8986 15.7234C48.8379 15.8744 48.8075 16.0358 48.809 16.1986C48.8123 16.7379 49.1266 17.2268 49.6159 17.4537C50.1032 17.6767 50.4153 18.164 50.4138 18.7C50.4152 19.0464 50.2836 19.3801 50.0462 19.6324C49.5561 20.1574 49.5561 20.9722 50.0462 21.4972Z" fill="#FB7B76"/>
<path d="M39.6551 26.8408C43.1212 26.8408 45.931 24.031 45.931 20.5649C45.931 17.0989 43.1212 14.2891 39.6551 14.2891C36.1891 14.2891 33.3793 17.0989 33.3793 20.5649C33.3793 24.031 36.1891 26.8408 39.6551 26.8408Z" fill="white"/>
<path d="M39.6551 27.7374C35.6939 27.7374 32.4827 24.5262 32.4827 20.565C32.4827 16.6038 35.6939 13.3926 39.6551 13.3926C43.6164 13.3926 46.8276 16.6038 46.8276 20.565C46.8231 24.5244 43.6145 27.733 39.6551 27.7374ZM39.6551 15.1857C36.6842 15.1857 34.2758 17.5941 34.2758 20.565C34.2758 23.5359 36.6842 25.9443 39.6551 25.9443C42.6261 25.9443 45.0345 23.5359 45.0345 20.565C45.0315 17.5953 42.6248 15.1886 39.6551 15.1857Z" fill="#F3D55B"/>
</svg>
