<svg width="56" height="56" viewBox="0 0 56 56" fill="none" xmlns="http://www.w3.org/2000/svg">
<path d="M5.79822 6.28223H40.5706V51.3193H5.79822V6.28223Z" fill="#CECECE"/>
<path d="M5.79822 6.28223H8.84671V51.3193H5.79822V6.28223Z" fill="#AFAFAF"/>
<path d="M37.5221 6.28223H40.5706V51.3193H37.5221V6.28223Z" fill="#E2E2E2"/>
<path d="M31.9092 10.7574H14.4596C13.3936 10.7574 12.5295 9.89327 12.5295 8.82731V6.28223H33.8393V8.82711C33.8393 9.89327 32.9751 10.7574 31.9092 10.7574Z" fill="#63BCE7"/>
<path d="M24.558 2.30469H21.8107C19.614 2.30469 17.8333 4.08541 17.8333 6.28216H28.5355C28.5355 4.08562 26.7548 2.30469 24.558 2.30469Z" fill="#63BCE7"/>
<path d="M10.9179 34.0981H14.9904V38.1707H10.9179V34.0981Z" fill="#F8AF23"/>
<path d="M17.3108 34.0981H35.4511V38.1707H17.3108V34.0981Z" fill="#F8AF23"/>
<path d="M10.9179 41.6699H14.9904V45.7425H10.9179V41.6699Z" fill="#F8AF23"/>
<path d="M17.3108 41.6699H35.4511V45.7425H17.3108V41.6699Z" fill="#F8AF23"/>
<path d="M23.1844 28.5212C27.3166 28.5212 30.6664 25.1714 30.6664 21.0392C30.6664 16.9069 27.3166 13.5571 23.1844 13.5571C19.0522 13.5571 15.7024 16.9069 15.7024 21.0392C15.7024 25.1714 19.0522 28.5212 23.1844 28.5212Z" fill="#63BCE7"/>
<path d="M23.3876 13.5625V21.0394H30.6664C30.6666 16.9754 27.4257 13.6706 23.3876 13.5625Z" fill="#F46275"/>
<path d="M37.9954 37.5169C42.4591 37.5169 46.0776 33.8984 46.0776 29.4347C46.0776 24.9711 42.4591 21.3525 37.9954 21.3525C33.5317 21.3525 29.9132 24.9711 29.9132 29.4347C29.9132 33.8984 33.5317 37.5169 37.9954 37.5169Z" fill="#CECECE"/>
<path d="M49.9601 48.0862C50.5164 49.1819 50.079 50.5212 48.9834 51.0774C47.8878 51.6337 46.5485 51.1963 45.9922 50.1007L42.1635 42.5593C41.6072 41.4637 42.0446 40.1244 43.1402 39.5681C44.2359 39.0119 45.5752 39.4493 46.1314 40.5449L49.9601 48.0862Z" fill="#CECECE"/>
<path d="M37.9954 34.3644C40.7183 34.3644 42.9256 32.157 42.9256 29.4341C42.9256 26.7112 40.7183 24.5039 37.9954 24.5039C35.2725 24.5039 33.0652 26.7112 33.0652 29.4341C33.0652 32.157 35.2725 34.3644 37.9954 34.3644Z" fill="#63BCE7"/>
<path d="M6.20265 53.3901H2.30485C2.13657 53.3901 2 53.5267 2 53.695C2 53.8633 2.13657 53.9998 2.30485 53.9998H6.20265C6.37093 53.9998 6.5075 53.8633 6.5075 53.695C6.5075 53.5267 6.37093 53.3901 6.20265 53.3901Z" fill="#3F3679"/>
<path d="M53.6951 53.3901H49.7973C49.6291 53.3901 49.4925 53.5267 49.4925 53.695C49.4925 53.8633 49.6291 53.9998 49.7973 53.9998H53.6951C53.8634 53.9998 54 53.8633 54 53.695C54 53.5267 53.8634 53.3901 53.6951 53.3901Z" fill="#3F3679"/>
<path d="M47.5896 53.3901H8.41037C8.24209 53.3901 8.10552 53.5267 8.10552 53.695C8.10552 53.8633 8.24209 53.9998 8.41037 53.9998H47.5896C47.7579 53.9998 47.8945 53.8633 47.8945 53.695C47.8945 53.5267 47.7579 53.3901 47.5896 53.3901Z" fill="#3F3679"/>
<path d="M14.9902 33.7935H10.9177C10.7494 33.7935 10.6128 33.93 10.6128 34.0983V38.1709C10.6128 38.3392 10.7494 38.4757 10.9177 38.4757H14.9902C15.1585 38.4757 15.2951 38.3392 15.2951 38.1709V34.0983C15.2951 33.93 15.1585 33.7935 14.9902 33.7935ZM14.6854 37.866H11.2225V34.4032H14.6854V37.866Z" fill="#3F3679"/>
<path d="M14.9902 41.3652H10.9177C10.7494 41.3652 10.6128 41.5018 10.6128 41.6701V45.7427C10.6128 45.9109 10.7494 46.0475 10.9177 46.0475H14.9902C15.1585 46.0475 15.2951 45.9109 15.2951 45.7427V41.6701C15.2951 41.5018 15.1585 41.3652 14.9902 41.3652ZM14.6854 45.4378H11.2225V41.9749H14.6854V45.4378Z" fill="#3F3679"/>
<path d="M35.4509 41.3652H17.3108C17.1425 41.3652 17.0059 41.5018 17.0059 41.6701V45.7427C17.0059 45.9109 17.1425 46.0475 17.3108 46.0475H35.4509C35.6192 46.0475 35.7558 45.9109 35.7558 45.7427V41.6701C35.7558 41.5018 35.6192 41.3652 35.4509 41.3652ZM35.1461 45.4378H17.6156V41.9749H35.1461V45.4378Z" fill="#3F3679"/>
<path d="M23.1844 28.8262C27.4781 28.8262 30.9713 25.333 30.9713 21.0393C30.9713 16.7456 27.4781 13.2524 23.1844 13.2524C18.8907 13.2524 15.3973 16.7456 15.3973 21.0393C15.3973 25.333 18.8907 28.8262 23.1844 28.8262ZM30.3538 20.7345H23.6925V13.8821C27.3131 14.1367 30.2006 17.0872 30.3538 20.7345ZM23.0828 13.8646V21.0393C23.0828 21.2076 23.2194 21.3442 23.3876 21.3442H30.3538C30.1935 25.1607 27.0395 28.2165 23.1844 28.2165C19.2268 28.2165 16.0072 24.9967 16.0072 21.0393C16.007 17.1159 19.1722 13.9195 23.0828 13.8646Z" fill="#3F3679"/>
<path d="M53.6952 51.624C53.8634 51.624 54 51.4874 54 51.3192C54 51.1509 53.8634 51.0143 53.6952 51.0143H49.6189C50.4853 50.2729 50.7704 49.0092 50.2323 47.9485L46.4036 40.4072C46.0975 39.8046 45.5754 39.3573 44.933 39.1475C44.3885 38.9699 43.8134 38.9829 43.2835 39.1766L42.0607 36.7681C45.9855 34.5943 47.5211 29.67 45.474 25.6378C44.5041 23.7274 42.8777 22.2898 40.8752 21.5593V6.28232C40.8752 6.11404 40.7386 5.97747 40.5704 5.97747H33.8393H28.8247C28.6672 3.75837 26.8162 2 24.558 2H21.8107C19.5522 2 17.7012 3.75837 17.5439 5.97747H12.5295H5.79822C5.62994 5.97747 5.49337 6.11404 5.49337 6.28232V51.0145H2.30485C2.13657 51.0145 2 51.1511 2 51.3194C2 51.4876 2.13657 51.6242 2.30485 51.6242H5.79802H40.5704L53.6952 51.624ZM44.7438 39.7269C45.2311 39.8861 45.6278 40.2257 45.8597 40.683L49.6884 48.2243C50.1674 49.1685 49.7894 50.3266 48.8456 50.8056C48.5599 50.9507 48.2497 51.0208 47.9382 51.0141H47.9376C47.7506 51.01 47.5632 50.9783 47.3805 50.9188C46.8929 50.7594 46.4964 50.42 46.2645 49.9628L42.4356 42.4214C41.9564 41.4772 42.3346 40.3192 43.2784 39.8401C43.552 39.7011 43.8479 39.631 44.1458 39.631C44.3462 39.631 44.5476 39.6631 44.7438 39.7269ZM40.8754 37.3121C41.0913 37.2331 41.3044 37.1412 41.5164 37.0431L42.7399 39.4528C41.6926 40.1541 41.3073 41.5459 41.8918 42.6976L45.7207 50.239C45.8731 50.5396 46.0796 50.8013 46.328 51.0143H40.8756V37.3121H40.8754ZM44.9303 25.9136C46.8718 29.7374 45.3402 34.4279 41.5164 36.3691C37.692 38.3104 33.0018 36.7786 31.0609 32.955C30.1203 31.1028 29.9575 28.995 30.6024 27.02C31.2473 25.0452 32.6223 23.4399 34.4748 22.4995C35.5822 21.9372 36.7807 21.653 37.9875 21.653C38.7996 21.653 39.6154 21.7817 40.4098 22.041C42.3844 22.6861 43.99 24.0613 44.9303 25.9136ZM35.1461 37.3162V37.8659H17.6156V34.4031H31.243C32.2474 35.7692 33.6172 36.764 35.1461 37.3162ZM21.8107 2.6095H24.5582C26.4806 2.6095 28.0628 4.09432 28.2183 5.97727H18.1505C18.306 4.09432 19.8882 2.6095 21.8107 2.6095ZM17.8333 6.58717H28.5355H33.5346V8.827C33.5346 9.72326 32.8054 10.4525 31.9094 10.4525H14.4598C13.5638 10.4525 12.8346 9.72326 12.8346 8.827V6.58717H17.8333ZM6.10307 6.58717H12.2246V8.827C12.2246 10.0594 13.2274 11.0622 14.4596 11.0622H31.9092C33.1414 11.0622 34.1441 10.0594 34.1441 8.827V6.58717H40.2655V21.3618C38.2336 20.7879 36.0925 20.9946 34.1986 21.9561C32.201 22.9702 30.7178 24.7017 30.0224 26.8312C29.3271 28.9609 29.5025 31.2338 30.5168 33.2312C30.615 33.4243 30.7205 33.6113 30.831 33.7936H17.3108C17.1425 33.7936 17.0059 33.9301 17.0059 34.0984V38.171C17.0059 38.3393 17.1425 38.4758 17.3108 38.4758H35.4509C35.6192 38.4758 35.7558 38.3393 35.7558 38.171V37.5131C36.4862 37.716 37.2445 37.8208 38.0094 37.8208C38.762 37.8208 39.5207 37.7164 40.2657 37.5066V51.0145H6.10307V6.58717Z" fill="#3F3679"/>
<path d="M35.6255 24.7664C34.3785 25.3994 33.4529 26.4802 33.0188 27.8096C32.5849 29.1389 32.6945 30.5575 33.3275 31.8043C34.2498 33.621 36.0937 34.6691 38.0041 34.6691C38.8004 34.6691 39.6083 34.487 40.3653 34.1027C42.9394 32.7957 43.9702 29.6385 42.6637 27.0647C41.3567 24.4908 38.1994 23.4604 35.6255 24.7664ZM42.1198 27.3405C43.2746 29.6145 42.3635 32.4041 40.0895 33.5588C37.8151 34.7134 35.0258 33.8023 33.8714 31.5285C32.7166 29.2544 33.6275 26.4648 35.9015 25.3102C36.5707 24.9704 37.2841 24.8097 37.9879 24.8097C39.6753 24.8097 41.305 25.7356 42.1198 27.3405Z" fill="#3F3679"/>
</svg>
