<svg width="56" height="56" viewBox="0 0 56 56" fill="none" xmlns="http://www.w3.org/2000/svg">
<path d="M49.6579 44.3816C49.4907 37.4683 48.7705 31.2797 40.1507 32.4649C34.398 33.2119 1.69138 29.229 3.83899 37.5916C2.91294 39.0351 5.55116 41.6755 5.84717 43.0313C2.14531 50.8908 3.57041 52.1933 11.714 52.2685C22.9518 53.3461 34.263 53.0757 45.532 52.7849C49.977 52.68 49.7173 47.6453 49.6579 44.3816Z" fill="#FFBC73"/>
<path d="M48.1205 11.4454C48.3917 8.04362 27.3842 1.78522 24.6807 3.63255C21.0747 5.88856 7.19088 7.99903 8.46599 12.9422C9.42862 16.254 16.2426 17.4416 16.2123 17.4376C16.8921 21.5399 10.1921 32.4669 17.1105 33.8656C28.285 35.3441 28.7507 39.1958 39.8801 31.5442C46.0148 27.1997 36.5947 17.2525 42.6793 15.4589C44.8201 14.1242 48.5343 14.6996 48.1205 11.4454Z" fill="#80AEFF"/>
<path d="M52.3277 34.3286C53.2976 34.4092 54.125 33.5341 53.9843 32.5694C53.8704 31.717 53.0867 31.1184 52.2339 31.2321C51.1345 31.3789 50.0096 31.4783 48.8873 31.5579C46.8079 31.7091 44.7239 31.7952 42.6396 31.8513C43.5441 30.9188 44.0096 29.6975 43.6802 28.1151C43.2374 24.0538 42.5929 20.0124 41.6591 16.0316C43.8253 15.3802 46.6842 14.3388 48.4666 13.0976C48.1348 16.1633 48.038 19.2548 47.9434 22.3329C47.9391 24.5094 51.22 24.3842 51.0405 22.2079C50.6288 18.5337 50.2854 14.7057 50.1343 11.0214C50.1333 11.007 50.1312 10.9935 50.1294 10.9797C50.2405 9.86406 49.0705 8.68573 45.7217 7.54112C40.3863 6.04896 35.2562 3.95464 29.968 2.29064C25.769 1.43202 21.4687 2.61757 17.5217 3.99953C13.6095 5.4338 9.87015 7.32347 6.35801 9.56212C2.68349 13.0792 9.30007 15.652 11.9279 16.691C12.674 17.0025 13.4293 17.308 14.1921 17.6012C12.0791 21.0865 9.89698 28.4487 12.0109 31.7845C12.0679 31.825 12.1262 31.8622 12.1837 31.9014C10.3149 31.7054 8.42341 31.5166 6.58523 32.0112C2.27732 32.9621 0.403577 40.7284 3.62204 43.5381C1.00465 46.1269 1.85256 52.5267 5.70999 53.3542C9.36419 53.665 13.0109 53.7439 16.6824 53.7276C18.7201 53.17 59.5107 55.8071 52.4475 51.3306C51.9629 51.3167 51.4778 51.3025 50.9921 51.2884C50.9676 51.2407 50.9412 51.1927 50.9114 51.1444C49.3007 48.927 48.6674 46.5318 50.3239 44.3323C52.711 43.8731 54.2411 43.2317 52.4115 42.3793C51.8664 42.4243 51.3177 42.454 50.7667 42.4733C48.4846 40.423 48.8863 36.6562 50.5136 34.2053C51.1178 34.2454 51.7216 34.2851 52.3277 34.3286ZM8.76424 11.6998C15.0176 8.02375 22.2369 3.84129 29.6948 4.02218C34.7422 5.65459 39.7498 7.74069 44.9396 9.25885C46.0531 9.67465 47.3203 10.0377 48.1406 10.8942C48.099 10.9528 48.0105 11.0567 47.8915 11.158C45.3782 12.9624 41.986 13.6106 39.0841 14.6711C35.8361 15.7088 32.1998 17.1926 28.8552 17.6715C22.8866 18.5124 13.9651 14.6456 8.76424 11.6998ZM14.0403 29.9933C13.9633 27.9499 14.6653 25.8734 14.8764 23.8301C15.1674 21.9493 15.652 20.1609 16.0215 18.2727C21.4851 20.1758 27.2697 21.2091 32.8625 19.1181C35.0843 18.4042 37.6535 17.4321 39.996 16.6015C40.8633 20.5215 41.293 24.5347 41.478 28.5409C41.7446 30.357 39.508 30.4961 38.2225 31.0865C34.7106 32.2673 30.9408 33.2859 27.9763 35.6012C23.5951 33.0097 18.2115 32.8887 13.9576 30.0911C14.0528 30.1261 14.063 30.138 14.0403 29.9933ZM40.484 43.8477C40.5574 44.7025 41.3101 45.3359 42.1653 45.2626C42.5466 45.229 45.3187 45.051 47.9912 44.7C47.9775 44.717 47.9637 44.7342 47.9508 44.7499C47.4293 45.5445 47.0881 46.4717 47.0113 47.4238C46.8991 48.7439 47.1828 49.9967 47.6108 51.1917C37.6079 50.9128 27.4093 50.7268 17.4929 51.5157C13.7185 51.7218 9.91059 51.6953 6.13323 51.5033C5.66071 51.4856 5.26714 51.2519 4.9192 50.8275C3.73646 49.4109 3.27135 44.9622 5.53368 44.4677C5.54628 44.4643 5.55726 44.46 5.56955 44.4564C5.70389 44.4816 5.84088 44.5034 5.98355 44.5182C14.58 44.3374 23.1548 45.1349 31.7956 45.0791C33.8611 44.9148 33.7246 41.9832 31.6817 41.9831C23.3788 42.2896 14.0023 41.7695 6.15671 42.2465C5.6165 42.2068 5.22151 42.0757 4.87235 41.7229C3.76278 40.4642 4.12109 37.7694 4.62582 36.2753C6.5646 31.7545 11.7534 33.8995 15.8504 33.6471C19.5975 34.8825 23.7945 35.135 27.2192 37.1811C27.3444 37.2723 27.4711 37.3249 27.5944 37.3472C27.7927 37.4919 28.0562 37.5555 28.3514 37.4723C30.7529 36.6717 33.1418 35.9663 35.5652 35.2263C36.8226 34.8287 38.1192 34.3788 39.3364 33.8246C40.2578 33.7291 41.1868 33.7239 42.1119 33.7566C43.7878 33.823 45.4554 33.9032 47.1231 33.9965C47.0849 34.0643 47.0485 34.1326 47.0147 34.2013C45.8981 36.602 46.8974 40.294 48.3986 42.4924C46.3034 42.458 44.196 42.3067 42.1334 42.1651C41.1954 42.0971 40.3953 42.9105 40.484 43.8477Z" fill="#2E386B"/>
</svg>
