<svg width="56" height="56" viewBox="0 0 56 56" fill="none" xmlns="http://www.w3.org/2000/svg">
<path d="M53.5753 2.42725V45.0693H47.4922L48.4876 39.973L46.9148 8.33047L21.575 5.21617V2.42725H53.5753Z" fill="#B8D3CF"/>
<path d="M21.575 5.21582H19.3217V7.38917C21.1268 10.7212 20.6551 14.9925 19.6312 19.4913L24.633 43.5488C23.5295 45.1351 23.5307 46.7222 24.633 48.3101H44.7726L45.6681 43.0212L50.2078 41.8319V5.21582H21.575Z" fill="#D6EAE8"/>
<path d="M44.0917 37.3804L40.4525 37.8661L41.0006 34.1895C42.5028 34.6333 43.679 35.8477 44.0917 37.3804Z" fill="#B8D3CF"/>
<path d="M38.5202 34.1729L38.8508 37.6737L35.3755 37.3135C35.8129 35.7893 37.0098 34.5916 38.5202 34.1729Z" fill="#B8D3CF"/>
<path d="M38.9573 39.3345L38.4542 43.0212C36.952 42.5773 35.7717 41.3629 35.359 39.8303L38.9573 39.3345Z" fill="#B8D3CF"/>
<path d="M40.452 39.2368L44.0747 39.8976C43.6372 41.4219 42.4445 42.6195 40.9341 43.0383L40.452 39.2368Z" fill="#B8D3CF"/>
<path d="M26.9937 51.2708V53.5907H2.71893V51.2708C2.71893 50.0857 3.66813 49.1268 4.83606 49.1268C11.5457 47.8571 18.2268 47.819 24.8765 49.1268C26.0445 49.1268 26.9937 50.0857 26.9937 51.2708Z" fill="#ACCCC6"/>
<path d="M18.6943 42.728H18.6902H8.05919C6.41253 42.728 5.07953 44.0848 5.07953 45.7556V49.1266H24.633V48.3101V43.5488L18.6943 42.728Z" fill="#C3DDDA"/>
<path d="M3.93635 37.6782H18.6902C18.1743 38.3817 17.8689 39.2569 17.8689 40.2033C17.8689 40.4043 17.8813 40.6011 17.9102 40.7938H3.93635C3.5154 40.7938 3.12747 40.6221 2.85096 40.3373C2.57445 40.0568 2.40112 39.6673 2.40112 39.236C2.40112 38.3775 3.09032 37.6782 3.93635 37.6782Z" fill="#655F68"/>
<path d="M24.633 24.567V36.8576C23.9232 36.2964 23.0317 35.9572 22.0578 35.9572C20.6794 35.9572 19.4578 36.6314 18.6943 37.6741V28.407C18.6943 26.9958 17.7327 25.8107 16.4369 25.4925C16.4327 25.4925 16.4327 25.4925 16.4286 25.4925C16.2305 25.4381 16.0283 25.4129 15.8178 25.4087C15.7931 25.4046 15.7642 25.4045 15.7353 25.4045L15.7435 25.392C16.3019 22.7655 17.5776 20.7806 19.6311 19.4917C19.7632 19.4917 19.8994 19.4959 20.0273 19.5084C22.6025 19.7136 24.633 21.8954 24.633 24.567Z" fill="#0D87A3"/>
<path d="M12.9868 29.5792L10.8696 31.5013C8.87548 31.1751 7.39267 30.0951 6.33411 28.3899L7.23791 25.7476C9.78919 25.8422 11.6897 27.1496 12.9868 29.5792Z" fill="#1EA6BC"/>
<path d="M10.8697 31.501L9.62746 32.6317L5.77289 30.0228L6.33415 28.3896L10.8697 31.501Z" fill="#655F68"/>
<path d="M21.5626 16.5558L19.6311 19.4913L15.7353 25.4042L12.9868 29.5792L7.23792 25.7476L15.8344 12.6865C18.197 13.1065 20.083 14.4407 21.5626 16.5558Z" fill="#C3DDDA"/>
<path d="M22.7057 14.822L21.5626 16.5557L15.8344 12.6864L16.9816 10.9443L18.2899 11.8279C19.6778 12.2182 20.6843 12.9464 21.3975 13.9343L22.7057 14.822Z" fill="#1498B7"/>
<path d="M19.6105 9.82227C21.1494 10.1196 22.196 10.8126 22.7181 11.9286L21.3974 13.9345L18.2899 11.8281L19.6105 9.82227Z" fill="#655F68"/>
<path d="M19.3217 7.38946L19.7591 6.72363L25.4791 10.6013L24.0264 12.8124L22.7181 11.9288L19.6106 9.82244L18.3023 8.93467L19.3217 7.38946Z" fill="#087D99"/>
<path d="M44.0916 37.3806C44.1989 37.77 44.2567 38.1804 44.2567 38.6033C44.2567 39.0514 44.1948 39.4869 44.0751 39.8973H40.9345V43.038C40.5507 43.1468 40.1463 43.2055 39.7253 43.2055C39.2837 43.2055 38.8586 43.1427 38.4542 43.0212V39.8303H35.359C35.2517 39.4408 35.1939 39.0305 35.1939 38.6033C35.1939 38.1553 35.2558 37.7239 35.3755 37.3136H38.5202V34.1729C38.904 34.064 39.3085 34.0054 39.7253 34.0054C40.1669 34.0054 40.5961 34.0682 41.0005 34.1896V37.3806H44.0916Z" fill="#F9B132"/>
<path d="M19.6312 45.4961C20.2213 45.4961 20.7001 45.986 20.7001 46.5849C20.7001 47.1837 20.2213 47.6694 19.6312 47.6694C19.0369 47.6694 18.5582 47.1837 18.5582 46.5849C18.5582 45.986 19.0369 45.4961 19.6312 45.4961Z" fill="#E7F2F1"/>
<path d="M17.9102 40.7937C17.8813 40.601 17.869 40.4042 17.869 40.2032C17.869 39.2568 18.1744 38.3816 18.6902 37.6781H18.6943V37.6739C19.4578 36.6312 20.6794 35.957 22.0578 35.957C23.0318 35.957 23.9232 36.2962 24.633 36.8574C25.6152 37.6362 26.2425 38.8465 26.2425 40.2032C26.2425 41.56 25.6152 42.7702 24.633 43.5491C23.9232 44.1102 23.0318 44.4494 22.0578 44.4494C20.6794 44.4494 19.4537 43.771 18.6943 42.7283H18.6902C18.2858 42.1714 18.0093 41.5139 17.9102 40.7937Z" fill="#F9B132"/>
<path d="M17.2004 18.9805C17.5883 19.2444 17.6956 19.7804 17.4315 20.1782L15.3103 23.4026C15.0503 23.8004 14.522 23.9051 14.13 23.6413L13.9649 23.5282C13.5728 23.2644 13.4696 22.7284 13.7296 22.3306L15.8509 19.1062C16.115 18.7084 16.6433 18.6037 17.0353 18.8675L17.2004 18.9805Z" fill="#F9B132"/>
<path d="M47.4922 45.069L44.7725 48.3102V41.832H50.2077L47.4922 45.069Z" fill="#4AAF8F"/>
<path d="M19.6418 48.0801C20.4598 48.0801 21.1255 47.4051 21.1255 46.5747C21.1255 45.7443 20.4598 45.0688 19.6418 45.0688C18.8239 45.0688 18.1582 45.7443 18.1582 46.5747C18.1582 47.4051 18.8239 48.0801 19.6418 48.0801ZM19.6418 45.9068C20.0046 45.9068 20.3001 46.2066 20.3001 46.5751C20.3001 46.9432 20.0046 47.243 19.6418 47.243C19.2791 47.243 18.9836 46.9432 18.9836 46.5751C18.9836 46.2066 19.2787 45.9068 19.6418 45.9068Z" fill="#3A322B"/>
<path d="M17.4393 18.6212L17.2747 18.5094C16.994 18.3193 16.6573 18.2511 16.3259 18.3181C15.9945 18.3851 15.7089 18.579 15.5215 18.8637L13.3982 22.089C13.0111 22.6769 13.1675 23.4751 13.7474 23.8687L13.9116 23.9801C14.1221 24.1225 14.3639 24.1966 14.6111 24.1966C14.6941 24.1966 14.7774 24.1882 14.8604 24.1715C15.1918 24.1045 15.4774 23.9106 15.6647 23.6258L17.7881 20.4005C18.1752 19.8122 18.0192 19.014 17.4393 18.6212ZM17.1017 19.9349L14.9784 23.1606C14.9132 23.2594 14.8142 23.3264 14.6994 23.3499C14.5851 23.3725 14.4675 23.3494 14.3701 23.2833L14.2059 23.1719C14.0049 23.0354 13.9504 22.7586 14.0849 22.5542L16.2083 19.3285C16.2735 19.2297 16.3725 19.1627 16.4872 19.1393C16.5161 19.1334 16.545 19.1305 16.5739 19.1305C16.6598 19.1305 16.7435 19.156 16.8166 19.2054L16.9812 19.3172C17.1818 19.4542 17.2363 19.731 17.1017 19.9349Z" fill="#3A322B"/>
<path d="M39.7377 33.5791C37.0114 33.5791 34.7932 35.8299 34.7932 38.5962C34.7932 41.3625 37.0114 43.6134 39.7377 43.6134C42.4639 43.6134 44.6822 41.3625 44.6822 38.5962C44.6822 35.8299 42.4639 33.5791 39.7377 33.5791ZM43.5241 36.9526H41.4239V34.7868C42.3628 35.2169 43.1168 35.9907 43.5241 36.9526ZM38.1174 34.7546V36.8852H35.9834C36.4072 35.9325 37.1699 35.1679 38.1174 34.7546ZM35.9512 40.2403H38.051V42.4061C37.1121 41.976 36.3581 41.2017 35.9512 40.2403ZM38.8764 42.6829V39.8215C38.8764 39.5899 38.6919 39.4028 38.4637 39.4028H35.697C35.6466 39.1419 35.6185 38.8726 35.6185 38.5966C35.6185 38.2968 35.6511 38.0049 35.7106 37.7227H38.5301C38.7583 37.7227 38.9428 37.5355 38.9428 37.3039V34.4966C39.2003 34.4455 39.4657 34.417 39.7377 34.417C40.0331 34.417 40.3208 34.4501 40.5985 34.5104V37.3718C40.5985 37.6034 40.783 37.7905 41.0112 37.7905H43.7784C43.8287 38.0518 43.8568 38.3211 43.8568 38.5971C43.8568 38.8969 43.8242 39.1888 43.7647 39.4706H40.9444C40.7162 39.4706 40.5317 39.6578 40.5317 39.8894V42.6971C40.2746 42.7482 40.0092 42.7767 39.7372 42.7767C39.4422 42.7763 39.1545 42.7432 38.8764 42.6829ZM41.3575 42.4387V40.3077H43.4919C43.0685 41.2608 42.3054 42.0254 41.3575 42.4387Z" fill="#3A322B"/>
<path d="M26.6672 12.6007H43.7445C43.9727 12.6007 44.1572 12.4131 44.1572 12.1819C44.1572 11.9508 43.9727 11.7632 43.7445 11.7632H26.6672C26.4393 11.7632 26.2545 11.9508 26.2545 12.1819C26.2545 12.4131 26.4389 12.6007 26.6672 12.6007Z" fill="#3A322B"/>
<path d="M26.6672 16.5475H43.7445C43.9727 16.5475 44.1572 16.3599 44.1572 16.1287C44.1572 15.8976 43.9727 15.71 43.7445 15.71H26.6672C26.4393 15.71 26.2545 15.8976 26.2545 16.1287C26.2545 16.3599 26.4389 16.5475 26.6672 16.5475Z" fill="#3A322B"/>
<path d="M26.6672 20.4943H43.7445C43.9727 20.4943 44.1572 20.3066 44.1572 20.0755C44.1572 19.8443 43.9727 19.6567 43.7445 19.6567H26.6672C26.4393 19.6567 26.2545 19.8443 26.2545 20.0755C26.2545 20.3066 26.4389 20.4943 26.6672 20.4943Z" fill="#3A322B"/>
<path d="M26.6672 24.441H43.7445C43.9727 24.441 44.1572 24.2534 44.1572 24.0223C44.1572 23.7911 43.9727 23.6035 43.7445 23.6035H26.6672C26.4393 23.6035 26.2545 23.7911 26.2545 24.0223C26.2545 24.2534 26.4389 24.441 26.6672 24.441Z" fill="#3A322B"/>
<path d="M26.6672 28.3888H43.7445C43.9727 28.3888 44.1572 28.2016 44.1572 27.97C44.1572 27.7385 43.9727 27.5513 43.7445 27.5513H26.6672C26.4393 27.5513 26.2545 27.7389 26.2545 27.97C26.2545 28.2012 26.4389 28.3888 26.6672 28.3888Z" fill="#3A322B"/>
<path d="M53.5873 2H21.5882C21.3604 2 21.1755 2.1876 21.1755 2.41876V4.78808H19.3332C19.1054 4.78808 18.9205 4.97569 18.9205 5.20684V7.25373L17.9725 8.69341C17.9119 8.78596 17.8896 8.89902 17.911 9.0079C17.9325 9.11678 17.9957 9.21267 18.0864 9.27423L19.0497 9.92707L18.1871 11.2374L17.2243 10.5845C17.1331 10.523 17.0225 10.5003 16.9144 10.5221C16.8071 10.5439 16.7126 10.608 16.6519 10.7001L6.90488 25.5065C6.88549 25.5362 6.8698 25.5681 6.85825 25.602L5.39648 29.8754C5.33499 30.0559 5.40102 30.2552 5.55702 30.3607L9.4087 32.9713C9.47845 33.0186 9.55851 33.042 9.63816 33.042C9.73721 33.042 9.83584 33.006 9.91343 32.9353L13.2757 29.8813C13.3012 29.8578 13.3244 29.831 13.3438 29.8021L15.9615 25.8256C17.2656 25.9362 18.2936 27.0463 18.2936 28.3976V37.251H3.94833C2.87409 37.251 2 38.1379 2 39.2279C2 40.3179 2.87409 41.2049 3.94833 41.2049H17.5817C17.6663 41.591 17.7988 41.9586 17.9713 42.3024H8.07198C6.20082 42.3024 4.6788 43.8468 4.6788 45.745V48.7061C3.36313 48.794 2.31819 49.905 2.31819 51.2622V53.5812C2.31819 53.8128 2.50308 54 2.73088 54H27.004C27.2318 54 27.4167 53.8128 27.4167 53.5812V51.2622C27.4167 49.9548 26.4464 48.8744 25.1988 48.7191H44.7825C44.9034 48.7191 45.0181 48.665 45.0965 48.5717L47.692 45.48H53.5873C53.8155 45.48 54 45.2928 54 45.0612V2.41876C54 2.1876 53.8151 2 53.5873 2ZM49.8083 5.6256V41.4029H44.7825C44.5542 41.4029 44.3698 41.5901 44.3698 41.8217V47.8811H25.056V43.7346C26.0403 42.8782 26.6672 41.6102 26.6672 40.1944C26.6672 38.7786 26.0403 37.5106 25.056 36.6538V24.5559C25.056 21.78 23.0148 19.4844 20.3765 19.1188L23.059 15.0439C23.1857 14.8517 23.1345 14.5912 22.9451 14.463L21.9819 13.8102L22.8444 12.4999L23.8072 13.1528C23.8778 13.2005 23.9574 13.2231 24.0363 13.2231C24.1696 13.2231 24.3004 13.1578 24.38 13.0372L25.8352 10.8266C25.8959 10.734 25.9182 10.621 25.8967 10.5121C25.8752 10.4032 25.8121 10.3073 25.7213 10.2457L20.0001 6.36806C19.9217 6.31529 19.8326 6.2998 19.7455 6.30524V5.6256H49.8083ZM49.3275 42.2405L45.1951 47.1625V42.2405H49.3275ZM22.0685 36.3657C24.1493 36.3657 25.8418 38.0835 25.8418 40.1948C25.8418 42.3058 24.1489 44.0235 22.0685 44.0235C19.9881 44.0235 18.2953 42.3058 18.2953 40.1948C18.2953 38.083 19.9881 36.3657 22.0685 36.3657ZM19.885 7.29686L24.9198 10.7093L23.9232 12.2235L18.8883 8.81108L19.885 7.29686ZM19.736 10.3927L22.1581 12.0347L21.2956 13.345L18.8735 11.703L19.736 10.3927ZM17.1088 11.5142L22.1437 14.9266L21.4598 15.9655L16.4183 12.5631L17.1088 11.5142ZM7.4645 26.3838L12.3252 29.6204L10.8457 30.9642L6.83844 28.2138L7.4645 26.3838ZM9.60102 32.0944L6.28089 29.844L6.55863 29.0324L10.2118 31.54L9.60102 32.0944ZM12.8844 28.9914L7.8223 25.6208L15.9598 13.2591L21.0009 16.6615L12.8844 28.9914ZM16.467 25.0576L19.8553 19.9107C22.286 20.025 24.2306 22.0618 24.2306 24.5559V36.0785C23.5856 35.728 22.8498 35.5282 22.0685 35.5282C20.9464 35.5282 19.918 35.9394 19.119 36.6195V28.3976C19.119 26.7624 17.9812 25.393 16.467 25.0576ZM3.94833 40.3669C3.32929 40.3669 2.82539 39.8556 2.82539 39.2275C2.82539 38.5994 3.32929 38.0881 3.94833 38.0881H17.9705C17.6531 38.7216 17.4699 39.436 17.4699 40.194C17.4699 40.2522 17.4765 40.3087 17.4785 40.3665L3.94833 40.3669ZM8.07198 43.1395H18.5057C19.3497 44.1885 20.6328 44.8602 22.0685 44.8602C22.8498 44.8602 23.5856 44.66 24.2306 44.31V48.6969H5.50419V45.7442C5.50419 44.3083 6.65603 43.1395 8.07198 43.1395ZM26.5917 51.2617V53.1621H3.14399V51.2617C3.14399 50.3095 3.90748 49.5348 4.84636 49.5348H24.8897C25.8278 49.5348 26.5917 50.3095 26.5917 51.2617ZM53.1746 44.642H48.3952L50.535 42.0931C50.5986 42.0173 50.6336 41.921 50.6336 41.8217V5.20684C50.6336 4.97569 50.4492 4.78808 50.221 4.78808H22.0009V2.83751H53.1746V44.642Z" fill="#3A322B"/>
</svg>
