<svg width="36" height="36" viewBox="0 0 36 36" fill="none" xmlns="http://www.w3.org/2000/svg">
<path d="M16.2742 27.366C16.2742 27.5809 16.4495 27.7562 16.6645 27.7562C16.8794 27.7562 17.0547 27.5809 17.0547 27.366C17.0547 26.8233 17.0623 26.2775 17.0745 25.7379C17.137 22.0977 17.195 18.3506 14.073 17.1678C14.2133 16.7074 14.3931 16.247 14.5761 15.7943L14.5989 15.7364C15.1294 14.4056 15.5517 13.0001 15.0364 11.7059C14.5212 10.4072 13.0548 9.60685 11.634 9.84466C10.4236 10.0474 9.27271 10.9529 8.55473 12.2563C7.99985 13.2669 7.67212 14.488 7.53187 16.1008C7.40382 17.5596 7.46174 18.8172 7.71175 19.9529C8.01662 21.334 8.61266 22.5245 9.44041 23.398C10.0059 23.9956 10.6233 24.3812 11.2666 24.5489C11.4846 24.6038 11.7117 24.6312 11.9297 24.6312C12.4922 24.6312 13.0303 24.4514 13.4435 24.113C14.0761 23.5947 14.4541 22.677 14.4495 21.6541C14.445 21.0383 14.2742 20.4758 14.1096 19.9285C14.0395 19.6983 13.9694 19.4636 13.9099 19.2303C13.8078 18.8096 13.8169 18.3751 13.887 17.9392C16.4038 18.9895 16.3535 22.1421 16.2956 25.721C16.2834 26.2698 16.2742 26.8157 16.2742 27.366ZM13.1492 19.4163C13.2072 19.6663 13.2819 19.9117 13.3596 20.1571C13.5151 20.6724 13.6645 21.1602 13.6675 21.6602C13.6721 22.4483 13.4023 23.1389 12.9496 23.5093C12.5639 23.8248 12.0044 23.93 11.4587 23.7944C10.9663 23.6694 10.4633 23.3462 10.0075 22.866C9.27729 22.0931 8.74679 21.0322 8.47393 19.7913C8.24375 18.738 8.18887 17.555 8.3093 16.177C8.44192 14.6785 8.73919 13.555 9.23765 12.6374C9.84284 11.5368 10.7864 10.7837 11.7621 10.6191C11.8901 10.5962 12.0197 10.5886 12.1477 10.5886C13.0837 10.5886 13.9709 11.1511 14.3093 11.9971C14.7224 13.0398 14.3444 14.2715 13.8718 15.4514L13.849 15.5093C13.666 15.9697 13.4709 16.4545 13.3215 16.9529C13.0867 16.9026 12.8413 16.8599 12.5761 16.8355C12.3505 16.8203 12.1706 16.9727 12.1462 17.1831C12.1233 17.398 12.2788 17.5886 12.4937 17.613C12.7193 17.6359 12.9343 17.6709 13.137 17.7151C13.0364 18.27 13.012 18.8431 13.1492 19.4163ZM22.1248 19.2334C22.07 19.4681 21.9968 19.6983 21.9251 19.9316C21.7575 20.4773 21.5852 21.0444 21.5852 21.6572C21.5806 22.68 21.9602 23.5962 22.5913 24.116C23.009 24.456 23.544 24.6343 24.105 24.6343C24.323 24.6343 24.5456 24.6069 24.7681 24.552C25.4114 24.3874 26.0288 24.0017 26.5943 23.4011C27.4221 22.5276 28.0181 21.337 28.323 19.956C28.573 18.8249 28.6309 17.5642 28.5029 16.1038C28.3581 14.4926 28.0349 13.27 27.477 12.2593C26.759 10.9514 25.6081 10.0505 24.3977 9.84772C22.9739 9.60992 21.5105 10.4057 20.9953 11.709C20.48 13.0047 20.9023 14.4133 21.4328 15.7394L21.4556 15.7974C21.6355 16.2455 21.8184 16.7028 21.9556 17.1586C18.8032 18.3248 18.8641 22.087 18.9236 25.7393C18.9312 26.2774 18.9434 26.8247 18.9434 27.3674C18.9434 27.5823 19.1187 27.7576 19.3337 27.7576C19.5486 27.7576 19.7239 27.5823 19.7239 27.3674C19.7239 26.8171 19.7163 26.2713 19.7041 25.7241C19.6462 22.1296 19.5943 18.9651 22.1386 17.9313C22.2178 18.3704 22.2255 18.8081 22.1248 19.2334ZM23.4236 16.8294C23.1706 16.8568 22.9358 16.8965 22.7102 16.9422C22.5578 16.4468 22.3672 15.962 22.1828 15.5017L22.1599 15.4437C21.6873 14.2654 21.3093 13.0321 21.7224 11.9894C22.0578 11.1434 22.948 10.5855 23.884 10.5855C24.012 10.5855 24.1416 10.5977 24.2697 10.616C25.2453 10.7806 26.1904 11.5367 26.7941 12.6343C27.2971 13.5473 27.5898 14.6709 27.727 16.1739C27.8474 17.5519 27.7971 18.7333 27.5623 19.7882C27.2895 21.0291 26.759 22.0946 26.0288 22.8629C25.5715 23.3461 25.0685 23.6663 24.5776 23.7912C24.0319 23.9315 23.4739 23.8217 23.0867 23.5062C22.634 23.1358 22.3641 22.4452 22.3687 21.6571C22.3687 21.1571 22.5166 20.6693 22.6767 20.154C22.7514 19.9086 22.8245 19.6586 22.887 19.4132C23.0242 18.84 22.9998 18.2653 22.8992 17.7044C23.0898 17.6647 23.294 17.6297 23.5075 17.6068C23.7224 17.5839 23.8779 17.3919 23.855 17.1769C23.8306 16.9665 23.6462 16.8141 23.4236 16.8294ZM3.47865 22.5656C3.54572 22.7729 3.42834 22.9909 3.2256 23.0534C3.18597 23.0656 3.14786 23.0732 3.10822 23.0732C2.94054 23.0732 2.7881 22.968 2.73779 22.8003C2.24542 21.25 2 19.6357 2 18C2 12.9221 4.32929 8.25908 8.39648 5.20425C11.1831 3.10821 14.503 2 18 2C22.6876 2 27.0501 4.00609 30.0975 7.53053V3.95126C30.0975 3.73632 30.2729 3.56101 30.4878 3.56101C30.7027 3.56101 30.878 3.73632 30.878 3.95126V8.63418C30.878 8.84912 30.7027 9.02443 30.4878 9.02443H25.8049C25.5899 9.02443 25.4146 8.84912 25.4146 8.63418C25.4146 8.41924 25.5899 8.24394 25.8049 8.24394H29.6723C26.7683 4.76679 22.5456 2.78053 18.0001 2.78053C14.6754 2.78053 11.5138 3.83387 8.86446 5.82778C4.99707 8.73174 2.78057 13.1691 2.78057 17.9999C2.78057 19.5563 3.01522 21.0946 3.47865 22.5656ZM34 18.0001C34 23.078 31.6707 27.741 27.6035 30.7958C24.8169 32.8919 21.497 34.0001 18 34.0001C13.3124 34.0001 8.94987 31.994 5.90245 28.4695V32.0488C5.90245 32.2638 5.72715 32.4391 5.51221 32.4391C5.29727 32.4391 5.12196 32.2638 5.12196 32.0488V27.3659C5.12196 27.151 5.29727 26.9757 5.51221 26.9757H10.1951C10.4101 26.9757 10.5854 27.151 10.5854 27.3659C10.5854 27.5808 10.4101 27.7561 10.1951 27.7561H6.32774C9.2317 31.2333 13.4544 33.2196 17.9999 33.2196C21.3246 33.2196 24.4862 32.1662 27.1355 30.1723C31.0029 27.2683 33.2194 22.831 33.2194 18.0002C33.2194 16.4438 32.9847 14.9057 32.5212 13.4347C32.4542 13.2274 32.5716 13.0095 32.7743 12.9469C32.9816 12.8799 33.1996 12.9972 33.2621 13.2C33.7545 14.7503 34 16.3644 34 18.0001Z" fill="#004254"/>
</svg>
