<svg width="37" height="27" viewBox="0 0 37 27" fill="none" xmlns="http://www.w3.org/2000/svg">
<mask id="path-1-outside-1_111_113" maskUnits="userSpaceOnUse" x="1.5" y="1" width="34" height="24" fill="black">
<rect fill="white" x="1.5" y="1" width="34" height="24"/>
<path d="M15.6949 21.2598C15.6696 21.1465 15.5576 21.0745 15.4443 21.0985L14.6989 21.2612C14.6389 20.9838 14.5762 20.6971 14.5149 20.4118C14.3962 19.8651 14.2775 19.3184 14.1735 18.833C13.7055 16.6542 8.15577 12.6354 6.56506 11.9004C6.38771 11.8191 6.1837 11.8258 5.97701 11.8898C5.917 11.5657 5.85833 11.1337 5.79299 10.6497C5.58098 9.08693 5.31831 7.14294 4.71158 6.46536C4.37689 6.09065 3.60617 6.11468 3.08482 6.35202C2.6768 6.53736 2.46478 6.8267 2.50479 7.14539L3.62754 16.106C3.72621 16.8967 4.09025 17.5527 4.70762 18.0554C5.66768 18.8381 6.58907 19.4155 7.40245 19.9249C8.69185 20.7343 9.64925 21.3343 10.0613 22.2717L9.34926 22.4277C9.23592 22.453 9.16392 22.565 9.18792 22.6784L9.63062 24.7105C9.65196 24.8092 9.73863 24.8758 9.83597 24.8758C9.85063 24.8758 9.8653 24.8745 9.8813 24.8705L15.9789 23.5411C16.0336 23.5291 16.0816 23.4958 16.1109 23.4491C16.1416 23.4024 16.1509 23.3451 16.1389 23.2904L15.6949 21.2598ZM7.62498 19.5691C6.82225 19.065 5.91288 18.4957 4.97282 17.729C4.43546 17.2902 4.13145 16.7422 4.04475 16.0528L2.922 7.09227C2.89933 6.91226 3.17401 6.77225 3.25802 6.73358C3.45936 6.64157 3.69536 6.59623 3.90338 6.59623C4.12073 6.59623 4.30741 6.64557 4.39674 6.74424C4.91676 7.32694 5.18213 9.27908 5.37548 10.7046C5.44881 11.2473 5.51415 11.7274 5.58349 12.0741C5.29414 12.2554 5.03411 12.5154 4.88344 12.7608C4.65943 13.1248 4.67276 13.4595 4.92078 13.6581L8.285 16.341C8.37567 16.413 8.50768 16.3983 8.58102 16.3077C8.65303 16.217 8.63836 16.085 8.54769 16.0116L5.18346 13.3288C5.09012 13.2541 5.1928 13.0621 5.24213 12.9821C5.39414 12.7368 5.65548 12.5101 5.90085 12.3781C5.91418 12.3728 5.92618 12.3661 5.93818 12.3594C6.11686 12.2701 6.28486 12.2341 6.39021 12.2821C8.23967 13.1355 13.3586 17.0358 13.7642 18.9197C13.8682 19.4051 13.9868 19.9518 14.1055 20.4998C14.1682 20.7865 14.2295 21.0719 14.2895 21.3505L10.4786 22.1813C10.0319 21.0785 8.96108 20.4064 7.62498 19.5691ZM9.99579 24.4146L9.64242 22.7932L15.3294 21.5544L15.6828 23.1759L9.99579 24.4146ZM24.0634 12.2125C25.1048 11.2258 26.3849 10.0124 26.9195 8.80164C27.4743 9.13899 27.6863 9.65902 27.9436 10.7498C27.9663 10.8444 28.0516 10.9124 28.149 10.9124C28.2463 10.9124 28.3316 10.8458 28.3543 10.7498C28.761 9.02031 29.0557 8.72562 30.7851 8.31893C30.8798 8.29626 30.9478 8.21092 30.9478 8.11358C30.9478 8.01625 30.8811 7.9309 30.7851 7.90824C29.0557 7.50155 28.761 7.20553 28.3543 5.47742C28.3316 5.38275 28.2463 5.31474 28.149 5.31474C28.0516 5.31474 27.9663 5.38141 27.9436 5.47742C27.7543 6.28148 27.5889 6.77484 27.2943 7.11353C27.3476 5.74811 26.8329 4.40269 25.8648 3.43475C24.9395 2.50937 23.7047 2 22.3871 2C21.0695 2 19.8349 2.50937 18.9094 3.43475L18.5 3.8441L18.0907 3.43475C17.1653 2.50937 15.9306 2 14.613 2C13.2954 2 12.0608 2.50937 11.1352 3.43475C10.7605 3.80945 10.4539 4.23482 10.2192 4.70418C9.5578 4.36816 9.33244 3.85612 9.05508 2.67872C9.03242 2.58404 8.94708 2.51604 8.84974 2.51604C8.7524 2.51604 8.66706 2.58271 8.64439 2.67872C8.2377 4.40816 7.94301 4.70285 6.21357 5.10954C6.1189 5.13221 6.0509 5.21755 6.0509 5.31488C6.0509 5.41222 6.11757 5.49756 6.21357 5.52023C7.94301 5.92692 8.2377 6.22161 8.64439 7.95105C8.66706 8.04572 8.7524 8.11373 8.84974 8.11373C8.94708 8.11373 9.03242 8.04706 9.05508 7.95105C9.2511 7.11634 9.42177 6.61495 9.74179 6.27493C9.64312 7.03096 9.72045 7.79901 9.9698 8.52439C10.4178 9.82581 11.8139 11.1486 12.9353 12.2114C13.2087 12.47 13.4674 12.7154 13.6954 12.9447L18.3518 17.5837C18.3931 17.6251 18.4465 17.6451 18.4998 17.6451C18.5532 17.6451 18.6078 17.6251 18.6478 17.5837L23.3015 12.9447C23.5309 12.7154 23.7895 12.4714 24.0629 12.2127L24.0634 12.2125ZM28.149 6.33474C28.4757 7.36413 28.8971 7.78549 29.9265 8.11217C28.8971 8.43886 28.4757 8.86022 28.149 9.88961C27.889 9.0709 27.569 8.63752 26.9316 8.32951C26.917 8.32018 26.9023 8.31084 26.8863 8.30551C26.8836 8.30418 26.881 8.30418 26.8783 8.30284C26.7276 8.23351 26.5609 8.17083 26.3729 8.11083C26.6663 8.01749 26.909 7.91615 27.1143 7.79614C27.1343 7.78814 27.153 7.77748 27.169 7.76414C27.6517 7.46679 27.9237 7.04544 28.149 6.33474ZM8.85191 7.09213C8.52522 6.06274 8.10386 5.64138 7.07448 5.3147C8.10386 4.98801 8.52523 4.56665 8.85191 3.53726C9.1306 4.41598 9.47993 4.8507 10.216 5.16269L10.236 5.1747C10.2453 5.1787 10.2547 5.18136 10.264 5.18403C10.3773 5.22936 10.4973 5.27337 10.6294 5.3147C10.3787 5.39471 10.1653 5.48005 9.97999 5.57739C9.95999 5.58405 9.94132 5.59472 9.92532 5.60805C9.38264 5.91074 9.09192 6.33873 8.85191 7.09213ZM18.5006 17.1368L13.9951 12.646C13.7631 12.414 13.5017 12.1673 13.2257 11.9059C12.1377 10.8739 10.7829 9.59113 10.3682 8.38689C10.0949 7.59085 10.0482 6.74013 10.2322 5.91873C10.5402 5.76538 10.9429 5.64804 11.487 5.52002C11.5816 5.49736 11.6496 5.41202 11.6496 5.31468C11.6496 5.21734 11.583 5.132 11.487 5.10933C11.1416 5.028 10.8536 4.95066 10.6096 4.86665C10.8216 4.44795 11.0976 4.06795 11.4336 3.73192C12.279 2.88652 13.4084 2.42118 14.6138 2.42118C15.8179 2.42118 16.9473 2.88655 17.794 3.73192L18.3514 4.28928C18.4341 4.37196 18.5674 4.37196 18.6487 4.28928L19.2061 3.73192C20.0515 2.88652 21.1809 2.42118 22.3863 2.42118C23.5904 2.42118 24.7198 2.88655 25.5665 3.73192C26.5399 4.70533 27.0106 6.09474 26.8413 7.46941C26.5239 7.64276 26.1012 7.76943 25.5119 7.90812C25.4172 7.93079 25.3492 8.01613 25.3492 8.11347C25.3492 8.21081 25.4158 8.29615 25.5119 8.31881C25.9319 8.41749 26.2666 8.50949 26.5399 8.6175C26.0452 9.75223 24.7918 10.9416 23.7731 11.907C23.497 12.1684 23.237 12.4151 23.005 12.6471L18.5006 17.1368ZM33.9176 6.35071C33.3962 6.11336 32.6255 6.08936 32.2908 6.46405C31.6841 7.14277 31.4214 9.08689 31.2094 10.6484C31.1441 11.1324 31.0854 11.5644 31.0254 11.8885C30.8187 11.8244 30.6134 11.8178 30.4374 11.8991C28.8452 12.6338 23.2969 16.6528 22.8275 18.8317C22.7235 19.3171 22.6049 19.8638 22.4862 20.4105C22.4235 20.6971 22.3622 20.9825 22.3022 21.2599L21.5568 21.0972C21.4435 21.0718 21.3314 21.1439 21.3061 21.2585L20.8634 23.2906C20.8514 23.3453 20.8621 23.4026 20.8914 23.4493C20.9221 23.496 20.9687 23.5293 21.0234 23.5413L27.121 24.8707C27.1357 24.8734 27.1517 24.8761 27.1664 24.8761C27.2637 24.8761 27.3504 24.8094 27.3717 24.7107L27.8144 22.6786C27.8398 22.5653 27.7677 22.4533 27.6531 22.4279L26.941 22.2719C27.3517 21.3345 28.3091 20.7345 29.5986 19.9251C30.4119 19.4157 31.3333 18.837 32.2921 18.0556C32.9094 17.5529 33.2721 16.8969 33.3721 16.1062L34.4949 7.14563C34.5362 6.82561 34.3256 6.53603 33.9176 6.35071ZM27.3585 22.7945L27.0051 24.4159L21.3181 23.1772L21.6715 21.5557L27.3585 22.7945ZM34.0791 7.09213L32.9563 16.0527C32.8696 16.7421 32.567 17.2888 32.0282 17.7288C31.0882 18.4942 30.1788 19.0649 29.3761 19.5689C28.04 20.4076 26.9693 21.0784 26.5239 22.1811L22.713 21.3504C22.773 21.073 22.8357 20.7863 22.897 20.4996C23.0157 19.9529 23.1344 19.4049 23.2384 18.9195C23.6451 17.0368 28.7642 13.1353 30.6133 12.2819C30.7187 12.2339 30.8854 12.2699 31.0654 12.3592C31.0774 12.3672 31.0894 12.3726 31.1027 12.3779C31.348 12.5099 31.6094 12.7366 31.7614 12.9819C31.8107 13.0606 31.9134 13.2526 31.8201 13.3286L28.4559 16.0114C28.3652 16.0835 28.3505 16.2168 28.4225 16.3075C28.4945 16.3981 28.6279 16.4128 28.7185 16.3408L32.0828 13.658C32.3308 13.4606 32.3454 13.1246 32.1201 12.7606C31.9694 12.5166 31.7094 12.2552 31.4201 12.0739C31.4894 11.7272 31.5547 11.2485 31.6281 10.7045C31.8214 9.27902 32.0854 7.32558 32.6068 6.74405C32.7801 6.55071 33.3335 6.54537 33.7455 6.73339C33.8269 6.77205 34.1017 6.91212 34.0791 7.09213Z"/>
</mask>
<path d="M15.6949 21.2598C15.6696 21.1465 15.5576 21.0745 15.4443 21.0985L14.6989 21.2612C14.6389 20.9838 14.5762 20.6971 14.5149 20.4118C14.3962 19.8651 14.2775 19.3184 14.1735 18.833C13.7055 16.6542 8.15577 12.6354 6.56506 11.9004C6.38771 11.8191 6.1837 11.8258 5.97701 11.8898C5.917 11.5657 5.85833 11.1337 5.79299 10.6497C5.58098 9.08693 5.31831 7.14294 4.71158 6.46536C4.37689 6.09065 3.60617 6.11468 3.08482 6.35202C2.6768 6.53736 2.46478 6.8267 2.50479 7.14539L3.62754 16.106C3.72621 16.8967 4.09025 17.5527 4.70762 18.0554C5.66768 18.8381 6.58907 19.4155 7.40245 19.9249C8.69185 20.7343 9.64925 21.3343 10.0613 22.2717L9.34926 22.4277C9.23592 22.453 9.16392 22.565 9.18792 22.6784L9.63062 24.7105C9.65196 24.8092 9.73863 24.8758 9.83597 24.8758C9.85063 24.8758 9.8653 24.8745 9.8813 24.8705L15.9789 23.5411C16.0336 23.5291 16.0816 23.4958 16.1109 23.4491C16.1416 23.4024 16.1509 23.3451 16.1389 23.2904L15.6949 21.2598ZM7.62498 19.5691C6.82225 19.065 5.91288 18.4957 4.97282 17.729C4.43546 17.2902 4.13145 16.7422 4.04475 16.0528L2.922 7.09227C2.89933 6.91226 3.17401 6.77225 3.25802 6.73358C3.45936 6.64157 3.69536 6.59623 3.90338 6.59623C4.12073 6.59623 4.30741 6.64557 4.39674 6.74424C4.91676 7.32694 5.18213 9.27908 5.37548 10.7046C5.44881 11.2473 5.51415 11.7274 5.58349 12.0741C5.29414 12.2554 5.03411 12.5154 4.88344 12.7608C4.65943 13.1248 4.67276 13.4595 4.92078 13.6581L8.285 16.341C8.37567 16.413 8.50768 16.3983 8.58102 16.3077C8.65303 16.217 8.63836 16.085 8.54769 16.0116L5.18346 13.3288C5.09012 13.2541 5.1928 13.0621 5.24213 12.9821C5.39414 12.7368 5.65548 12.5101 5.90085 12.3781C5.91418 12.3728 5.92618 12.3661 5.93818 12.3594C6.11686 12.2701 6.28486 12.2341 6.39021 12.2821C8.23967 13.1355 13.3586 17.0358 13.7642 18.9197C13.8682 19.4051 13.9868 19.9518 14.1055 20.4998C14.1682 20.7865 14.2295 21.0719 14.2895 21.3505L10.4786 22.1813C10.0319 21.0785 8.96108 20.4064 7.62498 19.5691ZM9.99579 24.4146L9.64242 22.7932L15.3294 21.5544L15.6828 23.1759L9.99579 24.4146ZM24.0634 12.2125C25.1048 11.2258 26.3849 10.0124 26.9195 8.80164C27.4743 9.13899 27.6863 9.65902 27.9436 10.7498C27.9663 10.8444 28.0516 10.9124 28.149 10.9124C28.2463 10.9124 28.3316 10.8458 28.3543 10.7498C28.761 9.02031 29.0557 8.72562 30.7851 8.31893C30.8798 8.29626 30.9478 8.21092 30.9478 8.11358C30.9478 8.01625 30.8811 7.9309 30.7851 7.90824C29.0557 7.50155 28.761 7.20553 28.3543 5.47742C28.3316 5.38275 28.2463 5.31474 28.149 5.31474C28.0516 5.31474 27.9663 5.38141 27.9436 5.47742C27.7543 6.28148 27.5889 6.77484 27.2943 7.11353C27.3476 5.74811 26.8329 4.40269 25.8648 3.43475C24.9395 2.50937 23.7047 2 22.3871 2C21.0695 2 19.8349 2.50937 18.9094 3.43475L18.5 3.8441L18.0907 3.43475C17.1653 2.50937 15.9306 2 14.613 2C13.2954 2 12.0608 2.50937 11.1352 3.43475C10.7605 3.80945 10.4539 4.23482 10.2192 4.70418C9.5578 4.36816 9.33244 3.85612 9.05508 2.67872C9.03242 2.58404 8.94708 2.51604 8.84974 2.51604C8.7524 2.51604 8.66706 2.58271 8.64439 2.67872C8.2377 4.40816 7.94301 4.70285 6.21357 5.10954C6.1189 5.13221 6.0509 5.21755 6.0509 5.31488C6.0509 5.41222 6.11757 5.49756 6.21357 5.52023C7.94301 5.92692 8.2377 6.22161 8.64439 7.95105C8.66706 8.04572 8.7524 8.11373 8.84974 8.11373C8.94708 8.11373 9.03242 8.04706 9.05508 7.95105C9.2511 7.11634 9.42177 6.61495 9.74179 6.27493C9.64312 7.03096 9.72045 7.79901 9.9698 8.52439C10.4178 9.82581 11.8139 11.1486 12.9353 12.2114C13.2087 12.47 13.4674 12.7154 13.6954 12.9447L18.3518 17.5837C18.3931 17.6251 18.4465 17.6451 18.4998 17.6451C18.5532 17.6451 18.6078 17.6251 18.6478 17.5837L23.3015 12.9447C23.5309 12.7154 23.7895 12.4714 24.0629 12.2127L24.0634 12.2125ZM28.149 6.33474C28.4757 7.36413 28.8971 7.78549 29.9265 8.11217C28.8971 8.43886 28.4757 8.86022 28.149 9.88961C27.889 9.0709 27.569 8.63752 26.9316 8.32951C26.917 8.32018 26.9023 8.31084 26.8863 8.30551C26.8836 8.30418 26.881 8.30418 26.8783 8.30284C26.7276 8.23351 26.5609 8.17083 26.3729 8.11083C26.6663 8.01749 26.909 7.91615 27.1143 7.79614C27.1343 7.78814 27.153 7.77748 27.169 7.76414C27.6517 7.46679 27.9237 7.04544 28.149 6.33474ZM8.85191 7.09213C8.52522 6.06274 8.10386 5.64138 7.07448 5.3147C8.10386 4.98801 8.52523 4.56665 8.85191 3.53726C9.1306 4.41598 9.47993 4.8507 10.216 5.16269L10.236 5.1747C10.2453 5.1787 10.2547 5.18136 10.264 5.18403C10.3773 5.22936 10.4973 5.27337 10.6294 5.3147C10.3787 5.39471 10.1653 5.48005 9.97999 5.57739C9.95999 5.58405 9.94132 5.59472 9.92532 5.60805C9.38264 5.91074 9.09192 6.33873 8.85191 7.09213ZM18.5006 17.1368L13.9951 12.646C13.7631 12.414 13.5017 12.1673 13.2257 11.9059C12.1377 10.8739 10.7829 9.59113 10.3682 8.38689C10.0949 7.59085 10.0482 6.74013 10.2322 5.91873C10.5402 5.76538 10.9429 5.64804 11.487 5.52002C11.5816 5.49736 11.6496 5.41202 11.6496 5.31468C11.6496 5.21734 11.583 5.132 11.487 5.10933C11.1416 5.028 10.8536 4.95066 10.6096 4.86665C10.8216 4.44795 11.0976 4.06795 11.4336 3.73192C12.279 2.88652 13.4084 2.42118 14.6138 2.42118C15.8179 2.42118 16.9473 2.88655 17.794 3.73192L18.3514 4.28928C18.4341 4.37196 18.5674 4.37196 18.6487 4.28928L19.2061 3.73192C20.0515 2.88652 21.1809 2.42118 22.3863 2.42118C23.5904 2.42118 24.7198 2.88655 25.5665 3.73192C26.5399 4.70533 27.0106 6.09474 26.8413 7.46941C26.5239 7.64276 26.1012 7.76943 25.5119 7.90812C25.4172 7.93079 25.3492 8.01613 25.3492 8.11347C25.3492 8.21081 25.4158 8.29615 25.5119 8.31881C25.9319 8.41749 26.2666 8.50949 26.5399 8.6175C26.0452 9.75223 24.7918 10.9416 23.7731 11.907C23.497 12.1684 23.237 12.4151 23.005 12.6471L18.5006 17.1368ZM33.9176 6.35071C33.3962 6.11336 32.6255 6.08936 32.2908 6.46405C31.6841 7.14277 31.4214 9.08689 31.2094 10.6484C31.1441 11.1324 31.0854 11.5644 31.0254 11.8885C30.8187 11.8244 30.6134 11.8178 30.4374 11.8991C28.8452 12.6338 23.2969 16.6528 22.8275 18.8317C22.7235 19.3171 22.6049 19.8638 22.4862 20.4105C22.4235 20.6971 22.3622 20.9825 22.3022 21.2599L21.5568 21.0972C21.4435 21.0718 21.3314 21.1439 21.3061 21.2585L20.8634 23.2906C20.8514 23.3453 20.8621 23.4026 20.8914 23.4493C20.9221 23.496 20.9687 23.5293 21.0234 23.5413L27.121 24.8707C27.1357 24.8734 27.1517 24.8761 27.1664 24.8761C27.2637 24.8761 27.3504 24.8094 27.3717 24.7107L27.8144 22.6786C27.8398 22.5653 27.7677 22.4533 27.6531 22.4279L26.941 22.2719C27.3517 21.3345 28.3091 20.7345 29.5986 19.9251C30.4119 19.4157 31.3333 18.837 32.2921 18.0556C32.9094 17.5529 33.2721 16.8969 33.3721 16.1062L34.4949 7.14563C34.5362 6.82561 34.3256 6.53603 33.9176 6.35071ZM27.3585 22.7945L27.0051 24.4159L21.3181 23.1772L21.6715 21.5557L27.3585 22.7945ZM34.0791 7.09213L32.9563 16.0527C32.8696 16.7421 32.567 17.2888 32.0282 17.7288C31.0882 18.4942 30.1788 19.0649 29.3761 19.5689C28.04 20.4076 26.9693 21.0784 26.5239 22.1811L22.713 21.3504C22.773 21.073 22.8357 20.7863 22.897 20.4996C23.0157 19.9529 23.1344 19.4049 23.2384 18.9195C23.6451 17.0368 28.7642 13.1353 30.6133 12.2819C30.7187 12.2339 30.8854 12.2699 31.0654 12.3592C31.0774 12.3672 31.0894 12.3726 31.1027 12.3779C31.348 12.5099 31.6094 12.7366 31.7614 12.9819C31.8107 13.0606 31.9134 13.2526 31.8201 13.3286L28.4559 16.0114C28.3652 16.0835 28.3505 16.2168 28.4225 16.3075C28.4945 16.3981 28.6279 16.4128 28.7185 16.3408L32.0828 13.658C32.3308 13.4606 32.3454 13.1246 32.1201 12.7606C31.9694 12.5166 31.7094 12.2552 31.4201 12.0739C31.4894 11.7272 31.5547 11.2485 31.6281 10.7045C31.8214 9.27902 32.0854 7.32558 32.6068 6.74405C32.7801 6.55071 33.3335 6.54537 33.7455 6.73339C33.8269 6.77205 34.1017 6.91212 34.0791 7.09213Z" fill="#004254"/>
<path d="M15.6949 21.2598C15.6696 21.1465 15.5576 21.0745 15.4443 21.0985L14.6989 21.2612C14.6389 20.9838 14.5762 20.6971 14.5149 20.4118C14.3962 19.8651 14.2775 19.3184 14.1735 18.833C13.7055 16.6542 8.15577 12.6354 6.56506 11.9004C6.38771 11.8191 6.1837 11.8258 5.97701 11.8898C5.917 11.5657 5.85833 11.1337 5.79299 10.6497C5.58098 9.08693 5.31831 7.14294 4.71158 6.46536C4.37689 6.09065 3.60617 6.11468 3.08482 6.35202C2.6768 6.53736 2.46478 6.8267 2.50479 7.14539L3.62754 16.106C3.72621 16.8967 4.09025 17.5527 4.70762 18.0554C5.66768 18.8381 6.58907 19.4155 7.40245 19.9249C8.69185 20.7343 9.64925 21.3343 10.0613 22.2717L9.34926 22.4277C9.23592 22.453 9.16392 22.565 9.18792 22.6784L9.63062 24.7105C9.65196 24.8092 9.73863 24.8758 9.83597 24.8758C9.85063 24.8758 9.8653 24.8745 9.8813 24.8705L15.9789 23.5411C16.0336 23.5291 16.0816 23.4958 16.1109 23.4491C16.1416 23.4024 16.1509 23.3451 16.1389 23.2904L15.6949 21.2598ZM7.62498 19.5691C6.82225 19.065 5.91288 18.4957 4.97282 17.729C4.43546 17.2902 4.13145 16.7422 4.04475 16.0528L2.922 7.09227C2.89933 6.91226 3.17401 6.77225 3.25802 6.73358C3.45936 6.64157 3.69536 6.59623 3.90338 6.59623C4.12073 6.59623 4.30741 6.64557 4.39674 6.74424C4.91676 7.32694 5.18213 9.27908 5.37548 10.7046C5.44881 11.2473 5.51415 11.7274 5.58349 12.0741C5.29414 12.2554 5.03411 12.5154 4.88344 12.7608C4.65943 13.1248 4.67276 13.4595 4.92078 13.6581L8.285 16.341C8.37567 16.413 8.50768 16.3983 8.58102 16.3077C8.65303 16.217 8.63836 16.085 8.54769 16.0116L5.18346 13.3288C5.09012 13.2541 5.1928 13.0621 5.24213 12.9821C5.39414 12.7368 5.65548 12.5101 5.90085 12.3781C5.91418 12.3728 5.92618 12.3661 5.93818 12.3594C6.11686 12.2701 6.28486 12.2341 6.39021 12.2821C8.23967 13.1355 13.3586 17.0358 13.7642 18.9197C13.8682 19.4051 13.9868 19.9518 14.1055 20.4998C14.1682 20.7865 14.2295 21.0719 14.2895 21.3505L10.4786 22.1813C10.0319 21.0785 8.96108 20.4064 7.62498 19.5691ZM9.99579 24.4146L9.64242 22.7932L15.3294 21.5544L15.6828 23.1759L9.99579 24.4146ZM24.0634 12.2125C25.1048 11.2258 26.3849 10.0124 26.9195 8.80164C27.4743 9.13899 27.6863 9.65902 27.9436 10.7498C27.9663 10.8444 28.0516 10.9124 28.149 10.9124C28.2463 10.9124 28.3316 10.8458 28.3543 10.7498C28.761 9.02031 29.0557 8.72562 30.7851 8.31893C30.8798 8.29626 30.9478 8.21092 30.9478 8.11358C30.9478 8.01625 30.8811 7.9309 30.7851 7.90824C29.0557 7.50155 28.761 7.20553 28.3543 5.47742C28.3316 5.38275 28.2463 5.31474 28.149 5.31474C28.0516 5.31474 27.9663 5.38141 27.9436 5.47742C27.7543 6.28148 27.5889 6.77484 27.2943 7.11353C27.3476 5.74811 26.8329 4.40269 25.8648 3.43475C24.9395 2.50937 23.7047 2 22.3871 2C21.0695 2 19.8349 2.50937 18.9094 3.43475L18.5 3.8441L18.0907 3.43475C17.1653 2.50937 15.9306 2 14.613 2C13.2954 2 12.0608 2.50937 11.1352 3.43475C10.7605 3.80945 10.4539 4.23482 10.2192 4.70418C9.5578 4.36816 9.33244 3.85612 9.05508 2.67872C9.03242 2.58404 8.94708 2.51604 8.84974 2.51604C8.7524 2.51604 8.66706 2.58271 8.64439 2.67872C8.2377 4.40816 7.94301 4.70285 6.21357 5.10954C6.1189 5.13221 6.0509 5.21755 6.0509 5.31488C6.0509 5.41222 6.11757 5.49756 6.21357 5.52023C7.94301 5.92692 8.2377 6.22161 8.64439 7.95105C8.66706 8.04572 8.7524 8.11373 8.84974 8.11373C8.94708 8.11373 9.03242 8.04706 9.05508 7.95105C9.2511 7.11634 9.42177 6.61495 9.74179 6.27493C9.64312 7.03096 9.72045 7.79901 9.9698 8.52439C10.4178 9.82581 11.8139 11.1486 12.9353 12.2114C13.2087 12.47 13.4674 12.7154 13.6954 12.9447L18.3518 17.5837C18.3931 17.6251 18.4465 17.6451 18.4998 17.6451C18.5532 17.6451 18.6078 17.6251 18.6478 17.5837L23.3015 12.9447C23.5309 12.7154 23.7895 12.4714 24.0629 12.2127L24.0634 12.2125ZM28.149 6.33474C28.4757 7.36413 28.8971 7.78549 29.9265 8.11217C28.8971 8.43886 28.4757 8.86022 28.149 9.88961C27.889 9.0709 27.569 8.63752 26.9316 8.32951C26.917 8.32018 26.9023 8.31084 26.8863 8.30551C26.8836 8.30418 26.881 8.30418 26.8783 8.30284C26.7276 8.23351 26.5609 8.17083 26.3729 8.11083C26.6663 8.01749 26.909 7.91615 27.1143 7.79614C27.1343 7.78814 27.153 7.77748 27.169 7.76414C27.6517 7.46679 27.9237 7.04544 28.149 6.33474ZM8.85191 7.09213C8.52522 6.06274 8.10386 5.64138 7.07448 5.3147C8.10386 4.98801 8.52523 4.56665 8.85191 3.53726C9.1306 4.41598 9.47993 4.8507 10.216 5.16269L10.236 5.1747C10.2453 5.1787 10.2547 5.18136 10.264 5.18403C10.3773 5.22936 10.4973 5.27337 10.6294 5.3147C10.3787 5.39471 10.1653 5.48005 9.97999 5.57739C9.95999 5.58405 9.94132 5.59472 9.92532 5.60805C9.38264 5.91074 9.09192 6.33873 8.85191 7.09213ZM18.5006 17.1368L13.9951 12.646C13.7631 12.414 13.5017 12.1673 13.2257 11.9059C12.1377 10.8739 10.7829 9.59113 10.3682 8.38689C10.0949 7.59085 10.0482 6.74013 10.2322 5.91873C10.5402 5.76538 10.9429 5.64804 11.487 5.52002C11.5816 5.49736 11.6496 5.41202 11.6496 5.31468C11.6496 5.21734 11.583 5.132 11.487 5.10933C11.1416 5.028 10.8536 4.95066 10.6096 4.86665C10.8216 4.44795 11.0976 4.06795 11.4336 3.73192C12.279 2.88652 13.4084 2.42118 14.6138 2.42118C15.8179 2.42118 16.9473 2.88655 17.794 3.73192L18.3514 4.28928C18.4341 4.37196 18.5674 4.37196 18.6487 4.28928L19.2061 3.73192C20.0515 2.88652 21.1809 2.42118 22.3863 2.42118C23.5904 2.42118 24.7198 2.88655 25.5665 3.73192C26.5399 4.70533 27.0106 6.09474 26.8413 7.46941C26.5239 7.64276 26.1012 7.76943 25.5119 7.90812C25.4172 7.93079 25.3492 8.01613 25.3492 8.11347C25.3492 8.21081 25.4158 8.29615 25.5119 8.31881C25.9319 8.41749 26.2666 8.50949 26.5399 8.6175C26.0452 9.75223 24.7918 10.9416 23.7731 11.907C23.497 12.1684 23.237 12.4151 23.005 12.6471L18.5006 17.1368ZM33.9176 6.35071C33.3962 6.11336 32.6255 6.08936 32.2908 6.46405C31.6841 7.14277 31.4214 9.08689 31.2094 10.6484C31.1441 11.1324 31.0854 11.5644 31.0254 11.8885C30.8187 11.8244 30.6134 11.8178 30.4374 11.8991C28.8452 12.6338 23.2969 16.6528 22.8275 18.8317C22.7235 19.3171 22.6049 19.8638 22.4862 20.4105C22.4235 20.6971 22.3622 20.9825 22.3022 21.2599L21.5568 21.0972C21.4435 21.0718 21.3314 21.1439 21.3061 21.2585L20.8634 23.2906C20.8514 23.3453 20.8621 23.4026 20.8914 23.4493C20.9221 23.496 20.9687 23.5293 21.0234 23.5413L27.121 24.8707C27.1357 24.8734 27.1517 24.8761 27.1664 24.8761C27.2637 24.8761 27.3504 24.8094 27.3717 24.7107L27.8144 22.6786C27.8398 22.5653 27.7677 22.4533 27.6531 22.4279L26.941 22.2719C27.3517 21.3345 28.3091 20.7345 29.5986 19.9251C30.4119 19.4157 31.3333 18.837 32.2921 18.0556C32.9094 17.5529 33.2721 16.8969 33.3721 16.1062L34.4949 7.14563C34.5362 6.82561 34.3256 6.53603 33.9176 6.35071ZM27.3585 22.7945L27.0051 24.4159L21.3181 23.1772L21.6715 21.5557L27.3585 22.7945ZM34.0791 7.09213L32.9563 16.0527C32.8696 16.7421 32.567 17.2888 32.0282 17.7288C31.0882 18.4942 30.1788 19.0649 29.3761 19.5689C28.04 20.4076 26.9693 21.0784 26.5239 22.1811L22.713 21.3504C22.773 21.073 22.8357 20.7863 22.897 20.4996C23.0157 19.9529 23.1344 19.4049 23.2384 18.9195C23.6451 17.0368 28.7642 13.1353 30.6133 12.2819C30.7187 12.2339 30.8854 12.2699 31.0654 12.3592C31.0774 12.3672 31.0894 12.3726 31.1027 12.3779C31.348 12.5099 31.6094 12.7366 31.7614 12.9819C31.8107 13.0606 31.9134 13.2526 31.8201 13.3286L28.4559 16.0114C28.3652 16.0835 28.3505 16.2168 28.4225 16.3075C28.4945 16.3981 28.6279 16.4128 28.7185 16.3408L32.0828 13.658C32.3308 13.4606 32.3454 13.1246 32.1201 12.7606C31.9694 12.5166 31.7094 12.2552 31.4201 12.0739C31.4894 11.7272 31.5547 11.2485 31.6281 10.7045C31.8214 9.27902 32.0854 7.32558 32.6068 6.74405C32.7801 6.55071 33.3335 6.54537 33.7455 6.73339C33.8269 6.77205 34.1017 6.91212 34.0791 7.09213Z" stroke="#004254" stroke-width="0.2" mask="url(#path-1-outside-1_111_113)"/>
</svg>
