<svg width="37" height="36" viewBox="0 0 37 36" fill="none" xmlns="http://www.w3.org/2000/svg">
<path d="M9.71607 8.01709C12.5937 8.01709 14.5832 10.6816 13.2687 13.3461C13.2687 13.3461 12.1674 15.0514 10.924 15.1935C10.924 15.1935 11.6345 15.8685 11.4569 16.9343C11.3148 18.0001 10.7108 18.2133 10.3555 18.3909C10.3555 18.3909 12.6292 18.8528 12.6292 22.7252C12.6292 24.7858 11.0661 25.8516 9.2187 25.8516C7.62001 25.8516 5.84368 25.0345 4.74236 23.4002C2.36209 19.8475 1.79367 12.3869 6.23448 9.225C7.4779 8.40788 8.65027 8.01709 9.71607 8.01709ZM9.71607 7.55524C8.47264 7.55524 7.19369 8.01709 6.02132 8.86973C1.2963 12.2093 1.93577 20.0252 4.3871 23.6845C5.48842 25.3187 7.3358 26.349 9.25422 26.349C11.5634 26.349 13.1266 24.8924 13.1266 22.7608C13.1266 20.0962 12.0963 18.8883 11.3148 18.3554C11.5634 18.1067 11.8121 17.6804 11.9187 17.0409C12.0253 16.4014 11.8477 15.8685 11.67 15.4777C12.7358 14.9804 13.5529 13.7724 13.6595 13.6303L13.695 13.5948C14.37 12.2448 14.299 10.7882 13.5529 9.6158C12.7713 8.33683 11.3148 7.55524 9.71607 7.55524Z" fill="#004254"/>
<path d="M14.2991 28.4448C14.2635 28.4448 14.2635 28.4448 14.2991 28.4448C14.157 28.4448 14.0504 28.3382 14.0859 28.1961C14.4412 20.9841 13.2333 18.8525 12.4872 18.213C12.0254 17.8222 11.6346 17.9288 11.6346 17.9288C11.528 17.9643 11.3859 17.8933 11.3504 17.7512C11.3148 17.6446 11.3859 17.5025 11.528 17.467C11.5635 17.467 12.1319 17.3249 12.7714 17.8222C13.8017 18.6394 14.9385 21.1262 14.5833 28.1961C14.5122 28.3382 14.4056 28.4448 14.2991 28.4448Z" fill="#004254"/>
<path d="M11.8478 16.1168C11.7412 16.1168 11.6346 16.0102 11.6346 15.9036C11.6346 15.7615 11.7057 15.6549 11.8478 15.6549C12.5938 15.6194 14.7254 15.3707 15.4004 14.9444C15.507 14.8733 15.6491 14.9088 15.7202 15.0154C15.7912 15.122 15.7557 15.2641 15.6491 15.3352C14.7609 15.9391 11.9899 16.1168 11.8478 16.1168Z" fill="#004254"/>
<path d="M15.507 17.183H11.8478C11.7057 17.183 11.6346 17.0764 11.6346 16.9698C11.6346 16.8632 11.7412 16.7567 11.8478 16.7567H15.507C15.6491 16.7567 15.7202 16.8632 15.7202 16.9698C15.7202 17.0764 15.6136 17.183 15.507 17.183Z" fill="#004254"/>
<path d="M27.2662 8.01709C28.332 8.01709 29.5044 8.37236 30.7123 9.225C35.1531 12.3869 34.5846 19.8831 32.2044 23.4002C31.1031 25.0345 29.3267 25.8516 27.728 25.8516C25.8807 25.8516 24.3175 24.7858 24.3175 22.7252C24.3175 18.8528 26.5912 18.3909 26.5912 18.3909C26.2359 18.2488 25.6675 18.0001 25.4899 16.9343C25.3478 15.8685 26.0228 15.1935 26.0228 15.1935C24.8149 15.0514 23.678 13.3461 23.678 13.3461C22.3991 10.7171 24.3886 8.01709 27.2662 8.01709ZM27.2662 7.55524C25.6675 7.55524 24.2109 8.3013 23.4293 9.58027C22.6833 10.7882 22.6478 12.2093 23.2872 13.5593C23.2872 13.5593 23.2872 13.5948 23.3228 13.5948C23.4293 13.7369 24.2464 14.9448 25.3122 15.4422C25.1346 15.7975 24.957 16.3304 25.0636 17.0054C25.1701 17.6449 25.4188 18.0712 25.6675 18.3199C24.8859 18.8528 23.8557 20.0607 23.8557 22.7252C23.8557 24.8924 25.4188 26.3134 27.728 26.3134C29.6109 26.3134 31.4938 25.2832 32.5952 23.6489C35.082 19.9541 35.686 12.1737 30.9965 8.83421C29.7886 8.01709 28.5096 7.55524 27.2662 7.55524Z" fill="#004254"/>
<path d="M22.6832 28.4448C22.7188 28.4448 22.7188 28.4448 22.6832 28.4448C22.8253 28.4448 22.9319 28.3382 22.8964 28.1961C22.5411 20.9841 23.749 18.8525 24.4951 18.213C24.9569 17.8222 25.3477 17.9288 25.3477 17.9288C25.4543 17.9643 25.5964 17.8933 25.6319 17.7512C25.6674 17.6446 25.5964 17.5025 25.4543 17.467C25.4188 17.467 24.8503 17.3249 24.2109 17.8222C23.1806 18.6394 22.0438 21.1262 22.399 28.1961C22.4701 28.3382 22.5766 28.4448 22.6832 28.4448Z" fill="#004254"/>
<path d="M25.1346 16.1168C25.2411 16.1168 25.3477 16.0102 25.3477 15.9036C25.3477 15.7615 25.2767 15.6549 25.1346 15.6549C24.3885 15.6194 22.2569 15.3707 21.5819 14.9444C21.4753 14.8733 21.3332 14.9088 21.2622 15.0154C21.1911 15.122 21.2267 15.2641 21.3332 15.3352C22.2214 15.9391 24.9925 16.1168 25.1346 16.1168Z" fill="#004254"/>
<path d="M21.4752 17.183H25.1344C25.2765 17.183 25.3476 17.0764 25.3476 16.9698C25.3476 16.8632 25.241 16.7567 25.1344 16.7567H21.4752C21.3331 16.7567 21.262 16.8632 21.262 16.9698C21.262 17.0764 21.3686 17.183 21.4752 17.183Z" fill="#004254"/>
</svg>
