<svg width="36" height="36" viewBox="0 0 36 36" fill="none" xmlns="http://www.w3.org/2000/svg">
<path d="M11.118 23.299C11.0459 23.299 10.9765 23.271 10.9258 23.2203L9.5022 21.7967H9.50353C9.39946 21.6926 9.39946 21.5245 9.50353 21.4204L12.5696 18.385C12.619 18.3343 12.687 18.305 12.7591 18.305C12.8298 18.305 12.8979 18.3343 12.9472 18.385C13.0513 18.4891 13.0513 18.6586 12.9472 18.7626L10.1013 21.6085L11.1367 22.6439L14.1961 19.5805C14.3028 19.4777 14.4709 19.4777 14.5763 19.5805C14.6804 19.6846 14.6804 19.854 14.5763 19.9581L11.3074 23.2203C11.2567 23.271 11.1887 23.299 11.118 23.299Z" fill="#004254"/>
<path d="M15.8575 15.7337C15.7868 15.7337 15.7187 15.7056 15.6694 15.6563C15.6186 15.6069 15.5893 15.5389 15.5893 15.4668C15.5893 15.3961 15.6186 15.3281 15.6694 15.2787L24.5327 6.41274C25.0317 5.94176 25.8109 5.94176 26.3112 6.41274C26.7982 6.90507 26.7982 7.6976 26.3112 8.19126L19.1957 15.3067C19.0916 15.4108 18.9222 15.4108 18.8181 15.3067C18.7674 15.2573 18.738 15.1893 18.738 15.1186C18.738 15.0479 18.7674 14.9798 18.8181 14.9304L25.9336 7.81501V7.81368C26.0724 7.67892 26.1497 7.49213 26.1471 7.29867C26.1511 7.10254 26.0737 6.91574 25.9336 6.77833C25.6441 6.50215 25.1891 6.50215 24.8982 6.77833L16.0469 15.6562C15.9962 15.7043 15.9282 15.7323 15.8575 15.7337Z" fill="#004254"/>
<path d="M2.9177 29.9403C2.67887 29.943 2.44005 29.9203 2.20523 29.8736C2.11183 29.8509 2.03711 29.7802 2.01043 29.6868C1.98374 29.5934 2.00909 29.4934 2.07714 29.4253L9.78766 21.7002C9.83703 21.6482 9.90641 21.6175 9.97846 21.6161C10.0505 21.6148 10.1199 21.6428 10.1719 21.6935C10.2226 21.7456 10.2506 21.8149 10.2493 21.887C10.248 21.959 10.2173 22.0284 10.1653 22.0778L2.83489 29.4067C3.63546 29.4067 5.22986 29.2106 6.81619 27.5988V27.6001C7.08171 27.3253 7.32588 27.0331 7.55001 26.7249C9.01233 24.7182 10.6028 22.6155 10.6161 22.5862C10.7055 22.4687 10.8723 22.4447 10.9897 22.5328C11.1085 22.6222 11.1325 22.789 11.0431 22.9064C11.0431 22.9277 9.43801 25.0412 7.97965 27.0373C7.74349 27.3695 7.48199 27.6817 7.19777 27.9739C5.5353 29.663 3.84625 29.9403 2.9177 29.9403Z" fill="#004254"/>
<path d="M29.2285 22.1806C27.45 22.1806 25.4819 21.8244 24.0155 20.5835C21.9982 18.8824 19.511 19.3734 17.1056 19.8511C16.7494 19.9191 16.4265 19.9858 16.0956 20.0472C15.3845 20.1753 14.0075 20.2673 13.0602 19.4241C12.5692 19.0305 12.3091 18.4168 12.3704 17.791C12.4999 16.9905 12.9989 16.2994 13.7154 15.9231C14.7614 15.3294 15.9609 15.212 17.1204 15.0945C17.4766 15.0585 17.8315 15.0238 18.1557 14.9771L18.3305 14.9518C19.3979 14.8023 20.7388 14.6169 21.454 13.8484C21.957 13.2546 22.2118 12.4901 22.1651 11.7136C22.1518 11.5668 22.2598 11.4361 22.4079 11.4214C22.5547 11.4081 22.6855 11.5161 22.6988 11.6642C22.7522 12.5902 22.44 13.5001 21.8315 14.2006C21.0016 15.1186 19.5607 15.3173 18.4053 15.4988L18.2305 15.5202C17.8742 15.5695 17.5194 15.6056 17.1631 15.6416C16.057 15.7523 14.9176 15.8657 13.9609 16.4061C13.3992 16.7023 13.0056 17.24 12.8935 17.8657C12.8548 18.3194 13.0496 18.7623 13.4099 19.0425C14.189 19.7537 15.3632 19.6509 15.993 19.5375L16.9963 19.3454C19.4046 18.8691 22.1372 18.3274 24.3547 20.1953C27.2406 22.6249 32.4389 21.3441 33.481 21.0532H33.4797C33.429 18.8651 33.1795 16.6849 32.7325 14.5423C30.9539 14.4396 26.0972 11.6964 23.9197 10.3196C23.801 10.2422 23.765 10.0848 23.8383 9.96334C23.9171 9.84859 24.0718 9.81257 24.1933 9.88195C27.0605 11.7072 31.665 14.1515 32.9032 14.0193C33.0393 14.0033 33.1647 14.0927 33.1954 14.2261C33.6877 16.541 33.9573 18.9 34 21.2667C33.9973 21.3815 33.9239 21.4829 33.8145 21.5189C32.3241 21.9499 30.7803 22.1726 29.2285 22.1806Z" fill="#004254"/>
<path d="M10.3711 20.3557C10.1256 20.3637 9.8814 20.3117 9.65993 20.2036C9.29568 19.9928 9.05553 19.6219 9.01283 19.2029C8.92077 18.6693 9.17961 18.1636 9.48249 17.5805C9.93745 16.816 10.207 15.9568 10.2724 15.0695C10.2724 14.9241 10.2724 14.7813 10.2897 14.6425C10.3497 12.8213 10.4004 11.383 13.7412 10.3197C14.4137 10.0529 15.1075 9.73934 15.78 9.4378C18.4658 8.23168 21.0036 7.08956 22.626 8.72667L22.6247 8.72534C22.6754 8.7747 22.7047 8.84275 22.7047 8.91346C22.7047 8.98551 22.6754 9.05356 22.6247 9.10292C22.5206 9.20699 22.3525 9.20699 22.2484 9.10292C20.8861 7.74067 18.6192 8.74667 16.0001 9.93548C15.321 10.2384 14.6232 10.5546 13.9187 10.8321C10.9193 11.7861 10.8833 12.8748 10.8192 14.6706V15.1015C10.7512 16.0662 10.4603 17.0028 9.96931 17.8367C9.70246 18.3557 9.493 18.7653 9.55301 19.1215C9.57302 19.3804 9.71979 19.6112 9.94393 19.7406C10.3962 19.9754 11.1568 19.7153 11.4129 19.5979H11.4143C11.5464 19.5432 11.6985 19.6019 11.7585 19.7326C11.8185 19.862 11.7652 20.0168 11.6384 20.0822C11.2381 20.2556 10.8074 20.3491 10.3711 20.3557Z" fill="#004254"/>
<path d="M13.6371 16.5659C13.5984 16.5659 13.5583 16.5566 13.5236 16.5379C13.4583 16.5086 13.4089 16.4539 13.3849 16.3871C13.3595 16.3204 13.3649 16.2457 13.3956 16.1817C13.6744 15.5733 13.8679 14.9302 13.968 14.2684C13.9853 14.1229 14.1107 14.0162 14.2561 14.0229C14.3269 14.0282 14.3936 14.0616 14.4389 14.1149C14.4856 14.1696 14.5083 14.2404 14.5016 14.3111C14.3989 15.0356 14.1881 15.7414 13.8799 16.4058C13.8372 16.5032 13.7425 16.5659 13.6371 16.5659Z" fill="#004254"/>
<path d="M14.1637 15.0225C14.0196 15.0211 13.9022 14.9064 13.8969 14.7623C13.8942 14.6916 13.9195 14.6222 13.9689 14.5715C14.0183 14.5195 14.085 14.4901 14.157 14.4888C14.1784 14.4888 16.544 14.3994 17.7155 13.244C18.8856 12.0872 18.7549 11.0065 18.7468 10.9558C18.7375 10.813 18.8416 10.6889 18.9843 10.6742C19.1258 10.6582 19.2552 10.757 19.2765 10.8984C19.2765 10.9558 19.4153 12.2927 18.0917 13.6202C16.7681 14.9478 14.2877 15.0185 14.1784 15.0225L14.1637 15.0225Z" fill="#004254"/>
<path d="M14.9365 23.54C13.7557 23.54 12.4642 21.9923 12.3067 21.8001C12.2147 21.6854 12.2333 21.5172 12.3481 21.4252C12.4628 21.3318 12.6309 21.3505 12.723 21.4652C13.1326 21.9669 14.3495 23.2197 15.146 22.9702C15.8252 22.7567 15.7865 20.7967 15.5023 19.8961C15.4583 19.7547 15.5383 19.6053 15.6797 19.5626C15.8212 19.5185 15.9706 19.5986 16.0146 19.74C16.2241 20.4165 16.5844 23.0809 15.3035 23.4798H15.3022C15.1847 23.5185 15.0606 23.5386 14.9365 23.54Z" fill="#004254"/>
<path d="M18.6432 22.8102C17.4904 22.8102 16.0281 22.0991 15.8293 21.9843V21.9856C15.7666 21.9536 15.7185 21.8989 15.6959 21.8322C15.6745 21.7655 15.6798 21.6921 15.7119 21.6294C15.7786 21.5 15.9374 21.4479 16.0681 21.512C16.6912 21.8282 18.4738 22.5794 19.2103 22.1631L19.4518 22.039C20.1842 21.6547 21.2877 21.0717 22.0068 21.1424C22.2137 21.1637 22.5365 20.8929 22.6579 20.4979H22.6566C22.782 20.1644 22.6259 19.7921 22.3017 19.648C22.1776 19.5747 22.1336 19.4172 22.2016 19.2918C22.2697 19.165 22.4244 19.1157 22.5538 19.1784C23.0969 19.4492 23.353 20.0816 23.1516 20.654C22.9848 21.1984 22.4858 21.7214 21.9347 21.6721C21.3837 21.6227 20.319 22.1777 19.6825 22.5113L19.441 22.6354V22.6367C19.1929 22.7568 18.9194 22.8169 18.6432 22.8102Z" fill="#004254"/>
<path d="M26.4708 22.878C24.2933 22.878 22.2586 21.6545 22.137 21.5798C22.0116 21.5011 21.9716 21.3369 22.0503 21.2115C22.1277 21.0848 22.2918 21.0461 22.4185 21.1235C22.4545 21.1488 26.24 23.4184 28.7587 21.6785C28.8774 21.6065 29.0322 21.6372 29.1136 21.7506C29.1896 21.868 29.1603 22.0241 29.0469 22.1055C28.2877 22.6218 27.3884 22.8914 26.4705 22.878L26.4708 22.878Z" fill="#004254"/>
</svg>
