<svg width="59" height="59" viewBox="0 0 59 59" fill="none" xmlns="http://www.w3.org/2000/svg">
<rect x="2" y="2" width="55" height="55" rx="5" fill="#004254"/>
<path d="M26.2695 33.7422C26.2695 34.7578 26.0234 35.6406 25.5312 36.3906C25.0391 37.1406 24.3203 37.7188 23.375 38.125C22.4375 38.5312 21.2969 38.7344 19.9531 38.7344C19.3594 38.7344 18.7773 38.6953 18.207 38.6172C17.6445 38.5391 17.1016 38.4258 16.5781 38.2773C16.0625 38.1211 15.5703 37.9297 15.1016 37.7031V34.3281C15.9141 34.6875 16.7578 35.0117 17.6328 35.3008C18.5078 35.5898 19.375 35.7344 20.2344 35.7344C20.8281 35.7344 21.3047 35.6562 21.6641 35.5C22.0312 35.3438 22.2969 35.1289 22.4609 34.8555C22.625 34.582 22.707 34.2695 22.707 33.918C22.707 33.4883 22.5625 33.1211 22.2734 32.8164C21.9844 32.5117 21.5859 32.2266 21.0781 31.9609C20.5781 31.6953 20.0117 31.4102 19.3789 31.1055C18.9805 30.918 18.5469 30.6914 18.0781 30.4258C17.6094 30.1523 17.1641 29.8203 16.7422 29.4297C16.3203 29.0391 15.9727 28.5664 15.6992 28.0117C15.4336 27.4492 15.3008 26.7773 15.3008 25.9961C15.3008 24.9727 15.5352 24.0977 16.0039 23.3711C16.4727 22.6445 17.1406 22.0898 18.0078 21.707C18.8828 21.3164 19.9141 21.1211 21.1016 21.1211C21.9922 21.1211 22.8398 21.2266 23.6445 21.4375C24.457 21.6406 25.3047 21.9375 26.1875 22.3281L25.0156 25.1523C24.2266 24.832 23.5195 24.5859 22.8945 24.4141C22.2695 24.2344 21.6328 24.1445 20.9844 24.1445C20.5312 24.1445 20.1445 24.2188 19.8242 24.3672C19.5039 24.5078 19.2617 24.7109 19.0977 24.9766C18.9336 25.2344 18.8516 25.5352 18.8516 25.8789C18.8516 26.2852 18.9688 26.6289 19.2031 26.9102C19.4453 27.1836 19.8047 27.4492 20.2812 27.707C20.7656 27.9648 21.3672 28.2656 22.0859 28.6094C22.9609 29.0234 23.707 29.457 24.3242 29.9102C24.9492 30.3555 25.4297 30.8828 25.7656 31.4922C26.1016 32.0938 26.2695 32.8438 26.2695 33.7422ZM35.8789 28.8789H42.6758V37.7617C41.7773 38.0586 40.8438 38.2969 39.875 38.4766C38.9062 38.6484 37.8086 38.7344 36.582 38.7344C34.8789 38.7344 33.4336 38.3984 32.2461 37.7266C31.0586 37.0547 30.1562 36.0625 29.5391 34.75C28.9219 33.4375 28.6133 31.8242 28.6133 29.9102C28.6133 28.1133 28.957 26.5586 29.6445 25.2461C30.3398 23.9336 31.3516 22.918 32.6797 22.1992C34.0156 21.4805 35.6445 21.1211 37.5664 21.1211C38.4727 21.1211 39.3672 21.2188 40.25 21.4141C41.1328 21.6094 41.9336 21.8633 42.6523 22.1758L41.4453 25.082C40.9219 24.8164 40.3242 24.5938 39.6523 24.4141C38.9805 24.2344 38.2773 24.1445 37.543 24.1445C36.4883 24.1445 35.5703 24.3867 34.7891 24.8711C34.0156 25.3555 33.4141 26.0352 32.9844 26.9102C32.5625 27.7773 32.3516 28.8008 32.3516 29.9805C32.3516 31.0977 32.5039 32.0898 32.8086 32.957C33.1133 33.8164 33.5938 34.4922 34.25 34.9844C34.9062 35.4688 35.7617 35.7109 36.8164 35.7109C37.332 35.7109 37.7656 35.6875 38.1172 35.6406C38.4766 35.5859 38.8125 35.5312 39.125 35.4766V31.9023H35.8789V28.8789Z" fill="white"/>
</svg>
