<svg width="375" height="63" viewBox="0 0 375 63" fill="none" xmlns="http://www.w3.org/2000/svg">
<rect x="4" y="4" width="55" height="55" rx="5" fill="#004254"/>
<path d="M28.2695 35.7422C28.2695 36.7578 28.0234 37.6406 27.5312 38.3906C27.0391 39.1406 26.3203 39.7188 25.375 40.125C24.4375 40.5312 23.2969 40.7344 21.9531 40.7344C21.3594 40.7344 20.7773 40.6953 20.207 40.6172C19.6445 40.5391 19.1016 40.4258 18.5781 40.2773C18.0625 40.1211 17.5703 39.9297 17.1016 39.7031V36.3281C17.9141 36.6875 18.7578 37.0117 19.6328 37.3008C20.5078 37.5898 21.375 37.7344 22.2344 37.7344C22.8281 37.7344 23.3047 37.6562 23.6641 37.5C24.0312 37.3438 24.2969 37.1289 24.4609 36.8555C24.625 36.582 24.707 36.2695 24.707 35.918C24.707 35.4883 24.5625 35.1211 24.2734 34.8164C23.9844 34.5117 23.5859 34.2266 23.0781 33.9609C22.5781 33.6953 22.0117 33.4102 21.3789 33.1055C20.9805 32.918 20.5469 32.6914 20.0781 32.4258C19.6094 32.1523 19.1641 31.8203 18.7422 31.4297C18.3203 31.0391 17.9727 30.5664 17.6992 30.0117C17.4336 29.4492 17.3008 28.7773 17.3008 27.9961C17.3008 26.9727 17.5352 26.0977 18.0039 25.3711C18.4727 24.6445 19.1406 24.0898 20.0078 23.707C20.8828 23.3164 21.9141 23.1211 23.1016 23.1211C23.9922 23.1211 24.8398 23.2266 25.6445 23.4375C26.457 23.6406 27.3047 23.9375 28.1875 24.3281L27.0156 27.1523C26.2266 26.832 25.5195 26.5859 24.8945 26.4141C24.2695 26.2344 23.6328 26.1445 22.9844 26.1445C22.5312 26.1445 22.1445 26.2188 21.8242 26.3672C21.5039 26.5078 21.2617 26.7109 21.0977 26.9766C20.9336 27.2344 20.8516 27.5352 20.8516 27.8789C20.8516 28.2852 20.9688 28.6289 21.2031 28.9102C21.4453 29.1836 21.8047 29.4492 22.2812 29.707C22.7656 29.9648 23.3672 30.2656 24.0859 30.6094C24.9609 31.0234 25.707 31.457 26.3242 31.9102C26.9492 32.3555 27.4297 32.8828 27.7656 33.4922C28.1016 34.0938 28.2695 34.8438 28.2695 35.7422ZM37.8789 30.8789H44.6758V39.7617C43.7773 40.0586 42.8438 40.2969 41.875 40.4766C40.9062 40.6484 39.8086 40.7344 38.582 40.7344C36.8789 40.7344 35.4336 40.3984 34.2461 39.7266C33.0586 39.0547 32.1562 38.0625 31.5391 36.75C30.9219 35.4375 30.6133 33.8242 30.6133 31.9102C30.6133 30.1133 30.957 28.5586 31.6445 27.2461C32.3398 25.9336 33.3516 24.918 34.6797 24.1992C36.0156 23.4805 37.6445 23.1211 39.5664 23.1211C40.4727 23.1211 41.3672 23.2188 42.25 23.4141C43.1328 23.6094 43.9336 23.8633 44.6523 24.1758L43.4453 27.082C42.9219 26.8164 42.3242 26.5938 41.6523 26.4141C40.9805 26.2344 40.2773 26.1445 39.543 26.1445C38.4883 26.1445 37.5703 26.3867 36.7891 26.8711C36.0156 27.3555 35.4141 28.0352 34.9844 28.9102C34.5625 29.7773 34.3516 30.8008 34.3516 31.9805C34.3516 33.0977 34.5039 34.0898 34.8086 34.957C35.1133 35.8164 35.5938 36.4922 36.25 36.9844C36.9062 37.4688 37.7617 37.7109 38.8164 37.7109C39.332 37.7109 39.7656 37.6875 40.1172 37.6406C40.4766 37.5859 40.8125 37.5312 41.125 37.4766V33.9023H37.8789V30.8789Z" fill="white"/>
<path d="M90.3711 17.7695C90.3711 19.6992 90 21.3125 89.2578 22.6094C88.5234 23.8984 87.457 24.8711 86.0586 25.5273C84.6602 26.1758 82.9766 26.5 81.0078 26.5H76.1562V9.36719H81.5352C83.332 9.36719 84.8906 9.6875 86.2109 10.3281C87.5312 10.9609 88.5547 11.9023 89.2812 13.1523C90.0078 14.3945 90.3711 15.9336 90.3711 17.7695ZM86.5977 17.8633C86.5977 16.5977 86.4102 15.5586 86.0352 14.7461C85.668 13.9258 85.1211 13.3203 84.3945 12.9297C83.6758 12.5391 82.7852 12.3438 81.7227 12.3438H79.7891V23.5H81.3477C83.1211 23.5 84.4375 23.0273 85.2969 22.082C86.1641 21.1367 86.5977 19.7305 86.5977 17.8633ZM100.953 13.1523C101.133 13.1523 101.34 13.1641 101.574 13.1875C101.816 13.2031 102.012 13.2266 102.16 13.2578L101.891 16.6094C101.773 16.5703 101.605 16.543 101.387 16.5273C101.176 16.5039 100.992 16.4922 100.836 16.4922C100.375 16.4922 99.9258 16.5508 99.4883 16.668C99.0586 16.7852 98.6719 16.9766 98.3281 17.2422C97.9844 17.5 97.7109 17.8438 97.5078 18.2734C97.3125 18.6953 97.2148 19.2148 97.2148 19.832V26.5H93.6406V13.3984H96.3477L96.875 15.6016H97.0508C97.3086 15.1562 97.6289 14.75 98.0117 14.3828C98.4023 14.0078 98.8438 13.7109 99.3359 13.4922C99.8359 13.2656 100.375 13.1523 100.953 13.1523ZM104.035 24.8242C104.035 24.0898 104.234 23.5742 104.633 23.2773C105.039 22.9805 105.527 22.832 106.098 22.832C106.652 22.832 107.129 22.9805 107.527 23.2773C107.934 23.5742 108.137 24.0898 108.137 24.8242C108.137 25.5273 107.934 26.0352 107.527 26.3477C107.129 26.6602 106.652 26.8164 106.098 26.8164C105.527 26.8164 105.039 26.6602 104.633 26.3477C104.234 26.0352 104.035 25.5273 104.035 24.8242ZM128.012 21.7422C128.012 22.7578 127.766 23.6406 127.273 24.3906C126.781 25.1406 126.062 25.7188 125.117 26.125C124.18 26.5312 123.039 26.7344 121.695 26.7344C121.102 26.7344 120.52 26.6953 119.949 26.6172C119.387 26.5391 118.844 26.4258 118.32 26.2773C117.805 26.1211 117.312 25.9297 116.844 25.7031V22.3281C117.656 22.6875 118.5 23.0117 119.375 23.3008C120.25 23.5898 121.117 23.7344 121.977 23.7344C122.57 23.7344 123.047 23.6562 123.406 23.5C123.773 23.3438 124.039 23.1289 124.203 22.8555C124.367 22.582 124.449 22.2695 124.449 21.918C124.449 21.4883 124.305 21.1211 124.016 20.8164C123.727 20.5117 123.328 20.2266 122.82 19.9609C122.32 19.6953 121.754 19.4102 121.121 19.1055C120.723 18.918 120.289 18.6914 119.82 18.4258C119.352 18.1523 118.906 17.8203 118.484 17.4297C118.062 17.0391 117.715 16.5664 117.441 16.0117C117.176 15.4492 117.043 14.7773 117.043 13.9961C117.043 12.9727 117.277 12.0977 117.746 11.3711C118.215 10.6445 118.883 10.0898 119.75 9.70703C120.625 9.31641 121.656 9.12109 122.844 9.12109C123.734 9.12109 124.582 9.22656 125.387 9.4375C126.199 9.64062 127.047 9.9375 127.93 10.3281L126.758 13.1523C125.969 12.832 125.262 12.5859 124.637 12.4141C124.012 12.2344 123.375 12.1445 122.727 12.1445C122.273 12.1445 121.887 12.2188 121.566 12.3672C121.246 12.5078 121.004 12.7109 120.84 12.9766C120.676 13.2344 120.594 13.5352 120.594 13.8789C120.594 14.2852 120.711 14.6289 120.945 14.9102C121.188 15.1836 121.547 15.4492 122.023 15.707C122.508 15.9648 123.109 16.2656 123.828 16.6094C124.703 17.0234 125.449 17.457 126.066 17.9102C126.691 18.3555 127.172 18.8828 127.508 19.4922C127.844 20.0938 128.012 20.8438 128.012 21.7422ZM136.203 13.1289C137.961 13.1289 139.309 13.5117 140.246 14.2773C141.184 15.043 141.652 16.207 141.652 17.7695V26.5H139.156L138.465 24.7188H138.371C137.996 25.1875 137.613 25.5703 137.223 25.8672C136.832 26.1641 136.383 26.3828 135.875 26.5234C135.367 26.6641 134.75 26.7344 134.023 26.7344C133.25 26.7344 132.555 26.5859 131.938 26.2891C131.328 25.9922 130.848 25.5391 130.496 24.9297C130.145 24.3125 129.969 23.5312 129.969 22.5859C129.969 21.1953 130.457 20.1719 131.434 19.5156C132.41 18.8516 133.875 18.4844 135.828 18.4141L138.102 18.3438V17.7695C138.102 17.082 137.922 16.5781 137.562 16.2578C137.203 15.9375 136.703 15.7773 136.062 15.7773C135.43 15.7773 134.809 15.8672 134.199 16.0469C133.59 16.2266 132.98 16.4531 132.371 16.7266L131.188 14.3125C131.883 13.9453 132.66 13.6562 133.52 13.4453C134.387 13.2344 135.281 13.1289 136.203 13.1289ZM138.102 20.4297L136.719 20.4766C135.562 20.5078 134.758 20.7148 134.305 21.0977C133.859 21.4805 133.637 21.9844 133.637 22.6094C133.637 23.1562 133.797 23.5469 134.117 23.7812C134.438 24.0078 134.855 24.1211 135.371 24.1211C136.137 24.1211 136.781 23.8945 137.305 23.4414C137.836 22.9883 138.102 22.3438 138.102 21.5078V20.4297ZM150.863 23.8867C151.254 23.8867 151.633 23.8477 152 23.7695C152.375 23.6914 152.746 23.5938 153.113 23.4766V26.1367C152.73 26.3086 152.254 26.4492 151.684 26.5586C151.121 26.6758 150.504 26.7344 149.832 26.7344C149.051 26.7344 148.348 26.6094 147.723 26.3594C147.105 26.1016 146.617 25.6602 146.258 25.0352C145.906 24.4023 145.73 23.5234 145.73 22.3984V16.082H144.02V14.5703L145.988 13.375L147.02 10.6094H149.305V13.3984H152.973V16.082H149.305V22.3984C149.305 22.8984 149.445 23.2734 149.727 23.5234C150.016 23.7656 150.395 23.8867 150.863 23.8867ZM153.898 13.3984H157.812L160.285 20.7695C160.363 21.0039 160.43 21.2422 160.484 21.4844C160.539 21.7266 160.586 21.9766 160.625 22.2344C160.664 22.4922 160.695 22.7617 160.719 23.043H160.789C160.836 22.6211 160.898 22.2266 160.977 21.8594C161.062 21.4922 161.168 21.1289 161.293 20.7695L163.719 13.3984H167.551L162.008 28.1758C161.672 29.082 161.234 29.8359 160.695 30.4375C160.156 31.0469 159.535 31.5039 158.832 31.8086C158.137 32.1133 157.371 32.2656 156.535 32.2656C156.129 32.2656 155.777 32.2422 155.48 32.1953C155.184 32.1562 154.93 32.1133 154.719 32.0664V29.2305C154.883 29.2695 155.09 29.3047 155.34 29.3359C155.59 29.3672 155.852 29.3828 156.125 29.3828C156.625 29.3828 157.055 29.2773 157.414 29.0664C157.773 28.8555 158.074 28.5703 158.316 28.2109C158.559 27.8594 158.75 27.4727 158.891 27.0508L159.102 26.4062L153.898 13.3984ZM174.805 13.1289C176.562 13.1289 177.91 13.5117 178.848 14.2773C179.785 15.043 180.254 16.207 180.254 17.7695V26.5H177.758L177.066 24.7188H176.973C176.598 25.1875 176.215 25.5703 175.824 25.8672C175.434 26.1641 174.984 26.3828 174.477 26.5234C173.969 26.6641 173.352 26.7344 172.625 26.7344C171.852 26.7344 171.156 26.5859 170.539 26.2891C169.93 25.9922 169.449 25.5391 169.098 24.9297C168.746 24.3125 168.57 23.5312 168.57 22.5859C168.57 21.1953 169.059 20.1719 170.035 19.5156C171.012 18.8516 172.477 18.4844 174.43 18.4141L176.703 18.3438V17.7695C176.703 17.082 176.523 16.5781 176.164 16.2578C175.805 15.9375 175.305 15.7773 174.664 15.7773C174.031 15.7773 173.41 15.8672 172.801 16.0469C172.191 16.2266 171.582 16.4531 170.973 16.7266L169.789 14.3125C170.484 13.9453 171.262 13.6562 172.121 13.4453C172.988 13.2344 173.883 13.1289 174.805 13.1289ZM176.703 20.4297L175.32 20.4766C174.164 20.5078 173.359 20.7148 172.906 21.0977C172.461 21.4805 172.238 21.9844 172.238 22.6094C172.238 23.1562 172.398 23.5469 172.719 23.7812C173.039 24.0078 173.457 24.1211 173.973 24.1211C174.738 24.1211 175.383 23.8945 175.906 23.4414C176.438 22.9883 176.703 22.3438 176.703 21.5078V20.4297ZM191.387 13.1523C192.785 13.1523 193.91 13.5352 194.762 14.3008C195.613 15.0586 196.039 16.2773 196.039 17.957V26.5H192.465V18.8477C192.465 17.9102 192.293 17.2031 191.949 16.7266C191.613 16.25 191.082 16.0117 190.355 16.0117C189.262 16.0117 188.516 16.3828 188.117 17.125C187.719 17.8672 187.52 18.9375 187.52 20.3359V26.5H183.945V13.3984H186.676L187.156 15.0742H187.355C187.637 14.6211 187.984 14.2539 188.398 13.9727C188.82 13.6914 189.285 13.4844 189.793 13.3516C190.309 13.2188 190.84 13.1523 191.387 13.1523ZM205.086 13.1289C206.844 13.1289 208.191 13.5117 209.129 14.2773C210.066 15.043 210.535 16.207 210.535 17.7695V26.5H208.039L207.348 24.7188H207.254C206.879 25.1875 206.496 25.5703 206.105 25.8672C205.715 26.1641 205.266 26.3828 204.758 26.5234C204.25 26.6641 203.633 26.7344 202.906 26.7344C202.133 26.7344 201.438 26.5859 200.82 26.2891C200.211 25.9922 199.73 25.5391 199.379 24.9297C199.027 24.3125 198.852 23.5312 198.852 22.5859C198.852 21.1953 199.34 20.1719 200.316 19.5156C201.293 18.8516 202.758 18.4844 204.711 18.4141L206.984 18.3438V17.7695C206.984 17.082 206.805 16.5781 206.445 16.2578C206.086 15.9375 205.586 15.7773 204.945 15.7773C204.312 15.7773 203.691 15.8672 203.082 16.0469C202.473 16.2266 201.863 16.4531 201.254 16.7266L200.07 14.3125C200.766 13.9453 201.543 13.6562 202.402 13.4453C203.27 13.2344 204.164 13.1289 205.086 13.1289ZM206.984 20.4297L205.602 20.4766C204.445 20.5078 203.641 20.7148 203.188 21.0977C202.742 21.4805 202.52 21.9844 202.52 22.6094C202.52 23.1562 202.68 23.5469 203 23.7812C203.32 24.0078 203.738 24.1211 204.254 24.1211C205.02 24.1211 205.664 23.8945 206.188 23.4414C206.719 22.9883 206.984 22.3438 206.984 21.5078V20.4297ZM221.539 13.1523C221.719 13.1523 221.926 13.1641 222.16 13.1875C222.402 13.2031 222.598 13.2266 222.746 13.2578L222.477 16.6094C222.359 16.5703 222.191 16.543 221.973 16.5273C221.762 16.5039 221.578 16.4922 221.422 16.4922C220.961 16.4922 220.512 16.5508 220.074 16.668C219.645 16.7852 219.258 16.9766 218.914 17.2422C218.57 17.5 218.297 17.8438 218.094 18.2734C217.898 18.6953 217.801 19.2148 217.801 19.832V26.5H214.227V13.3984H216.934L217.461 15.6016H217.637C217.895 15.1562 218.215 14.75 218.598 14.3828C218.988 14.0078 219.43 13.7109 219.922 13.4922C220.422 13.2656 220.961 13.1523 221.539 13.1523ZM230.492 13.1289C232.25 13.1289 233.598 13.5117 234.535 14.2773C235.473 15.043 235.941 16.207 235.941 17.7695V26.5H233.445L232.754 24.7188H232.66C232.285 25.1875 231.902 25.5703 231.512 25.8672C231.121 26.1641 230.672 26.3828 230.164 26.5234C229.656 26.6641 229.039 26.7344 228.312 26.7344C227.539 26.7344 226.844 26.5859 226.227 26.2891C225.617 25.9922 225.137 25.5391 224.785 24.9297C224.434 24.3125 224.258 23.5312 224.258 22.5859C224.258 21.1953 224.746 20.1719 225.723 19.5156C226.699 18.8516 228.164 18.4844 230.117 18.4141L232.391 18.3438V17.7695C232.391 17.082 232.211 16.5781 231.852 16.2578C231.492 15.9375 230.992 15.7773 230.352 15.7773C229.719 15.7773 229.098 15.8672 228.488 16.0469C227.879 16.2266 227.27 16.4531 226.66 16.7266L225.477 14.3125C226.172 13.9453 226.949 13.6562 227.809 13.4453C228.676 13.2344 229.57 13.1289 230.492 13.1289ZM232.391 20.4297L231.008 20.4766C229.852 20.5078 229.047 20.7148 228.594 21.0977C228.148 21.4805 227.926 21.9844 227.926 22.6094C227.926 23.1562 228.086 23.5469 228.406 23.7812C228.727 24.0078 229.145 24.1211 229.66 24.1211C230.426 24.1211 231.07 23.8945 231.594 23.4414C232.125 22.9883 232.391 22.3438 232.391 21.5078V20.4297ZM237.758 13.3984H241.672L244.145 20.7695C244.223 21.0039 244.289 21.2422 244.344 21.4844C244.398 21.7266 244.445 21.9766 244.484 22.2344C244.523 22.4922 244.555 22.7617 244.578 23.043H244.648C244.695 22.6211 244.758 22.2266 244.836 21.8594C244.922 21.4922 245.027 21.1289 245.152 20.7695L247.578 13.3984H251.41L245.867 28.1758C245.531 29.082 245.094 29.8359 244.555 30.4375C244.016 31.0469 243.395 31.5039 242.691 31.8086C241.996 32.1133 241.23 32.2656 240.395 32.2656C239.988 32.2656 239.637 32.2422 239.34 32.1953C239.043 32.1562 238.789 32.1133 238.578 32.0664V29.2305C238.742 29.2695 238.949 29.3047 239.199 29.3359C239.449 29.3672 239.711 29.3828 239.984 29.3828C240.484 29.3828 240.914 29.2773 241.273 29.0664C241.633 28.8555 241.934 28.5703 242.176 28.2109C242.418 27.8594 242.609 27.4727 242.75 27.0508L242.961 26.4062L237.758 13.3984ZM258.664 13.1289C260.422 13.1289 261.77 13.5117 262.707 14.2773C263.645 15.043 264.113 16.207 264.113 17.7695V26.5H261.617L260.926 24.7188H260.832C260.457 25.1875 260.074 25.5703 259.684 25.8672C259.293 26.1641 258.844 26.3828 258.336 26.5234C257.828 26.6641 257.211 26.7344 256.484 26.7344C255.711 26.7344 255.016 26.5859 254.398 26.2891C253.789 25.9922 253.309 25.5391 252.957 24.9297C252.605 24.3125 252.43 23.5312 252.43 22.5859C252.43 21.1953 252.918 20.1719 253.895 19.5156C254.871 18.8516 256.336 18.4844 258.289 18.4141L260.562 18.3438V17.7695C260.562 17.082 260.383 16.5781 260.023 16.2578C259.664 15.9375 259.164 15.7773 258.523 15.7773C257.891 15.7773 257.27 15.8672 256.66 16.0469C256.051 16.2266 255.441 16.4531 254.832 16.7266L253.648 14.3125C254.344 13.9453 255.121 13.6562 255.98 13.4453C256.848 13.2344 257.742 13.1289 258.664 13.1289ZM260.562 20.4297L259.18 20.4766C258.023 20.5078 257.219 20.7148 256.766 21.0977C256.32 21.4805 256.098 21.9844 256.098 22.6094C256.098 23.1562 256.258 23.5469 256.578 23.7812C256.898 24.0078 257.316 24.1211 257.832 24.1211C258.598 24.1211 259.242 23.8945 259.766 23.4414C260.297 22.9883 260.562 22.3438 260.562 21.5078V20.4297ZM275.246 13.1523C276.645 13.1523 277.77 13.5352 278.621 14.3008C279.473 15.0586 279.898 16.2773 279.898 17.957V26.5H276.324V18.8477C276.324 17.9102 276.152 17.2031 275.809 16.7266C275.473 16.25 274.941 16.0117 274.215 16.0117C273.121 16.0117 272.375 16.3828 271.977 17.125C271.578 17.8672 271.379 18.9375 271.379 20.3359V26.5H267.805V13.3984H270.535L271.016 15.0742H271.215C271.496 14.6211 271.844 14.2539 272.258 13.9727C272.68 13.6914 273.145 13.4844 273.652 13.3516C274.168 13.2188 274.699 13.1523 275.246 13.1523ZM288.945 13.1289C290.703 13.1289 292.051 13.5117 292.988 14.2773C293.926 15.043 294.395 16.207 294.395 17.7695V26.5H291.898L291.207 24.7188H291.113C290.738 25.1875 290.355 25.5703 289.965 25.8672C289.574 26.1641 289.125 26.3828 288.617 26.5234C288.109 26.6641 287.492 26.7344 286.766 26.7344C285.992 26.7344 285.297 26.5859 284.68 26.2891C284.07 25.9922 283.59 25.5391 283.238 24.9297C282.887 24.3125 282.711 23.5312 282.711 22.5859C282.711 21.1953 283.199 20.1719 284.176 19.5156C285.152 18.8516 286.617 18.4844 288.57 18.4141L290.844 18.3438V17.7695C290.844 17.082 290.664 16.5781 290.305 16.2578C289.945 15.9375 289.445 15.7773 288.805 15.7773C288.172 15.7773 287.551 15.8672 286.941 16.0469C286.332 16.2266 285.723 16.4531 285.113 16.7266L283.93 14.3125C284.625 13.9453 285.402 13.6562 286.262 13.4453C287.129 13.2344 288.023 13.1289 288.945 13.1289ZM290.844 20.4297L289.461 20.4766C288.305 20.5078 287.5 20.7148 287.047 21.0977C286.602 21.4805 286.379 21.9844 286.379 22.6094C286.379 23.1562 286.539 23.5469 286.859 23.7812C287.18 24.0078 287.598 24.1211 288.113 24.1211C288.879 24.1211 289.523 23.8945 290.047 23.4414C290.578 22.9883 290.844 22.3438 290.844 21.5078V20.4297ZM311.105 16.8789H317.902V25.7617C317.004 26.0586 316.07 26.2969 315.102 26.4766C314.133 26.6484 313.035 26.7344 311.809 26.7344C310.105 26.7344 308.66 26.3984 307.473 25.7266C306.285 25.0547 305.383 24.0625 304.766 22.75C304.148 21.4375 303.84 19.8242 303.84 17.9102C303.84 16.1133 304.184 14.5586 304.871 13.2461C305.566 11.9336 306.578 10.918 307.906 10.1992C309.242 9.48047 310.871 9.12109 312.793 9.12109C313.699 9.12109 314.594 9.21875 315.477 9.41406C316.359 9.60938 317.16 9.86328 317.879 10.1758L316.672 13.082C316.148 12.8164 315.551 12.5938 314.879 12.4141C314.207 12.2344 313.504 12.1445 312.77 12.1445C311.715 12.1445 310.797 12.3867 310.016 12.8711C309.242 13.3555 308.641 14.0352 308.211 14.9102C307.789 15.7773 307.578 16.8008 307.578 17.9805C307.578 19.0977 307.73 20.0898 308.035 20.957C308.34 21.8164 308.82 22.4922 309.477 22.9844C310.133 23.4688 310.988 23.7109 312.043 23.7109C312.559 23.7109 312.992 23.6875 313.344 23.6406C313.703 23.5859 314.039 23.5312 314.352 23.4766V19.9023H311.105V16.8789ZM327.078 13.1289C328.836 13.1289 330.184 13.5117 331.121 14.2773C332.059 15.043 332.527 16.207 332.527 17.7695V26.5H330.031L329.34 24.7188H329.246C328.871 25.1875 328.488 25.5703 328.098 25.8672C327.707 26.1641 327.258 26.3828 326.75 26.5234C326.242 26.6641 325.625 26.7344 324.898 26.7344C324.125 26.7344 323.43 26.5859 322.812 26.2891C322.203 25.9922 321.723 25.5391 321.371 24.9297C321.02 24.3125 320.844 23.5312 320.844 22.5859C320.844 21.1953 321.332 20.1719 322.309 19.5156C323.285 18.8516 324.75 18.4844 326.703 18.4141L328.977 18.3438V17.7695C328.977 17.082 328.797 16.5781 328.438 16.2578C328.078 15.9375 327.578 15.7773 326.938 15.7773C326.305 15.7773 325.684 15.8672 325.074 16.0469C324.465 16.2266 323.855 16.4531 323.246 16.7266L322.062 14.3125C322.758 13.9453 323.535 13.6562 324.395 13.4453C325.262 13.2344 326.156 13.1289 327.078 13.1289ZM328.977 20.4297L327.594 20.4766C326.438 20.5078 325.633 20.7148 325.18 21.0977C324.734 21.4805 324.512 21.9844 324.512 22.6094C324.512 23.1562 324.672 23.5469 324.992 23.7812C325.312 24.0078 325.73 24.1211 326.246 24.1211C327.012 24.1211 327.656 23.8945 328.18 23.4414C328.711 22.9883 328.977 22.3438 328.977 21.5078V20.4297ZM343.531 13.1523C343.711 13.1523 343.918 13.1641 344.152 13.1875C344.395 13.2031 344.59 13.2266 344.738 13.2578L344.469 16.6094C344.352 16.5703 344.184 16.543 343.965 16.5273C343.754 16.5039 343.57 16.4922 343.414 16.4922C342.953 16.4922 342.504 16.5508 342.066 16.668C341.637 16.7852 341.25 16.9766 340.906 17.2422C340.562 17.5 340.289 17.8438 340.086 18.2734C339.891 18.6953 339.793 19.2148 339.793 19.832V26.5H336.219V13.3984H338.926L339.453 15.6016H339.629C339.887 15.1562 340.207 14.75 340.59 14.3828C340.98 14.0078 341.422 13.7109 341.914 13.4922C342.414 13.2656 342.953 13.1523 343.531 13.1523ZM354.43 13.1523C354.609 13.1523 354.816 13.1641 355.051 13.1875C355.293 13.2031 355.488 13.2266 355.637 13.2578L355.367 16.6094C355.25 16.5703 355.082 16.543 354.863 16.5273C354.652 16.5039 354.469 16.4922 354.312 16.4922C353.852 16.4922 353.402 16.5508 352.965 16.668C352.535 16.7852 352.148 16.9766 351.805 17.2422C351.461 17.5 351.188 17.8438 350.984 18.2734C350.789 18.6953 350.691 19.2148 350.691 19.832V26.5H347.117V13.3984H349.824L350.352 15.6016H350.527C350.785 15.1562 351.105 14.75 351.488 14.3828C351.879 14.0078 352.32 13.7109 352.812 13.4922C353.312 13.2656 353.852 13.1523 354.43 13.1523ZM363.418 13.1523C364.629 13.1523 365.672 13.3867 366.547 13.8555C367.422 14.3164 368.098 14.9883 368.574 15.8711C369.051 16.7539 369.289 17.832 369.289 19.1055V20.8398H360.84C360.879 21.8477 361.18 22.6406 361.742 23.2188C362.312 23.7891 363.102 24.0742 364.109 24.0742C364.945 24.0742 365.711 23.9883 366.406 23.8164C367.102 23.6445 367.816 23.3867 368.551 23.043V25.8086C367.902 26.1289 367.223 26.3633 366.512 26.5117C365.809 26.6602 364.953 26.7344 363.945 26.7344C362.633 26.7344 361.469 26.4922 360.453 26.0078C359.445 25.5234 358.652 24.7852 358.074 23.793C357.504 22.8008 357.219 21.5508 357.219 20.043C357.219 18.5117 357.477 17.2383 357.992 16.2227C358.516 15.1992 359.242 14.4336 360.172 13.9258C361.102 13.4102 362.184 13.1523 363.418 13.1523ZM363.441 15.6953C362.746 15.6953 362.168 15.918 361.707 16.3633C361.254 16.8086 360.992 17.5078 360.922 18.4609H365.938C365.93 17.9297 365.832 17.457 365.645 17.043C365.465 16.6289 365.191 16.3008 364.824 16.0586C364.465 15.8164 364.004 15.6953 363.441 15.6953Z" fill="#004254"/>
<path d="M75.504 51.5V40.3H80.112C81.104 40.3 81.952 40.46 82.656 40.78C83.3707 41.1 83.92 41.5587 84.304 42.156C84.688 42.7533 84.88 43.4627 84.88 44.284C84.88 45.1053 84.688 45.8147 84.304 46.412C83.92 46.9987 83.3707 47.452 82.656 47.772C81.952 48.0813 81.104 48.236 80.112 48.236H76.656L77.584 47.292V51.5H75.504ZM82.832 51.5L80 47.436H82.224L85.072 51.5H82.832ZM77.584 47.516L76.656 46.524H80.016C80.9333 46.524 81.6213 46.3267 82.08 45.932C82.5493 45.5373 82.784 44.988 82.784 44.284C82.784 43.5693 82.5493 43.02 82.08 42.636C81.6213 42.252 80.9333 42.06 80.016 42.06H76.656L77.584 41.036V47.516ZM91.0311 51.612C90.0818 51.612 89.2498 51.4253 88.5351 51.052C87.8311 50.668 87.2818 50.1453 86.8871 49.484C86.5031 48.8227 86.3111 48.0707 86.3111 47.228C86.3111 46.3747 86.4978 45.6227 86.8711 44.972C87.2551 44.3107 87.7778 43.7933 88.4391 43.42C89.1111 43.0467 89.8738 42.86 90.7271 42.86C91.5591 42.86 92.3005 43.0413 92.9511 43.404C93.6018 43.7667 94.1138 44.2787 94.4871 44.94C94.8605 45.6013 95.0471 46.38 95.0471 47.276C95.0471 47.3613 95.0418 47.4573 95.0311 47.564C95.0311 47.6707 95.0258 47.772 95.0151 47.868H87.8951V46.54H93.9591L93.1751 46.956C93.1858 46.4653 93.0845 46.0333 92.8711 45.66C92.6578 45.2867 92.3645 44.9933 91.9911 44.78C91.6285 44.5667 91.2071 44.46 90.7271 44.46C90.2365 44.46 89.8045 44.5667 89.4311 44.78C89.0685 44.9933 88.7805 45.292 88.5671 45.676C88.3645 46.0493 88.2631 46.492 88.2631 47.004V47.324C88.2631 47.836 88.3805 48.2893 88.6151 48.684C88.8498 49.0787 89.1805 49.3827 89.6071 49.596C90.0338 49.8093 90.5245 49.916 91.0791 49.916C91.5591 49.916 91.9911 49.8413 92.3751 49.692C92.7591 49.5427 93.1005 49.308 93.3991 48.988L94.4711 50.22C94.0871 50.668 93.6018 51.0147 93.0151 51.26C92.4391 51.4947 91.7778 51.612 91.0311 51.612ZM101.816 42.86C102.499 42.86 103.107 42.9933 103.64 43.26C104.184 43.5267 104.611 43.9373 104.92 44.492C105.23 45.036 105.384 45.74 105.384 46.604V51.5H103.384V46.86C103.384 46.1027 103.203 45.5373 102.84 45.164C102.488 44.7907 101.992 44.604 101.352 44.604C100.883 44.604 100.467 44.7 100.104 44.892C99.7416 45.084 99.4589 45.372 99.2563 45.756C99.0643 46.1293 98.9683 46.604 98.9683 47.18V51.5H96.9683V42.956H98.8723V45.26L98.5363 44.556C98.8349 44.012 99.2669 43.596 99.8323 43.308C100.408 43.0093 101.07 42.86 101.816 42.86ZM113.185 51.5V49.772L113.073 49.404V46.38C113.073 45.7933 112.897 45.34 112.545 45.02C112.193 44.6893 111.66 44.524 110.945 44.524C110.465 44.524 109.991 44.5987 109.521 44.748C109.063 44.8973 108.673 45.1053 108.353 45.372L107.569 43.916C108.028 43.564 108.572 43.3027 109.201 43.132C109.841 42.9507 110.503 42.86 111.185 42.86C112.423 42.86 113.377 43.1587 114.049 43.756C114.732 44.3427 115.073 45.2547 115.073 46.492V51.5H113.185ZM110.497 51.612C109.857 51.612 109.297 51.5053 108.817 51.292C108.337 51.068 107.964 50.764 107.697 50.38C107.441 49.9853 107.313 49.5427 107.313 49.052C107.313 48.572 107.425 48.14 107.649 47.756C107.884 47.372 108.263 47.068 108.785 46.844C109.308 46.62 110.001 46.508 110.865 46.508H113.345V47.836H111.009C110.327 47.836 109.868 47.948 109.633 48.172C109.399 48.3853 109.281 48.652 109.281 48.972C109.281 49.3347 109.425 49.6227 109.713 49.836C110.001 50.0493 110.401 50.156 110.913 50.156C111.404 50.156 111.841 50.044 112.225 49.82C112.62 49.596 112.903 49.2653 113.073 48.828L113.409 50.028C113.217 50.5293 112.871 50.9187 112.369 51.196C111.879 51.4733 111.255 51.612 110.497 51.612ZM117.64 51.5V39.628H119.64V51.5H117.64ZM130.351 51.66C129.476 51.66 128.639 51.5373 127.839 51.292C127.039 51.036 126.404 50.7107 125.935 50.316L126.655 48.7C127.103 49.052 127.658 49.3453 128.319 49.58C128.98 49.8147 129.658 49.932 130.351 49.932C130.938 49.932 131.412 49.868 131.775 49.74C132.138 49.612 132.404 49.4413 132.575 49.228C132.746 49.004 132.831 48.7533 132.831 48.476C132.831 48.1347 132.708 47.8627 132.463 47.66C132.218 47.4467 131.898 47.2813 131.503 47.164C131.119 47.036 130.687 46.9187 130.207 46.812C129.738 46.7053 129.263 46.5827 128.783 46.444C128.314 46.2947 127.882 46.108 127.487 45.884C127.103 45.6493 126.788 45.34 126.543 44.956C126.298 44.572 126.175 44.0813 126.175 43.484C126.175 42.876 126.335 42.3213 126.655 41.82C126.986 41.308 127.482 40.9027 128.143 40.604C128.815 40.2947 129.663 40.14 130.687 40.14C131.359 40.14 132.026 40.2253 132.687 40.396C133.348 40.5667 133.924 40.812 134.415 41.132L133.759 42.748C133.258 42.4493 132.74 42.2307 132.207 42.092C131.674 41.9427 131.162 41.868 130.671 41.868C130.095 41.868 129.626 41.9373 129.263 42.076C128.911 42.2147 128.65 42.396 128.479 42.62C128.319 42.844 128.239 43.1 128.239 43.388C128.239 43.7293 128.356 44.0067 128.591 44.22C128.836 44.4227 129.151 44.5827 129.535 44.7C129.93 44.8173 130.367 44.9347 130.847 45.052C131.327 45.1587 131.802 45.2813 132.271 45.42C132.751 45.5587 133.183 45.74 133.567 45.964C133.962 46.188 134.276 46.492 134.511 46.876C134.756 47.26 134.879 47.7453 134.879 48.332C134.879 48.9293 134.714 49.484 134.383 49.996C134.063 50.4973 133.567 50.9027 132.895 51.212C132.223 51.5107 131.375 51.66 130.351 51.66ZM140.67 51.612C139.774 51.612 138.974 51.4253 138.27 51.052C137.576 50.668 137.032 50.1453 136.638 49.484C136.243 48.8227 136.046 48.0707 136.046 47.228C136.046 46.3747 136.243 45.6227 136.638 44.972C137.032 44.3107 137.576 43.7933 138.27 43.42C138.974 43.0467 139.774 42.86 140.67 42.86C141.502 42.86 142.232 43.0307 142.862 43.372C143.502 43.7027 143.987 44.1933 144.318 44.844L142.782 45.74C142.526 45.3347 142.211 45.036 141.838 44.844C141.475 44.652 141.08 44.556 140.654 44.556C140.163 44.556 139.72 44.6627 139.326 44.876C138.931 45.0893 138.622 45.3987 138.398 45.804C138.174 46.1987 138.062 46.6733 138.062 47.228C138.062 47.7827 138.174 48.2627 138.398 48.668C138.622 49.0627 138.931 49.3667 139.326 49.58C139.72 49.7933 140.163 49.9 140.654 49.9C141.08 49.9 141.475 49.804 141.838 49.612C142.211 49.42 142.526 49.1213 142.782 48.716L144.318 49.612C143.987 50.252 143.502 50.748 142.862 51.1C142.232 51.4413 141.502 51.612 140.67 51.612ZM145.968 51.5V42.956H147.968V51.5H145.968ZM146.976 41.548C146.603 41.548 146.294 41.4307 146.048 41.196C145.814 40.9613 145.696 40.6787 145.696 40.348C145.696 40.0067 145.814 39.724 146.048 39.5C146.294 39.2653 146.603 39.148 146.976 39.148C147.35 39.148 147.654 39.26 147.888 39.484C148.134 39.6973 148.256 39.9693 148.256 40.3C148.256 40.652 148.139 40.9507 147.904 41.196C147.67 41.4307 147.36 41.548 146.976 41.548ZM154.609 51.612C153.66 51.612 152.828 51.4253 152.113 51.052C151.409 50.668 150.86 50.1453 150.465 49.484C150.081 48.8227 149.889 48.0707 149.889 47.228C149.889 46.3747 150.076 45.6227 150.449 44.972C150.833 44.3107 151.356 43.7933 152.017 43.42C152.689 43.0467 153.452 42.86 154.305 42.86C155.137 42.86 155.879 43.0413 156.529 43.404C157.18 43.7667 157.692 44.2787 158.065 44.94C158.439 45.6013 158.625 46.38 158.625 47.276C158.625 47.3613 158.62 47.4573 158.609 47.564C158.609 47.6707 158.604 47.772 158.593 47.868H151.473V46.54H157.537L156.753 46.956C156.764 46.4653 156.663 46.0333 156.449 45.66C156.236 45.2867 155.943 44.9933 155.569 44.78C155.207 44.5667 154.785 44.46 154.305 44.46C153.815 44.46 153.383 44.5667 153.009 44.78C152.647 44.9933 152.359 45.292 152.145 45.676C151.943 46.0493 151.841 46.492 151.841 47.004V47.324C151.841 47.836 151.959 48.2893 152.193 48.684C152.428 49.0787 152.759 49.3827 153.185 49.596C153.612 49.8093 154.103 49.916 154.657 49.916C155.137 49.916 155.569 49.8413 155.953 49.692C156.337 49.5427 156.679 49.308 156.977 48.988L158.049 50.22C157.665 50.668 157.18 51.0147 156.593 51.26C156.017 51.4947 155.356 51.612 154.609 51.612ZM165.394 42.86C166.077 42.86 166.685 42.9933 167.218 43.26C167.762 43.5267 168.189 43.9373 168.498 44.492C168.808 45.036 168.962 45.74 168.962 46.604V51.5H166.962V46.86C166.962 46.1027 166.781 45.5373 166.418 45.164C166.066 44.7907 165.57 44.604 164.93 44.604C164.461 44.604 164.045 44.7 163.682 44.892C163.32 45.084 163.037 45.372 162.834 45.756C162.642 46.1293 162.546 46.604 162.546 47.18V51.5H160.546V42.956H162.45V45.26L162.114 44.556C162.413 44.012 162.845 43.596 163.41 43.308C163.986 43.0093 164.648 42.86 165.394 42.86ZM175.435 51.612C174.539 51.612 173.739 51.4253 173.035 51.052C172.342 50.668 171.798 50.1453 171.403 49.484C171.008 48.8227 170.811 48.0707 170.811 47.228C170.811 46.3747 171.008 45.6227 171.403 44.972C171.798 44.3107 172.342 43.7933 173.035 43.42C173.739 43.0467 174.539 42.86 175.435 42.86C176.267 42.86 176.998 43.0307 177.627 43.372C178.267 43.7027 178.752 44.1933 179.083 44.844L177.547 45.74C177.291 45.3347 176.976 45.036 176.603 44.844C176.24 44.652 175.846 44.556 175.419 44.556C174.928 44.556 174.486 44.6627 174.091 44.876C173.696 45.0893 173.387 45.3987 173.163 45.804C172.939 46.1987 172.827 46.6733 172.827 47.228C172.827 47.7827 172.939 48.2627 173.163 48.668C173.387 49.0627 173.696 49.3667 174.091 49.58C174.486 49.7933 174.928 49.9 175.419 49.9C175.846 49.9 176.24 49.804 176.603 49.612C176.976 49.42 177.291 49.1213 177.547 48.716L179.083 49.612C178.752 50.252 178.267 50.748 177.627 51.1C176.998 51.4413 176.267 51.612 175.435 51.612ZM184.703 51.612C183.754 51.612 182.922 51.4253 182.207 51.052C181.503 50.668 180.954 50.1453 180.559 49.484C180.175 48.8227 179.983 48.0707 179.983 47.228C179.983 46.3747 180.17 45.6227 180.543 44.972C180.927 44.3107 181.45 43.7933 182.111 43.42C182.783 43.0467 183.546 42.86 184.399 42.86C185.231 42.86 185.972 43.0413 186.623 43.404C187.274 43.7667 187.786 44.2787 188.159 44.94C188.532 45.6013 188.719 46.38 188.719 47.276C188.719 47.3613 188.714 47.4573 188.703 47.564C188.703 47.6707 188.698 47.772 188.687 47.868H181.567V46.54H187.631L186.847 46.956C186.858 46.4653 186.756 46.0333 186.543 45.66C186.33 45.2867 186.036 44.9933 185.663 44.78C185.3 44.5667 184.879 44.46 184.399 44.46C183.908 44.46 183.476 44.5667 183.103 44.78C182.74 44.9933 182.452 45.292 182.239 45.676C182.036 46.0493 181.935 46.492 181.935 47.004V47.324C181.935 47.836 182.052 48.2893 182.287 48.684C182.522 49.0787 182.852 49.3827 183.279 49.596C183.706 49.8093 184.196 49.916 184.751 49.916C185.231 49.916 185.663 49.8413 186.047 49.692C186.431 49.5427 186.772 49.308 187.071 48.988L188.143 50.22C187.759 50.668 187.274 51.0147 186.687 51.26C186.111 51.4947 185.45 51.612 184.703 51.612ZM193.28 51.612C192.565 51.612 191.877 51.5213 191.216 51.34C190.565 51.148 190.048 50.9187 189.664 50.652L190.432 49.132C190.816 49.3773 191.275 49.58 191.808 49.74C192.341 49.9 192.875 49.98 193.408 49.98C194.037 49.98 194.491 49.8947 194.768 49.724C195.056 49.5533 195.2 49.324 195.2 49.036C195.2 48.8013 195.104 48.6253 194.912 48.508C194.72 48.38 194.469 48.284 194.16 48.22C193.851 48.156 193.504 48.0973 193.12 48.044C192.747 47.9907 192.368 47.9213 191.984 47.836C191.611 47.74 191.269 47.6067 190.96 47.436C190.651 47.2547 190.4 47.0147 190.208 46.716C190.016 46.4173 189.92 46.0227 189.92 45.532C189.92 44.988 190.075 44.5187 190.384 44.124C190.693 43.7187 191.125 43.4093 191.68 43.196C192.245 42.972 192.912 42.86 193.68 42.86C194.256 42.86 194.837 42.924 195.424 43.052C196.011 43.18 196.496 43.3613 196.88 43.596L196.112 45.116C195.707 44.8707 195.296 44.7053 194.88 44.62C194.475 44.524 194.069 44.476 193.664 44.476C193.056 44.476 192.603 44.5667 192.304 44.748C192.016 44.9293 191.872 45.1587 191.872 45.436C191.872 45.692 191.968 45.884 192.16 46.012C192.352 46.14 192.603 46.2413 192.912 46.316C193.221 46.3907 193.563 46.4547 193.936 46.508C194.32 46.5507 194.699 46.62 195.072 46.716C195.445 46.812 195.787 46.9453 196.096 47.116C196.416 47.276 196.672 47.5053 196.864 47.804C197.056 48.1027 197.152 48.492 197.152 48.972C197.152 49.5053 196.992 49.9693 196.672 50.364C196.363 50.7587 195.92 51.068 195.344 51.292C194.768 51.5053 194.08 51.612 193.28 51.612ZM205.408 44.956H210.976V46.668H205.408V44.956ZM205.568 49.756H211.888V51.5H203.488V40.3H211.664V42.044H205.568V49.756ZM212.707 51.5L216.467 46.604L216.435 47.676L212.851 42.956H215.075L217.587 46.316H216.739L219.267 42.956H221.427L217.811 47.676L217.827 46.604L221.571 51.5H219.315L216.674 47.932L217.507 48.044L214.914 51.5H212.707ZM227.782 51.612C227.089 51.612 226.454 51.452 225.878 51.132C225.313 50.812 224.86 50.332 224.518 49.692C224.188 49.0413 224.022 48.22 224.022 47.228C224.022 46.2253 224.182 45.404 224.502 44.764C224.833 44.124 225.281 43.6493 225.846 43.34C226.412 43.02 227.057 42.86 227.782 42.86C228.625 42.86 229.366 43.0413 230.006 43.404C230.657 43.7667 231.169 44.2733 231.542 44.924C231.926 45.5747 232.118 46.3427 232.118 47.228C232.118 48.1133 231.926 48.8867 231.542 49.548C231.169 50.1987 230.657 50.7053 230.006 51.068C229.366 51.4307 228.625 51.612 227.782 51.612ZM223.046 54.604V42.956H224.95V44.972L224.886 47.244L225.046 49.516V54.604H223.046ZM227.558 49.9C228.038 49.9 228.465 49.7933 228.838 49.58C229.222 49.3667 229.526 49.0573 229.75 48.652C229.974 48.2467 230.086 47.772 230.086 47.228C230.086 46.6733 229.974 46.1987 229.75 45.804C229.526 45.3987 229.222 45.0893 228.838 44.876C228.465 44.6627 228.038 44.556 227.558 44.556C227.078 44.556 226.646 44.6627 226.262 44.876C225.878 45.0893 225.574 45.3987 225.35 45.804C225.126 46.1987 225.014 46.6733 225.014 47.228C225.014 47.772 225.126 48.2467 225.35 48.652C225.574 49.0573 225.878 49.3667 226.262 49.58C226.646 49.7933 227.078 49.9 227.558 49.9ZM238.031 51.612C237.082 51.612 236.25 51.4253 235.535 51.052C234.831 50.668 234.282 50.1453 233.887 49.484C233.503 48.8227 233.311 48.0707 233.311 47.228C233.311 46.3747 233.498 45.6227 233.871 44.972C234.255 44.3107 234.778 43.7933 235.439 43.42C236.111 43.0467 236.874 42.86 237.727 42.86C238.559 42.86 239.3 43.0413 239.951 43.404C240.602 43.7667 241.114 44.2787 241.487 44.94C241.86 45.6013 242.047 46.38 242.047 47.276C242.047 47.3613 242.042 47.4573 242.031 47.564C242.031 47.6707 242.026 47.772 242.015 47.868H234.895V46.54H240.959L240.175 46.956C240.186 46.4653 240.084 46.0333 239.871 45.66C239.658 45.2867 239.364 44.9933 238.991 44.78C238.628 44.5667 238.207 44.46 237.727 44.46C237.236 44.46 236.804 44.5667 236.431 44.78C236.068 44.9933 235.78 45.292 235.567 45.676C235.364 46.0493 235.263 46.492 235.263 47.004V47.324C235.263 47.836 235.38 48.2893 235.615 48.684C235.85 49.0787 236.18 49.3827 236.607 49.596C237.034 49.8093 237.524 49.916 238.079 49.916C238.559 49.916 238.991 49.8413 239.375 49.692C239.759 49.5427 240.1 49.308 240.399 48.988L241.471 50.22C241.087 50.668 240.602 51.0147 240.015 51.26C239.439 51.4947 238.778 51.612 238.031 51.612ZM243.968 51.5V42.956H245.872V45.308L245.648 44.62C245.904 44.044 246.304 43.6067 246.848 43.308C247.403 43.0093 248.091 42.86 248.912 42.86V44.764C248.827 44.7427 248.747 44.732 248.672 44.732C248.598 44.7213 248.523 44.716 248.448 44.716C247.691 44.716 247.088 44.94 246.64 45.388C246.192 45.8253 245.968 46.4813 245.968 47.356V51.5H243.968ZM254.137 51.612C253.199 51.612 252.473 51.372 251.961 50.892C251.449 50.4013 251.193 49.6813 251.193 48.732V41.068H253.193V48.684C253.193 49.0893 253.295 49.404 253.497 49.628C253.711 49.852 254.004 49.964 254.377 49.964C254.825 49.964 255.199 49.8467 255.497 49.612L256.057 51.036C255.823 51.228 255.535 51.372 255.193 51.468C254.852 51.564 254.5 51.612 254.137 51.612ZM249.785 44.62V43.02H255.481V44.62H249.785Z" fill="#7C7C7C"/>
</svg>
