<svg width="371" height="59" viewBox="0 0 371 59" fill="none" xmlns="http://www.w3.org/2000/svg">
<rect x="2" y="2" width="55" height="55" rx="5" fill="white"/>
<path d="M26.2695 33.7422C26.2695 34.7578 26.0234 35.6406 25.5312 36.3906C25.0391 37.1406 24.3203 37.7188 23.375 38.125C22.4375 38.5312 21.2969 38.7344 19.9531 38.7344C19.3594 38.7344 18.7773 38.6953 18.207 38.6172C17.6445 38.5391 17.1016 38.4258 16.5781 38.2773C16.0625 38.1211 15.5703 37.9297 15.1016 37.7031V34.3281C15.9141 34.6875 16.7578 35.0117 17.6328 35.3008C18.5078 35.5898 19.375 35.7344 20.2344 35.7344C20.8281 35.7344 21.3047 35.6562 21.6641 35.5C22.0312 35.3438 22.2969 35.1289 22.4609 34.8555C22.625 34.582 22.707 34.2695 22.707 33.918C22.707 33.4883 22.5625 33.1211 22.2734 32.8164C21.9844 32.5117 21.5859 32.2266 21.0781 31.9609C20.5781 31.6953 20.0117 31.4102 19.3789 31.1055C18.9805 30.918 18.5469 30.6914 18.0781 30.4258C17.6094 30.1523 17.1641 29.8203 16.7422 29.4297C16.3203 29.0391 15.9727 28.5664 15.6992 28.0117C15.4336 27.4492 15.3008 26.7773 15.3008 25.9961C15.3008 24.9727 15.5352 24.0977 16.0039 23.3711C16.4727 22.6445 17.1406 22.0898 18.0078 21.707C18.8828 21.3164 19.9141 21.1211 21.1016 21.1211C21.9922 21.1211 22.8398 21.2266 23.6445 21.4375C24.457 21.6406 25.3047 21.9375 26.1875 22.3281L25.0156 25.1523C24.2266 24.832 23.5195 24.5859 22.8945 24.4141C22.2695 24.2344 21.6328 24.1445 20.9844 24.1445C20.5312 24.1445 20.1445 24.2188 19.8242 24.3672C19.5039 24.5078 19.2617 24.7109 19.0977 24.9766C18.9336 25.2344 18.8516 25.5352 18.8516 25.8789C18.8516 26.2852 18.9688 26.6289 19.2031 26.9102C19.4453 27.1836 19.8047 27.4492 20.2812 27.707C20.7656 27.9648 21.3672 28.2656 22.0859 28.6094C22.9609 29.0234 23.707 29.457 24.3242 29.9102C24.9492 30.3555 25.4297 30.8828 25.7656 31.4922C26.1016 32.0938 26.2695 32.8438 26.2695 33.7422ZM35.8789 28.8789H42.6758V37.7617C41.7773 38.0586 40.8438 38.2969 39.875 38.4766C38.9062 38.6484 37.8086 38.7344 36.582 38.7344C34.8789 38.7344 33.4336 38.3984 32.2461 37.7266C31.0586 37.0547 30.1562 36.0625 29.5391 34.75C28.9219 33.4375 28.6133 31.8242 28.6133 29.9102C28.6133 28.1133 28.957 26.5586 29.6445 25.2461C30.3398 23.9336 31.3516 22.918 32.6797 22.1992C34.0156 21.4805 35.6445 21.1211 37.5664 21.1211C38.4727 21.1211 39.3672 21.2188 40.25 21.4141C41.1328 21.6094 41.9336 21.8633 42.6523 22.1758L41.4453 25.082C40.9219 24.8164 40.3242 24.5938 39.6523 24.4141C38.9805 24.2344 38.2773 24.1445 37.543 24.1445C36.4883 24.1445 35.5703 24.3867 34.7891 24.8711C34.0156 25.3555 33.4141 26.0352 32.9844 26.9102C32.5625 27.7773 32.3516 28.8008 32.3516 29.9805C32.3516 31.0977 32.5039 32.0898 32.8086 32.957C33.1133 33.8164 33.5938 34.4922 34.25 34.9844C34.9062 35.4688 35.7617 35.7109 36.8164 35.7109C37.332 35.7109 37.7656 35.6875 38.1172 35.6406C38.4766 35.5859 38.8125 35.5312 39.125 35.4766V31.9023H35.8789V28.8789Z" fill="#004254"/>
<path d="M88.3711 15.7695C88.3711 17.6992 88 19.3125 87.2578 20.6094C86.5234 21.8984 85.457 22.8711 84.0586 23.5273C82.6602 24.1758 80.9766 24.5 79.0078 24.5H74.1562V7.36719H79.5352C81.332 7.36719 82.8906 7.6875 84.2109 8.32812C85.5312 8.96094 86.5547 9.90234 87.2812 11.1523C88.0078 12.3945 88.3711 13.9336 88.3711 15.7695ZM84.5977 15.8633C84.5977 14.5977 84.4102 13.5586 84.0352 12.7461C83.668 11.9258 83.1211 11.3203 82.3945 10.9297C81.6758 10.5391 80.7852 10.3438 79.7227 10.3438H77.7891V21.5H79.3477C81.1211 21.5 82.4375 21.0273 83.2969 20.082C84.1641 19.1367 84.5977 17.7305 84.5977 15.8633ZM98.9531 11.1523C99.1328 11.1523 99.3398 11.1641 99.5742 11.1875C99.8164 11.2031 100.012 11.2266 100.16 11.2578L99.8906 14.6094C99.7734 14.5703 99.6055 14.543 99.3867 14.5273C99.1758 14.5039 98.9922 14.4922 98.8359 14.4922C98.375 14.4922 97.9258 14.5508 97.4883 14.668C97.0586 14.7852 96.6719 14.9766 96.3281 15.2422C95.9844 15.5 95.7109 15.8438 95.5078 16.2734C95.3125 16.6953 95.2148 17.2148 95.2148 17.832V24.5H91.6406V11.3984H94.3477L94.875 13.6016H95.0508C95.3086 13.1562 95.6289 12.75 96.0117 12.3828C96.4023 12.0078 96.8438 11.7109 97.3359 11.4922C97.8359 11.2656 98.375 11.1523 98.9531 11.1523ZM102.035 22.8242C102.035 22.0898 102.234 21.5742 102.633 21.2773C103.039 20.9805 103.527 20.832 104.098 20.832C104.652 20.832 105.129 20.9805 105.527 21.2773C105.934 21.5742 106.137 22.0898 106.137 22.8242C106.137 23.5273 105.934 24.0352 105.527 24.3477C105.129 24.6602 104.652 24.8164 104.098 24.8164C103.527 24.8164 103.039 24.6602 102.633 24.3477C102.234 24.0352 102.035 23.5273 102.035 22.8242ZM126.012 19.7422C126.012 20.7578 125.766 21.6406 125.273 22.3906C124.781 23.1406 124.062 23.7188 123.117 24.125C122.18 24.5312 121.039 24.7344 119.695 24.7344C119.102 24.7344 118.52 24.6953 117.949 24.6172C117.387 24.5391 116.844 24.4258 116.32 24.2773C115.805 24.1211 115.312 23.9297 114.844 23.7031V20.3281C115.656 20.6875 116.5 21.0117 117.375 21.3008C118.25 21.5898 119.117 21.7344 119.977 21.7344C120.57 21.7344 121.047 21.6562 121.406 21.5C121.773 21.3438 122.039 21.1289 122.203 20.8555C122.367 20.582 122.449 20.2695 122.449 19.918C122.449 19.4883 122.305 19.1211 122.016 18.8164C121.727 18.5117 121.328 18.2266 120.82 17.9609C120.32 17.6953 119.754 17.4102 119.121 17.1055C118.723 16.918 118.289 16.6914 117.82 16.4258C117.352 16.1523 116.906 15.8203 116.484 15.4297C116.062 15.0391 115.715 14.5664 115.441 14.0117C115.176 13.4492 115.043 12.7773 115.043 11.9961C115.043 10.9727 115.277 10.0977 115.746 9.37109C116.215 8.64453 116.883 8.08984 117.75 7.70703C118.625 7.31641 119.656 7.12109 120.844 7.12109C121.734 7.12109 122.582 7.22656 123.387 7.4375C124.199 7.64062 125.047 7.9375 125.93 8.32812L124.758 11.1523C123.969 10.832 123.262 10.5859 122.637 10.4141C122.012 10.2344 121.375 10.1445 120.727 10.1445C120.273 10.1445 119.887 10.2188 119.566 10.3672C119.246 10.5078 119.004 10.7109 118.84 10.9766C118.676 11.2344 118.594 11.5352 118.594 11.8789C118.594 12.2852 118.711 12.6289 118.945 12.9102C119.188 13.1836 119.547 13.4492 120.023 13.707C120.508 13.9648 121.109 14.2656 121.828 14.6094C122.703 15.0234 123.449 15.457 124.066 15.9102C124.691 16.3555 125.172 16.8828 125.508 17.4922C125.844 18.0938 126.012 18.8438 126.012 19.7422ZM134.203 11.1289C135.961 11.1289 137.309 11.5117 138.246 12.2773C139.184 13.043 139.652 14.207 139.652 15.7695V24.5H137.156L136.465 22.7188H136.371C135.996 23.1875 135.613 23.5703 135.223 23.8672C134.832 24.1641 134.383 24.3828 133.875 24.5234C133.367 24.6641 132.75 24.7344 132.023 24.7344C131.25 24.7344 130.555 24.5859 129.938 24.2891C129.328 23.9922 128.848 23.5391 128.496 22.9297C128.145 22.3125 127.969 21.5312 127.969 20.5859C127.969 19.1953 128.457 18.1719 129.434 17.5156C130.41 16.8516 131.875 16.4844 133.828 16.4141L136.102 16.3438V15.7695C136.102 15.082 135.922 14.5781 135.562 14.2578C135.203 13.9375 134.703 13.7773 134.062 13.7773C133.43 13.7773 132.809 13.8672 132.199 14.0469C131.59 14.2266 130.98 14.4531 130.371 14.7266L129.188 12.3125C129.883 11.9453 130.66 11.6562 131.52 11.4453C132.387 11.2344 133.281 11.1289 134.203 11.1289ZM136.102 18.4297L134.719 18.4766C133.562 18.5078 132.758 18.7148 132.305 19.0977C131.859 19.4805 131.637 19.9844 131.637 20.6094C131.637 21.1562 131.797 21.5469 132.117 21.7812C132.438 22.0078 132.855 22.1211 133.371 22.1211C134.137 22.1211 134.781 21.8945 135.305 21.4414C135.836 20.9883 136.102 20.3438 136.102 19.5078V18.4297ZM148.863 21.8867C149.254 21.8867 149.633 21.8477 150 21.7695C150.375 21.6914 150.746 21.5938 151.113 21.4766V24.1367C150.73 24.3086 150.254 24.4492 149.684 24.5586C149.121 24.6758 148.504 24.7344 147.832 24.7344C147.051 24.7344 146.348 24.6094 145.723 24.3594C145.105 24.1016 144.617 23.6602 144.258 23.0352C143.906 22.4023 143.73 21.5234 143.73 20.3984V14.082H142.02V12.5703L143.988 11.375L145.02 8.60938H147.305V11.3984H150.973V14.082H147.305V20.3984C147.305 20.8984 147.445 21.2734 147.727 21.5234C148.016 21.7656 148.395 21.8867 148.863 21.8867ZM151.898 11.3984H155.812L158.285 18.7695C158.363 19.0039 158.43 19.2422 158.484 19.4844C158.539 19.7266 158.586 19.9766 158.625 20.2344C158.664 20.4922 158.695 20.7617 158.719 21.043H158.789C158.836 20.6211 158.898 20.2266 158.977 19.8594C159.062 19.4922 159.168 19.1289 159.293 18.7695L161.719 11.3984H165.551L160.008 26.1758C159.672 27.082 159.234 27.8359 158.695 28.4375C158.156 29.0469 157.535 29.5039 156.832 29.8086C156.137 30.1133 155.371 30.2656 154.535 30.2656C154.129 30.2656 153.777 30.2422 153.48 30.1953C153.184 30.1562 152.93 30.1133 152.719 30.0664V27.2305C152.883 27.2695 153.09 27.3047 153.34 27.3359C153.59 27.3672 153.852 27.3828 154.125 27.3828C154.625 27.3828 155.055 27.2773 155.414 27.0664C155.773 26.8555 156.074 26.5703 156.316 26.2109C156.559 25.8594 156.75 25.4727 156.891 25.0508L157.102 24.4062L151.898 11.3984ZM172.805 11.1289C174.562 11.1289 175.91 11.5117 176.848 12.2773C177.785 13.043 178.254 14.207 178.254 15.7695V24.5H175.758L175.066 22.7188H174.973C174.598 23.1875 174.215 23.5703 173.824 23.8672C173.434 24.1641 172.984 24.3828 172.477 24.5234C171.969 24.6641 171.352 24.7344 170.625 24.7344C169.852 24.7344 169.156 24.5859 168.539 24.2891C167.93 23.9922 167.449 23.5391 167.098 22.9297C166.746 22.3125 166.57 21.5312 166.57 20.5859C166.57 19.1953 167.059 18.1719 168.035 17.5156C169.012 16.8516 170.477 16.4844 172.43 16.4141L174.703 16.3438V15.7695C174.703 15.082 174.523 14.5781 174.164 14.2578C173.805 13.9375 173.305 13.7773 172.664 13.7773C172.031 13.7773 171.41 13.8672 170.801 14.0469C170.191 14.2266 169.582 14.4531 168.973 14.7266L167.789 12.3125C168.484 11.9453 169.262 11.6562 170.121 11.4453C170.988 11.2344 171.883 11.1289 172.805 11.1289ZM174.703 18.4297L173.32 18.4766C172.164 18.5078 171.359 18.7148 170.906 19.0977C170.461 19.4805 170.238 19.9844 170.238 20.6094C170.238 21.1562 170.398 21.5469 170.719 21.7812C171.039 22.0078 171.457 22.1211 171.973 22.1211C172.738 22.1211 173.383 21.8945 173.906 21.4414C174.438 20.9883 174.703 20.3438 174.703 19.5078V18.4297ZM189.387 11.1523C190.785 11.1523 191.91 11.5352 192.762 12.3008C193.613 13.0586 194.039 14.2773 194.039 15.957V24.5H190.465V16.8477C190.465 15.9102 190.293 15.2031 189.949 14.7266C189.613 14.25 189.082 14.0117 188.355 14.0117C187.262 14.0117 186.516 14.3828 186.117 15.125C185.719 15.8672 185.52 16.9375 185.52 18.3359V24.5H181.945V11.3984H184.676L185.156 13.0742H185.355C185.637 12.6211 185.984 12.2539 186.398 11.9727C186.82 11.6914 187.285 11.4844 187.793 11.3516C188.309 11.2188 188.84 11.1523 189.387 11.1523ZM203.086 11.1289C204.844 11.1289 206.191 11.5117 207.129 12.2773C208.066 13.043 208.535 14.207 208.535 15.7695V24.5H206.039L205.348 22.7188H205.254C204.879 23.1875 204.496 23.5703 204.105 23.8672C203.715 24.1641 203.266 24.3828 202.758 24.5234C202.25 24.6641 201.633 24.7344 200.906 24.7344C200.133 24.7344 199.438 24.5859 198.82 24.2891C198.211 23.9922 197.73 23.5391 197.379 22.9297C197.027 22.3125 196.852 21.5312 196.852 20.5859C196.852 19.1953 197.34 18.1719 198.316 17.5156C199.293 16.8516 200.758 16.4844 202.711 16.4141L204.984 16.3438V15.7695C204.984 15.082 204.805 14.5781 204.445 14.2578C204.086 13.9375 203.586 13.7773 202.945 13.7773C202.312 13.7773 201.691 13.8672 201.082 14.0469C200.473 14.2266 199.863 14.4531 199.254 14.7266L198.07 12.3125C198.766 11.9453 199.543 11.6562 200.402 11.4453C201.27 11.2344 202.164 11.1289 203.086 11.1289ZM204.984 18.4297L203.602 18.4766C202.445 18.5078 201.641 18.7148 201.188 19.0977C200.742 19.4805 200.52 19.9844 200.52 20.6094C200.52 21.1562 200.68 21.5469 201 21.7812C201.32 22.0078 201.738 22.1211 202.254 22.1211C203.02 22.1211 203.664 21.8945 204.188 21.4414C204.719 20.9883 204.984 20.3438 204.984 19.5078V18.4297ZM219.539 11.1523C219.719 11.1523 219.926 11.1641 220.16 11.1875C220.402 11.2031 220.598 11.2266 220.746 11.2578L220.477 14.6094C220.359 14.5703 220.191 14.543 219.973 14.5273C219.762 14.5039 219.578 14.4922 219.422 14.4922C218.961 14.4922 218.512 14.5508 218.074 14.668C217.645 14.7852 217.258 14.9766 216.914 15.2422C216.57 15.5 216.297 15.8438 216.094 16.2734C215.898 16.6953 215.801 17.2148 215.801 17.832V24.5H212.227V11.3984H214.934L215.461 13.6016H215.637C215.895 13.1562 216.215 12.75 216.598 12.3828C216.988 12.0078 217.43 11.7109 217.922 11.4922C218.422 11.2656 218.961 11.1523 219.539 11.1523ZM228.492 11.1289C230.25 11.1289 231.598 11.5117 232.535 12.2773C233.473 13.043 233.941 14.207 233.941 15.7695V24.5H231.445L230.754 22.7188H230.66C230.285 23.1875 229.902 23.5703 229.512 23.8672C229.121 24.1641 228.672 24.3828 228.164 24.5234C227.656 24.6641 227.039 24.7344 226.312 24.7344C225.539 24.7344 224.844 24.5859 224.227 24.2891C223.617 23.9922 223.137 23.5391 222.785 22.9297C222.434 22.3125 222.258 21.5312 222.258 20.5859C222.258 19.1953 222.746 18.1719 223.723 17.5156C224.699 16.8516 226.164 16.4844 228.117 16.4141L230.391 16.3438V15.7695C230.391 15.082 230.211 14.5781 229.852 14.2578C229.492 13.9375 228.992 13.7773 228.352 13.7773C227.719 13.7773 227.098 13.8672 226.488 14.0469C225.879 14.2266 225.27 14.4531 224.66 14.7266L223.477 12.3125C224.172 11.9453 224.949 11.6562 225.809 11.4453C226.676 11.2344 227.57 11.1289 228.492 11.1289ZM230.391 18.4297L229.008 18.4766C227.852 18.5078 227.047 18.7148 226.594 19.0977C226.148 19.4805 225.926 19.9844 225.926 20.6094C225.926 21.1562 226.086 21.5469 226.406 21.7812C226.727 22.0078 227.145 22.1211 227.66 22.1211C228.426 22.1211 229.07 21.8945 229.594 21.4414C230.125 20.9883 230.391 20.3438 230.391 19.5078V18.4297ZM235.758 11.3984H239.672L242.145 18.7695C242.223 19.0039 242.289 19.2422 242.344 19.4844C242.398 19.7266 242.445 19.9766 242.484 20.2344C242.523 20.4922 242.555 20.7617 242.578 21.043H242.648C242.695 20.6211 242.758 20.2266 242.836 19.8594C242.922 19.4922 243.027 19.1289 243.152 18.7695L245.578 11.3984H249.41L243.867 26.1758C243.531 27.082 243.094 27.8359 242.555 28.4375C242.016 29.0469 241.395 29.5039 240.691 29.8086C239.996 30.1133 239.23 30.2656 238.395 30.2656C237.988 30.2656 237.637 30.2422 237.34 30.1953C237.043 30.1562 236.789 30.1133 236.578 30.0664V27.2305C236.742 27.2695 236.949 27.3047 237.199 27.3359C237.449 27.3672 237.711 27.3828 237.984 27.3828C238.484 27.3828 238.914 27.2773 239.273 27.0664C239.633 26.8555 239.934 26.5703 240.176 26.2109C240.418 25.8594 240.609 25.4727 240.75 25.0508L240.961 24.4062L235.758 11.3984ZM256.664 11.1289C258.422 11.1289 259.77 11.5117 260.707 12.2773C261.645 13.043 262.113 14.207 262.113 15.7695V24.5H259.617L258.926 22.7188H258.832C258.457 23.1875 258.074 23.5703 257.684 23.8672C257.293 24.1641 256.844 24.3828 256.336 24.5234C255.828 24.6641 255.211 24.7344 254.484 24.7344C253.711 24.7344 253.016 24.5859 252.398 24.2891C251.789 23.9922 251.309 23.5391 250.957 22.9297C250.605 22.3125 250.43 21.5312 250.43 20.5859C250.43 19.1953 250.918 18.1719 251.895 17.5156C252.871 16.8516 254.336 16.4844 256.289 16.4141L258.562 16.3438V15.7695C258.562 15.082 258.383 14.5781 258.023 14.2578C257.664 13.9375 257.164 13.7773 256.523 13.7773C255.891 13.7773 255.27 13.8672 254.66 14.0469C254.051 14.2266 253.441 14.4531 252.832 14.7266L251.648 12.3125C252.344 11.9453 253.121 11.6562 253.98 11.4453C254.848 11.2344 255.742 11.1289 256.664 11.1289ZM258.562 18.4297L257.18 18.4766C256.023 18.5078 255.219 18.7148 254.766 19.0977C254.32 19.4805 254.098 19.9844 254.098 20.6094C254.098 21.1562 254.258 21.5469 254.578 21.7812C254.898 22.0078 255.316 22.1211 255.832 22.1211C256.598 22.1211 257.242 21.8945 257.766 21.4414C258.297 20.9883 258.562 20.3438 258.562 19.5078V18.4297ZM273.246 11.1523C274.645 11.1523 275.77 11.5352 276.621 12.3008C277.473 13.0586 277.898 14.2773 277.898 15.957V24.5H274.324V16.8477C274.324 15.9102 274.152 15.2031 273.809 14.7266C273.473 14.25 272.941 14.0117 272.215 14.0117C271.121 14.0117 270.375 14.3828 269.977 15.125C269.578 15.8672 269.379 16.9375 269.379 18.3359V24.5H265.805V11.3984H268.535L269.016 13.0742H269.215C269.496 12.6211 269.844 12.2539 270.258 11.9727C270.68 11.6914 271.145 11.4844 271.652 11.3516C272.168 11.2188 272.699 11.1523 273.246 11.1523ZM286.945 11.1289C288.703 11.1289 290.051 11.5117 290.988 12.2773C291.926 13.043 292.395 14.207 292.395 15.7695V24.5H289.898L289.207 22.7188H289.113C288.738 23.1875 288.355 23.5703 287.965 23.8672C287.574 24.1641 287.125 24.3828 286.617 24.5234C286.109 24.6641 285.492 24.7344 284.766 24.7344C283.992 24.7344 283.297 24.5859 282.68 24.2891C282.07 23.9922 281.59 23.5391 281.238 22.9297C280.887 22.3125 280.711 21.5312 280.711 20.5859C280.711 19.1953 281.199 18.1719 282.176 17.5156C283.152 16.8516 284.617 16.4844 286.57 16.4141L288.844 16.3438V15.7695C288.844 15.082 288.664 14.5781 288.305 14.2578C287.945 13.9375 287.445 13.7773 286.805 13.7773C286.172 13.7773 285.551 13.8672 284.941 14.0469C284.332 14.2266 283.723 14.4531 283.113 14.7266L281.93 12.3125C282.625 11.9453 283.402 11.6562 284.262 11.4453C285.129 11.2344 286.023 11.1289 286.945 11.1289ZM288.844 18.4297L287.461 18.4766C286.305 18.5078 285.5 18.7148 285.047 19.0977C284.602 19.4805 284.379 19.9844 284.379 20.6094C284.379 21.1562 284.539 21.5469 284.859 21.7812C285.18 22.0078 285.598 22.1211 286.113 22.1211C286.879 22.1211 287.523 21.8945 288.047 21.4414C288.578 20.9883 288.844 20.3438 288.844 19.5078V18.4297ZM309.105 14.8789H315.902V23.7617C315.004 24.0586 314.07 24.2969 313.102 24.4766C312.133 24.6484 311.035 24.7344 309.809 24.7344C308.105 24.7344 306.66 24.3984 305.473 23.7266C304.285 23.0547 303.383 22.0625 302.766 20.75C302.148 19.4375 301.84 17.8242 301.84 15.9102C301.84 14.1133 302.184 12.5586 302.871 11.2461C303.566 9.93359 304.578 8.91797 305.906 8.19922C307.242 7.48047 308.871 7.12109 310.793 7.12109C311.699 7.12109 312.594 7.21875 313.477 7.41406C314.359 7.60938 315.16 7.86328 315.879 8.17578L314.672 11.082C314.148 10.8164 313.551 10.5938 312.879 10.4141C312.207 10.2344 311.504 10.1445 310.77 10.1445C309.715 10.1445 308.797 10.3867 308.016 10.8711C307.242 11.3555 306.641 12.0352 306.211 12.9102C305.789 13.7773 305.578 14.8008 305.578 15.9805C305.578 17.0977 305.73 18.0898 306.035 18.957C306.34 19.8164 306.82 20.4922 307.477 20.9844C308.133 21.4688 308.988 21.7109 310.043 21.7109C310.559 21.7109 310.992 21.6875 311.344 21.6406C311.703 21.5859 312.039 21.5312 312.352 21.4766V17.9023H309.105V14.8789ZM325.078 11.1289C326.836 11.1289 328.184 11.5117 329.121 12.2773C330.059 13.043 330.527 14.207 330.527 15.7695V24.5H328.031L327.34 22.7188H327.246C326.871 23.1875 326.488 23.5703 326.098 23.8672C325.707 24.1641 325.258 24.3828 324.75 24.5234C324.242 24.6641 323.625 24.7344 322.898 24.7344C322.125 24.7344 321.43 24.5859 320.812 24.2891C320.203 23.9922 319.723 23.5391 319.371 22.9297C319.02 22.3125 318.844 21.5312 318.844 20.5859C318.844 19.1953 319.332 18.1719 320.309 17.5156C321.285 16.8516 322.75 16.4844 324.703 16.4141L326.977 16.3438V15.7695C326.977 15.082 326.797 14.5781 326.438 14.2578C326.078 13.9375 325.578 13.7773 324.938 13.7773C324.305 13.7773 323.684 13.8672 323.074 14.0469C322.465 14.2266 321.855 14.4531 321.246 14.7266L320.062 12.3125C320.758 11.9453 321.535 11.6562 322.395 11.4453C323.262 11.2344 324.156 11.1289 325.078 11.1289ZM326.977 18.4297L325.594 18.4766C324.438 18.5078 323.633 18.7148 323.18 19.0977C322.734 19.4805 322.512 19.9844 322.512 20.6094C322.512 21.1562 322.672 21.5469 322.992 21.7812C323.312 22.0078 323.73 22.1211 324.246 22.1211C325.012 22.1211 325.656 21.8945 326.18 21.4414C326.711 20.9883 326.977 20.3438 326.977 19.5078V18.4297ZM341.531 11.1523C341.711 11.1523 341.918 11.1641 342.152 11.1875C342.395 11.2031 342.59 11.2266 342.738 11.2578L342.469 14.6094C342.352 14.5703 342.184 14.543 341.965 14.5273C341.754 14.5039 341.57 14.4922 341.414 14.4922C340.953 14.4922 340.504 14.5508 340.066 14.668C339.637 14.7852 339.25 14.9766 338.906 15.2422C338.562 15.5 338.289 15.8438 338.086 16.2734C337.891 16.6953 337.793 17.2148 337.793 17.832V24.5H334.219V11.3984H336.926L337.453 13.6016H337.629C337.887 13.1562 338.207 12.75 338.59 12.3828C338.98 12.0078 339.422 11.7109 339.914 11.4922C340.414 11.2656 340.953 11.1523 341.531 11.1523ZM352.43 11.1523C352.609 11.1523 352.816 11.1641 353.051 11.1875C353.293 11.2031 353.488 11.2266 353.637 11.2578L353.367 14.6094C353.25 14.5703 353.082 14.543 352.863 14.5273C352.652 14.5039 352.469 14.4922 352.312 14.4922C351.852 14.4922 351.402 14.5508 350.965 14.668C350.535 14.7852 350.148 14.9766 349.805 15.2422C349.461 15.5 349.188 15.8438 348.984 16.2734C348.789 16.6953 348.691 17.2148 348.691 17.832V24.5H345.117V11.3984H347.824L348.352 13.6016H348.527C348.785 13.1562 349.105 12.75 349.488 12.3828C349.879 12.0078 350.32 11.7109 350.812 11.4922C351.312 11.2656 351.852 11.1523 352.43 11.1523ZM361.418 11.1523C362.629 11.1523 363.672 11.3867 364.547 11.8555C365.422 12.3164 366.098 12.9883 366.574 13.8711C367.051 14.7539 367.289 15.832 367.289 17.1055V18.8398H358.84C358.879 19.8477 359.18 20.6406 359.742 21.2188C360.312 21.7891 361.102 22.0742 362.109 22.0742C362.945 22.0742 363.711 21.9883 364.406 21.8164C365.102 21.6445 365.816 21.3867 366.551 21.043V23.8086C365.902 24.1289 365.223 24.3633 364.512 24.5117C363.809 24.6602 362.953 24.7344 361.945 24.7344C360.633 24.7344 359.469 24.4922 358.453 24.0078C357.445 23.5234 356.652 22.7852 356.074 21.793C355.504 20.8008 355.219 19.5508 355.219 18.043C355.219 16.5117 355.477 15.2383 355.992 14.2227C356.516 13.1992 357.242 12.4336 358.172 11.9258C359.102 11.4102 360.184 11.1523 361.418 11.1523ZM361.441 13.6953C360.746 13.6953 360.168 13.918 359.707 14.3633C359.254 14.8086 358.992 15.5078 358.922 16.4609H363.938C363.93 15.9297 363.832 15.457 363.645 15.043C363.465 14.6289 363.191 14.3008 362.824 14.0586C362.465 13.8164 362.004 13.6953 361.441 13.6953Z" fill="white"/>
<path d="M73.504 49.5V38.3H78.112C79.104 38.3 79.952 38.46 80.656 38.78C81.3707 39.1 81.92 39.5587 82.304 40.156C82.688 40.7533 82.88 41.4627 82.88 42.284C82.88 43.1053 82.688 43.8147 82.304 44.412C81.92 44.9987 81.3707 45.452 80.656 45.772C79.952 46.0813 79.104 46.236 78.112 46.236H74.656L75.584 45.292V49.5H73.504ZM80.832 49.5L78 45.436H80.224L83.072 49.5H80.832ZM75.584 45.516L74.656 44.524H78.016C78.9333 44.524 79.6213 44.3267 80.08 43.932C80.5493 43.5373 80.784 42.988 80.784 42.284C80.784 41.5693 80.5493 41.02 80.08 40.636C79.6213 40.252 78.9333 40.06 78.016 40.06H74.656L75.584 39.036V45.516ZM89.0311 49.612C88.0818 49.612 87.2498 49.4253 86.5351 49.052C85.8311 48.668 85.2818 48.1453 84.8871 47.484C84.5031 46.8227 84.3111 46.0707 84.3111 45.228C84.3111 44.3747 84.4978 43.6227 84.8711 42.972C85.2551 42.3107 85.7778 41.7933 86.4391 41.42C87.1111 41.0467 87.8738 40.86 88.7271 40.86C89.5591 40.86 90.3005 41.0413 90.9511 41.404C91.6018 41.7667 92.1138 42.2787 92.4871 42.94C92.8605 43.6013 93.0471 44.38 93.0471 45.276C93.0471 45.3613 93.0418 45.4573 93.0311 45.564C93.0311 45.6707 93.0258 45.772 93.0151 45.868H85.8951V44.54H91.9591L91.1751 44.956C91.1858 44.4653 91.0845 44.0333 90.8711 43.66C90.6578 43.2867 90.3645 42.9933 89.9911 42.78C89.6285 42.5667 89.2071 42.46 88.7271 42.46C88.2365 42.46 87.8045 42.5667 87.4311 42.78C87.0685 42.9933 86.7805 43.292 86.5671 43.676C86.3645 44.0493 86.2631 44.492 86.2631 45.004V45.324C86.2631 45.836 86.3805 46.2893 86.6151 46.684C86.8498 47.0787 87.1805 47.3827 87.6071 47.596C88.0338 47.8093 88.5245 47.916 89.0791 47.916C89.5591 47.916 89.9911 47.8413 90.3751 47.692C90.7591 47.5427 91.1005 47.308 91.3991 46.988L92.4711 48.22C92.0871 48.668 91.6018 49.0147 91.0151 49.26C90.4391 49.4947 89.7778 49.612 89.0311 49.612ZM99.8163 40.86C100.499 40.86 101.107 40.9933 101.64 41.26C102.184 41.5267 102.611 41.9373 102.92 42.492C103.23 43.036 103.384 43.74 103.384 44.604V49.5H101.384V44.86C101.384 44.1027 101.203 43.5373 100.84 43.164C100.488 42.7907 99.9923 42.604 99.3523 42.604C98.8829 42.604 98.4669 42.7 98.1043 42.892C97.7416 43.084 97.4589 43.372 97.2563 43.756C97.0643 44.1293 96.9683 44.604 96.9683 45.18V49.5H94.9683V40.956H96.8723V43.26L96.5363 42.556C96.8349 42.012 97.2669 41.596 97.8323 41.308C98.4083 41.0093 99.0696 40.86 99.8163 40.86ZM111.185 49.5V47.772L111.073 47.404V44.38C111.073 43.7933 110.897 43.34 110.545 43.02C110.193 42.6893 109.66 42.524 108.945 42.524C108.465 42.524 107.991 42.5987 107.521 42.748C107.063 42.8973 106.673 43.1053 106.353 43.372L105.569 41.916C106.028 41.564 106.572 41.3027 107.201 41.132C107.841 40.9507 108.503 40.86 109.185 40.86C110.423 40.86 111.377 41.1587 112.049 41.756C112.732 42.3427 113.073 43.2547 113.073 44.492V49.5H111.185ZM108.497 49.612C107.857 49.612 107.297 49.5053 106.817 49.292C106.337 49.068 105.964 48.764 105.697 48.38C105.441 47.9853 105.313 47.5427 105.313 47.052C105.313 46.572 105.425 46.14 105.649 45.756C105.884 45.372 106.263 45.068 106.785 44.844C107.308 44.62 108.001 44.508 108.865 44.508H111.345V45.836H109.009C108.327 45.836 107.868 45.948 107.633 46.172C107.399 46.3853 107.281 46.652 107.281 46.972C107.281 47.3347 107.425 47.6227 107.713 47.836C108.001 48.0493 108.401 48.156 108.913 48.156C109.404 48.156 109.841 48.044 110.225 47.82C110.62 47.596 110.903 47.2653 111.073 46.828L111.409 48.028C111.217 48.5293 110.871 48.9187 110.369 49.196C109.879 49.4733 109.255 49.612 108.497 49.612ZM115.64 49.5V37.628H117.64V49.5H115.64ZM128.351 49.66C127.476 49.66 126.639 49.5373 125.839 49.292C125.039 49.036 124.404 48.7107 123.935 48.316L124.655 46.7C125.103 47.052 125.658 47.3453 126.319 47.58C126.98 47.8147 127.658 47.932 128.351 47.932C128.938 47.932 129.412 47.868 129.775 47.74C130.138 47.612 130.404 47.4413 130.575 47.228C130.746 47.004 130.831 46.7533 130.831 46.476C130.831 46.1347 130.708 45.8627 130.463 45.66C130.218 45.4467 129.898 45.2813 129.503 45.164C129.119 45.036 128.687 44.9187 128.207 44.812C127.738 44.7053 127.263 44.5827 126.783 44.444C126.314 44.2947 125.882 44.108 125.487 43.884C125.103 43.6493 124.788 43.34 124.543 42.956C124.298 42.572 124.175 42.0813 124.175 41.484C124.175 40.876 124.335 40.3213 124.655 39.82C124.986 39.308 125.482 38.9027 126.143 38.604C126.815 38.2947 127.663 38.14 128.687 38.14C129.359 38.14 130.026 38.2253 130.687 38.396C131.348 38.5667 131.924 38.812 132.415 39.132L131.759 40.748C131.258 40.4493 130.74 40.2307 130.207 40.092C129.674 39.9427 129.162 39.868 128.671 39.868C128.095 39.868 127.626 39.9373 127.263 40.076C126.911 40.2147 126.65 40.396 126.479 40.62C126.319 40.844 126.239 41.1 126.239 41.388C126.239 41.7293 126.356 42.0067 126.591 42.22C126.836 42.4227 127.151 42.5827 127.535 42.7C127.93 42.8173 128.367 42.9347 128.847 43.052C129.327 43.1587 129.802 43.2813 130.271 43.42C130.751 43.5587 131.183 43.74 131.567 43.964C131.962 44.188 132.276 44.492 132.511 44.876C132.756 45.26 132.879 45.7453 132.879 46.332C132.879 46.9293 132.714 47.484 132.383 47.996C132.063 48.4973 131.567 48.9027 130.895 49.212C130.223 49.5107 129.375 49.66 128.351 49.66ZM138.67 49.612C137.774 49.612 136.974 49.4253 136.27 49.052C135.576 48.668 135.032 48.1453 134.638 47.484C134.243 46.8227 134.046 46.0707 134.046 45.228C134.046 44.3747 134.243 43.6227 134.638 42.972C135.032 42.3107 135.576 41.7933 136.27 41.42C136.974 41.0467 137.774 40.86 138.67 40.86C139.502 40.86 140.232 41.0307 140.862 41.372C141.502 41.7027 141.987 42.1933 142.318 42.844L140.782 43.74C140.526 43.3347 140.211 43.036 139.838 42.844C139.475 42.652 139.08 42.556 138.654 42.556C138.163 42.556 137.72 42.6627 137.326 42.876C136.931 43.0893 136.622 43.3987 136.398 43.804C136.174 44.1987 136.062 44.6733 136.062 45.228C136.062 45.7827 136.174 46.2627 136.398 46.668C136.622 47.0627 136.931 47.3667 137.326 47.58C137.72 47.7933 138.163 47.9 138.654 47.9C139.08 47.9 139.475 47.804 139.838 47.612C140.211 47.42 140.526 47.1213 140.782 46.716L142.318 47.612C141.987 48.252 141.502 48.748 140.862 49.1C140.232 49.4413 139.502 49.612 138.67 49.612ZM143.968 49.5V40.956H145.968V49.5H143.968ZM144.976 39.548C144.603 39.548 144.294 39.4307 144.048 39.196C143.814 38.9613 143.696 38.6787 143.696 38.348C143.696 38.0067 143.814 37.724 144.048 37.5C144.294 37.2653 144.603 37.148 144.976 37.148C145.35 37.148 145.654 37.26 145.888 37.484C146.134 37.6973 146.256 37.9693 146.256 38.3C146.256 38.652 146.139 38.9507 145.904 39.196C145.67 39.4307 145.36 39.548 144.976 39.548ZM152.609 49.612C151.66 49.612 150.828 49.4253 150.113 49.052C149.409 48.668 148.86 48.1453 148.465 47.484C148.081 46.8227 147.889 46.0707 147.889 45.228C147.889 44.3747 148.076 43.6227 148.449 42.972C148.833 42.3107 149.356 41.7933 150.017 41.42C150.689 41.0467 151.452 40.86 152.305 40.86C153.137 40.86 153.879 41.0413 154.529 41.404C155.18 41.7667 155.692 42.2787 156.065 42.94C156.439 43.6013 156.625 44.38 156.625 45.276C156.625 45.3613 156.62 45.4573 156.609 45.564C156.609 45.6707 156.604 45.772 156.593 45.868H149.473V44.54H155.537L154.753 44.956C154.764 44.4653 154.663 44.0333 154.449 43.66C154.236 43.2867 153.943 42.9933 153.569 42.78C153.207 42.5667 152.785 42.46 152.305 42.46C151.815 42.46 151.383 42.5667 151.009 42.78C150.647 42.9933 150.359 43.292 150.145 43.676C149.943 44.0493 149.841 44.492 149.841 45.004V45.324C149.841 45.836 149.959 46.2893 150.193 46.684C150.428 47.0787 150.759 47.3827 151.185 47.596C151.612 47.8093 152.103 47.916 152.657 47.916C153.137 47.916 153.569 47.8413 153.953 47.692C154.337 47.5427 154.679 47.308 154.977 46.988L156.049 48.22C155.665 48.668 155.18 49.0147 154.593 49.26C154.017 49.4947 153.356 49.612 152.609 49.612ZM163.394 40.86C164.077 40.86 164.685 40.9933 165.218 41.26C165.762 41.5267 166.189 41.9373 166.498 42.492C166.808 43.036 166.962 43.74 166.962 44.604V49.5H164.962V44.86C164.962 44.1027 164.781 43.5373 164.418 43.164C164.066 42.7907 163.57 42.604 162.93 42.604C162.461 42.604 162.045 42.7 161.682 42.892C161.32 43.084 161.037 43.372 160.834 43.756C160.642 44.1293 160.546 44.604 160.546 45.18V49.5H158.546V40.956H160.45V43.26L160.114 42.556C160.413 42.012 160.845 41.596 161.41 41.308C161.986 41.0093 162.648 40.86 163.394 40.86ZM173.435 49.612C172.539 49.612 171.739 49.4253 171.035 49.052C170.342 48.668 169.798 48.1453 169.403 47.484C169.008 46.8227 168.811 46.0707 168.811 45.228C168.811 44.3747 169.008 43.6227 169.403 42.972C169.798 42.3107 170.342 41.7933 171.035 41.42C171.739 41.0467 172.539 40.86 173.435 40.86C174.267 40.86 174.998 41.0307 175.627 41.372C176.267 41.7027 176.752 42.1933 177.083 42.844L175.547 43.74C175.291 43.3347 174.976 43.036 174.603 42.844C174.24 42.652 173.846 42.556 173.419 42.556C172.928 42.556 172.486 42.6627 172.091 42.876C171.696 43.0893 171.387 43.3987 171.163 43.804C170.939 44.1987 170.827 44.6733 170.827 45.228C170.827 45.7827 170.939 46.2627 171.163 46.668C171.387 47.0627 171.696 47.3667 172.091 47.58C172.486 47.7933 172.928 47.9 173.419 47.9C173.846 47.9 174.24 47.804 174.603 47.612C174.976 47.42 175.291 47.1213 175.547 46.716L177.083 47.612C176.752 48.252 176.267 48.748 175.627 49.1C174.998 49.4413 174.267 49.612 173.435 49.612ZM182.703 49.612C181.754 49.612 180.922 49.4253 180.207 49.052C179.503 48.668 178.954 48.1453 178.559 47.484C178.175 46.8227 177.983 46.0707 177.983 45.228C177.983 44.3747 178.17 43.6227 178.543 42.972C178.927 42.3107 179.45 41.7933 180.111 41.42C180.783 41.0467 181.546 40.86 182.399 40.86C183.231 40.86 183.972 41.0413 184.623 41.404C185.274 41.7667 185.786 42.2787 186.159 42.94C186.532 43.6013 186.719 44.38 186.719 45.276C186.719 45.3613 186.714 45.4573 186.703 45.564C186.703 45.6707 186.698 45.772 186.687 45.868H179.567V44.54H185.631L184.847 44.956C184.858 44.4653 184.756 44.0333 184.543 43.66C184.33 43.2867 184.036 42.9933 183.663 42.78C183.3 42.5667 182.879 42.46 182.399 42.46C181.908 42.46 181.476 42.5667 181.103 42.78C180.74 42.9933 180.452 43.292 180.239 43.676C180.036 44.0493 179.935 44.492 179.935 45.004V45.324C179.935 45.836 180.052 46.2893 180.287 46.684C180.522 47.0787 180.852 47.3827 181.279 47.596C181.706 47.8093 182.196 47.916 182.751 47.916C183.231 47.916 183.663 47.8413 184.047 47.692C184.431 47.5427 184.772 47.308 185.071 46.988L186.143 48.22C185.759 48.668 185.274 49.0147 184.687 49.26C184.111 49.4947 183.45 49.612 182.703 49.612ZM191.28 49.612C190.565 49.612 189.877 49.5213 189.216 49.34C188.565 49.148 188.048 48.9187 187.664 48.652L188.432 47.132C188.816 47.3773 189.275 47.58 189.808 47.74C190.341 47.9 190.875 47.98 191.408 47.98C192.037 47.98 192.491 47.8947 192.768 47.724C193.056 47.5533 193.2 47.324 193.2 47.036C193.2 46.8013 193.104 46.6253 192.912 46.508C192.72 46.38 192.469 46.284 192.16 46.22C191.851 46.156 191.504 46.0973 191.12 46.044C190.747 45.9907 190.368 45.9213 189.984 45.836C189.611 45.74 189.269 45.6067 188.96 45.436C188.651 45.2547 188.4 45.0147 188.208 44.716C188.016 44.4173 187.92 44.0227 187.92 43.532C187.92 42.988 188.075 42.5187 188.384 42.124C188.693 41.7187 189.125 41.4093 189.68 41.196C190.245 40.972 190.912 40.86 191.68 40.86C192.256 40.86 192.837 40.924 193.424 41.052C194.011 41.18 194.496 41.3613 194.88 41.596L194.112 43.116C193.707 42.8707 193.296 42.7053 192.88 42.62C192.475 42.524 192.069 42.476 191.664 42.476C191.056 42.476 190.603 42.5667 190.304 42.748C190.016 42.9293 189.872 43.1587 189.872 43.436C189.872 43.692 189.968 43.884 190.16 44.012C190.352 44.14 190.603 44.2413 190.912 44.316C191.221 44.3907 191.563 44.4547 191.936 44.508C192.32 44.5507 192.699 44.62 193.072 44.716C193.445 44.812 193.787 44.9453 194.096 45.116C194.416 45.276 194.672 45.5053 194.864 45.804C195.056 46.1027 195.152 46.492 195.152 46.972C195.152 47.5053 194.992 47.9693 194.672 48.364C194.363 48.7587 193.92 49.068 193.344 49.292C192.768 49.5053 192.08 49.612 191.28 49.612ZM203.408 42.956H208.976V44.668H203.408V42.956ZM203.568 47.756H209.888V49.5H201.488V38.3H209.664V40.044H203.568V47.756ZM210.707 49.5L214.467 44.604L214.435 45.676L210.851 40.956H213.075L215.587 44.316H214.739L217.267 40.956H219.427L215.811 45.676L215.827 44.604L219.571 49.5H217.315L214.674 45.932L215.507 46.044L212.914 49.5H210.707ZM225.782 49.612C225.089 49.612 224.454 49.452 223.878 49.132C223.313 48.812 222.86 48.332 222.518 47.692C222.188 47.0413 222.022 46.22 222.022 45.228C222.022 44.2253 222.182 43.404 222.502 42.764C222.833 42.124 223.281 41.6493 223.846 41.34C224.412 41.02 225.057 40.86 225.782 40.86C226.625 40.86 227.366 41.0413 228.006 41.404C228.657 41.7667 229.169 42.2733 229.542 42.924C229.926 43.5747 230.118 44.3427 230.118 45.228C230.118 46.1133 229.926 46.8867 229.542 47.548C229.169 48.1987 228.657 48.7053 228.006 49.068C227.366 49.4307 226.625 49.612 225.782 49.612ZM221.046 52.604V40.956H222.95V42.972L222.886 45.244L223.046 47.516V52.604H221.046ZM225.558 47.9C226.038 47.9 226.465 47.7933 226.838 47.58C227.222 47.3667 227.526 47.0573 227.75 46.652C227.974 46.2467 228.086 45.772 228.086 45.228C228.086 44.6733 227.974 44.1987 227.75 43.804C227.526 43.3987 227.222 43.0893 226.838 42.876C226.465 42.6627 226.038 42.556 225.558 42.556C225.078 42.556 224.646 42.6627 224.262 42.876C223.878 43.0893 223.574 43.3987 223.35 43.804C223.126 44.1987 223.014 44.6733 223.014 45.228C223.014 45.772 223.126 46.2467 223.35 46.652C223.574 47.0573 223.878 47.3667 224.262 47.58C224.646 47.7933 225.078 47.9 225.558 47.9ZM236.031 49.612C235.082 49.612 234.25 49.4253 233.535 49.052C232.831 48.668 232.282 48.1453 231.887 47.484C231.503 46.8227 231.311 46.0707 231.311 45.228C231.311 44.3747 231.498 43.6227 231.871 42.972C232.255 42.3107 232.778 41.7933 233.439 41.42C234.111 41.0467 234.874 40.86 235.727 40.86C236.559 40.86 237.3 41.0413 237.951 41.404C238.602 41.7667 239.114 42.2787 239.487 42.94C239.86 43.6013 240.047 44.38 240.047 45.276C240.047 45.3613 240.042 45.4573 240.031 45.564C240.031 45.6707 240.026 45.772 240.015 45.868H232.895V44.54H238.959L238.175 44.956C238.186 44.4653 238.084 44.0333 237.871 43.66C237.658 43.2867 237.364 42.9933 236.991 42.78C236.628 42.5667 236.207 42.46 235.727 42.46C235.236 42.46 234.804 42.5667 234.431 42.78C234.068 42.9933 233.78 43.292 233.567 43.676C233.364 44.0493 233.263 44.492 233.263 45.004V45.324C233.263 45.836 233.38 46.2893 233.615 46.684C233.85 47.0787 234.18 47.3827 234.607 47.596C235.034 47.8093 235.524 47.916 236.079 47.916C236.559 47.916 236.991 47.8413 237.375 47.692C237.759 47.5427 238.1 47.308 238.399 46.988L239.471 48.22C239.087 48.668 238.602 49.0147 238.015 49.26C237.439 49.4947 236.778 49.612 236.031 49.612ZM241.968 49.5V40.956H243.872V43.308L243.648 42.62C243.904 42.044 244.304 41.6067 244.848 41.308C245.403 41.0093 246.091 40.86 246.912 40.86V42.764C246.827 42.7427 246.747 42.732 246.672 42.732C246.598 42.7213 246.523 42.716 246.448 42.716C245.691 42.716 245.088 42.94 244.64 43.388C244.192 43.8253 243.968 44.4813 243.968 45.356V49.5H241.968ZM252.137 49.612C251.199 49.612 250.473 49.372 249.961 48.892C249.449 48.4013 249.193 47.6813 249.193 46.732V39.068H251.193V46.684C251.193 47.0893 251.295 47.404 251.497 47.628C251.711 47.852 252.004 47.964 252.377 47.964C252.825 47.964 253.199 47.8467 253.497 47.612L254.057 49.036C253.823 49.228 253.535 49.372 253.193 49.468C252.852 49.564 252.5 49.612 252.137 49.612ZM247.785 42.62V41.02H253.481V42.62H247.785Z" fill="white"/>
</svg>
