<svg width="36" height="36" viewBox="0 0 36 36" fill="none" xmlns="http://www.w3.org/2000/svg">
<path d="M18.1322 2H17.9975C9.25013 2 2.07369 9.18499 2.00055 17.8697C1.96564 22.1114 3.59642 26.1732 6.59367 29.1957C9.59092 32.2198 13.5939 34 17.8678 34H18.0025C26.7499 34 33.9263 26.8134 33.9995 18.1303C34.0709 9.37637 26.9527 2.50815 18.1322 2ZM18.0025 32.9854H17.8762C13.8748 32.9524 10.1279 31.3751 7.32179 28.5457C4.51737 25.7146 2.98966 21.849 3.02291 17.8796C3.09106 9.75088 9.80703 3.01794 17.9959 3.01794H18.1222C26.3792 3.52609 33.0419 9.93071 32.9738 18.1254C32.9073 26.2508 26.1897 32.9854 18.0025 32.9854Z" fill="#004254"/>
<path d="M18.5128 17.9161L18.6076 6.60822C18.6109 6.32775 18.3832 6.06543 18.1006 6.06543H18.0972C17.8163 6.06543 17.5886 6.32115 17.5852 6.60162L17.4888 18.1042C17.4872 18.2378 17.5404 18.3764 17.6351 18.4721L23.9471 24.8437C24.0469 24.9444 24.1799 24.9972 24.3112 24.9972C24.4408 24.9972 24.5705 24.9493 24.6703 24.852C24.8714 24.6557 24.8747 24.3339 24.6769 24.1343L18.5128 17.9161Z" fill="#004254"/>
</svg>
