<svg width="36" height="36" viewBox="0 0 36 36" fill="none" xmlns="http://www.w3.org/2000/svg">
<path fill-rule="evenodd" clip-rule="evenodd" d="M2.93703 6.503C2.95846 6.47871 2.98131 6.45586 3.00417 6.433C3.64702 5.78872 4.51845 5.42871 5.42845 5.42871H30.5713C31.4813 5.42871 32.3527 5.78871 32.9956 6.433C33.0256 6.46157 33.0542 6.49157 33.0813 6.52014L18.7512 18.1517C18.3312 18.4917 17.7311 18.4917 17.3112 18.1517L2.93703 6.503ZM33.9971 8.72157C33.9986 8.76728 34 8.81157 34 8.85728V27.143C34 28.0516 33.6386 28.9244 32.9957 29.5673C32.3529 30.2101 31.4814 30.5716 30.5714 30.5716H5.42857C4.51856 30.5716 3.64714 30.2101 3.00429 29.5673C2.36144 28.9244 2 28.0516 2 27.143V8.85728C2 8.80157 2.00143 8.74443 2.00429 8.68871L15.8729 19.9271C17.1315 20.9471 18.9343 20.9471 20.1916 19.9257L33.9971 8.72157Z" stroke="#004254"/>
</svg>
