<svg width="36" height="36" viewBox="0 0 36 36" fill="none" xmlns="http://www.w3.org/2000/svg">
<path d="M5.33105 2.50488H5.34082L9.88672 2.69336C10.7942 2.73418 11.5528 3.40034 11.7188 4.27051L11.7441 4.44727L12.29 10.1602C12.3297 10.5908 12.1809 11.004 11.8809 11.3105L9.10547 14.0859L9.26367 14.4072C9.68734 15.2674 11.4156 18.5452 14.4375 21.5674C17.4592 24.5894 20.7304 26.318 21.5996 26.7422L21.9199 26.8984L22.1729 26.6465L24.6953 24.124C25.0018 23.8177 25.413 23.6701 25.8408 23.7148H25.8447L31.5576 24.2617C32.4542 24.3469 33.173 25.0548 33.2949 25.9346L33.3115 26.1133L33.4932 30.6631L33.4941 30.6709V30.6777C33.598 32.1887 32.2355 33.5678 30.7168 33.5029L30.707 33.502H30.6973C15.7161 33.4306 2.56436 20.3349 2.50293 5.30859V5.28711L2.5 5.14453C2.51784 3.68395 3.86859 2.4148 5.33105 2.50488Z" stroke="#004254"/>
</svg>
