<svg width="36" height="36" viewBox="0 0 36 36" fill="none" xmlns="http://www.w3.org/2000/svg">
<path d="M17.9997 2.5C24.2675 2.5 29.3522 7.59077 29.3522 13.8701C29.3522 17.6144 27.3945 21.7205 25.031 25.2969C22.9722 28.412 20.6449 31.0672 19.1628 32.6445L18.5827 33.2529C18.2839 33.5617 17.8019 33.5807 17.4802 33.3105L17.4177 33.2529C16.0257 31.8156 13.3214 28.8561 10.9685 25.2959C8.60493 21.7197 6.64818 17.6144 6.64815 13.8701C6.64815 7.59079 11.732 2.50007 17.9997 2.5ZM17.9997 8.09473C14.8143 8.09479 12.2321 10.6817 12.2321 13.8701C12.2322 17.0585 14.8143 19.6454 17.9997 19.6455C21.185 19.6455 23.7672 17.0603 23.7673 13.8701C23.7673 10.6816 21.1852 8.09473 17.9997 8.09473Z" stroke="#004254"/>
</svg>
