<svg width="52" height="52" viewBox="0 0 52 52" fill="none" xmlns="http://www.w3.org/2000/svg">
<path d="M30.8805 50C29.9055 50 28.9608 49.8671 28.0684 49.5992C25.4014 48.7994 22.3537 46.626 21.5622 43.574C21.0123 41.4489 21.6569 39.4668 22.4747 36.959C22.803 35.9538 23.1978 34.9688 23.6591 34.012C22.1665 34.8459 20.4019 36.1895 19.0201 38.3005C16.1476 42.6858 16.9211 47.3774 17.2253 48.711C17.3179 49.1138 17.0661 49.5167 16.6612 49.6094C16.2584 49.702 15.8555 49.4502 15.7628 49.0453C15.4244 47.5668 14.5663 42.3596 17.7651 37.4767C20.0916 33.9254 23.3772 32.326 25.1294 31.6872C25.4275 31.5785 25.7639 31.6691 25.9654 31.9149C26.1668 32.1606 26.193 32.5071 26.0278 32.779C25.1435 34.2414 24.4264 35.8026 23.9007 37.4181C23.1312 39.7829 22.5732 41.4911 23.0143 43.191C23.6549 45.6647 26.3058 47.4997 28.4975 48.1564C34.043 49.8183 40.7669 45.2195 43.8207 40.0041C46.4172 35.5665 46.099 31.0948 45.8169 27.1504C45.5772 23.7925 45.1301 17.5522 40.507 12.3068C38.8653 10.4435 35.451 6.56786 30.1513 6.36468C27.6334 6.26799 24.9059 6.97101 22.8555 8.24405C22.503 8.46362 22.0418 8.35484 21.8222 8.00233C21.6046 7.64982 21.7114 7.18855 22.0639 6.96897C24.3925 5.52266 27.3614 4.75519 30.21 4.86601C36.1521 5.09363 39.8546 9.29554 41.6332 11.314C46.5925 16.9379 47.0617 23.5086 47.3139 27.0379C47.5959 30.9981 47.9464 35.923 45.1162 40.7615C43.4141 43.6702 40.727 46.3112 37.7416 48.0093C35.4351 49.3267 33.0783 50 30.8805 50Z" fill="#004254"/>
<path d="M19.4893 29.6509C19.1509 29.6509 18.8427 29.4193 18.7601 29.0748C18.6634 28.6719 18.9132 28.267 19.3161 28.1704C20.2064 27.9568 21.5057 27.4573 22.6478 26.2789C22.815 26.1076 22.9761 25.9243 23.1252 25.733C23.3911 25.3925 23.4696 24.9615 23.3427 24.5465C23.2138 24.1215 22.8955 23.7992 22.4705 23.6602C20.575 23.0398 19.0522 21.9198 18.0631 20.4211C18.0591 20.4171 18.0571 20.411 18.053 20.407L18.0208 20.3567C17.8012 20.0062 17.908 19.5429 18.2605 19.3233C18.613 19.1037 19.0743 19.2105 19.2939 19.563L19.318 19.5993C20.1278 20.828 21.3465 21.7144 22.9378 22.234C23.8201 22.5221 24.507 23.2231 24.7769 24.1094C25.0468 24.9957 24.8756 25.9243 24.3056 26.6555C24.1223 26.8912 23.9269 27.1148 23.7214 27.3243C22.3295 28.7606 20.7462 29.3709 19.6625 29.6288C19.6061 29.6429 19.5477 29.6509 19.4893 29.6509Z" fill="#004254"/>
<path d="M19.7374 29.7057C18.3415 29.7057 16.8428 29.5486 15.2494 29.2364C14.8425 29.1558 14.5787 28.763 14.6593 28.3561C14.7399 27.9492 15.1326 27.6853 15.5395 27.7659C19.7314 28.5898 23.1539 28.2615 25.7101 26.785C26.1452 26.5332 26.5481 26.2653 26.9751 25.9792C27.9924 25.2984 29.1446 24.5269 31.167 23.7091C31.7048 23.4915 32.1701 23.3263 32.5791 23.1833C33.562 22.8349 34.1563 22.6254 34.7667 22.0573C35.7476 21.1448 36.3056 19.7348 36.4265 17.8634C36.4527 17.4505 36.8092 17.1383 37.2242 17.1624C37.6371 17.1886 37.9514 17.5452 37.9252 17.9601C37.7782 20.2263 37.061 21.9748 35.79 23.1571C34.952 23.9366 34.1261 24.2287 33.0827 24.5974C32.6879 24.7364 32.2407 24.8955 31.7311 25.101C29.8537 25.8604 28.8164 26.5533 27.8111 27.2261C27.364 27.5262 26.9409 27.8082 26.4615 28.0842C24.5862 29.1639 22.3359 29.7057 19.7374 29.7057Z" fill="#004254"/>
<path d="M33.5775 43.0364C33.5009 43.0364 33.4223 43.0243 33.3438 42.9981C32.951 42.8692 32.7355 42.4462 32.8644 42.0514C33.3941 40.4339 33.4062 39.0742 32.9006 38.0106C32.5481 37.2693 32.0405 36.8523 31.4543 36.3709C30.8198 35.8492 30.1007 35.259 29.6032 34.2135C28.9948 32.9324 28.9223 31.4035 29.3896 29.6591L26.1163 27.8482C25.7537 27.6468 25.6228 27.1916 25.8222 26.8289C26.0236 26.4664 26.4789 26.3354 26.8415 26.5349L30.6426 28.6378C30.9608 28.8131 31.1059 29.1938 30.989 29.5362C30.987 29.5443 30.985 29.5523 30.983 29.5584C30.4633 31.1618 30.4553 32.5094 30.9568 33.5689C31.3093 34.3102 31.817 34.7272 32.4051 35.2106C33.0397 35.7323 33.7568 36.3225 34.2543 37.364C34.9311 38.7861 34.9432 40.5205 34.2905 42.5147C34.1878 42.837 33.8937 43.0364 33.5775 43.0364Z" fill="#004254"/>
<path d="M39.661 33.8289C38.3355 33.8289 37.1451 33.5348 36.1077 32.9507C35.3664 32.5337 34.9051 32.0765 34.4982 31.6736C34.188 31.3674 33.8939 31.0774 33.4931 30.8195C33.4085 30.7651 33.3218 30.7128 33.2231 30.6604C32.4033 30.2172 31.4505 30.0279 30.3104 30.0843C29.8934 30.1064 29.5449 29.7862 29.5248 29.3712C29.5047 28.9583 29.823 28.6057 30.2379 28.5856C31.6399 28.5171 32.8848 28.771 33.9383 29.341C34.0732 29.4135 34.1961 29.486 34.3089 29.5606C34.8387 29.901 35.2033 30.2616 35.5558 30.608C35.9285 30.9766 36.281 31.3251 36.847 31.6454C37.9247 32.2537 39.2481 32.4592 40.775 32.2537C41.1839 32.1993 41.5626 32.4874 41.617 32.8983C41.6714 33.3092 41.3833 33.6859 40.9724 33.7403C40.5212 33.7987 40.084 33.8289 39.661 33.8289Z" fill="#004254"/>
<path d="M33.8963 30.936C33.6968 30.936 33.4974 30.8574 33.3484 30.6983C33.0643 30.3962 33.0805 29.9208 33.3826 29.6388C34.1461 28.9217 34.9921 28.2871 35.8925 27.7533C37.3911 26.867 39.0228 26.2627 40.741 25.9626C41.1479 25.8901 41.5387 26.164 41.6092 26.5709C41.6817 26.9798 41.4078 27.3686 41.0009 27.4391C39.4599 27.709 37.9995 28.2489 36.6559 29.0445C35.8481 29.5219 35.0928 30.09 34.4079 30.7325C34.2649 30.8695 34.0796 30.936 33.8963 30.936Z" fill="#004254"/>
<path d="M30.518 25.5519C30.2582 25.5519 30.0064 25.417 29.8674 25.1773C28.9972 23.6665 28.4151 22.0349 28.1411 20.3268C27.6455 17.2428 28.27 14.6662 28.8803 13.0491C29.0274 12.6623 29.4585 12.4649 29.8472 12.6119C30.234 12.759 30.4314 13.1901 30.2844 13.5788C29.7385 15.0251 29.1805 17.3295 29.6237 20.0892C29.8694 21.6161 30.3891 23.0765 31.1687 24.4281C31.3762 24.7867 31.2533 25.2459 30.8927 25.4534C30.7739 25.5199 30.6449 25.5519 30.518 25.5519Z" fill="#004254"/>
<path d="M10.0962 12.6359C9.68129 12.6359 9.34692 12.2995 9.34692 11.8866C9.34692 9.10677 11.609 6.84668 14.3868 6.84668C15.9902 6.84668 17.4587 7.58193 18.4195 8.86508C18.6673 9.19744 18.6008 9.66679 18.2685 9.91458C17.9361 10.1623 17.4667 10.0959 17.219 9.7635C16.5462 8.86308 15.5128 8.34741 14.3888 8.34741C12.4369 8.34741 10.8475 9.9347 10.8475 11.8886C10.8455 12.2996 10.5092 12.6359 10.0962 12.6359Z" fill="#004254"/>
<path d="M10.0964 12.6358C9.98156 12.6358 9.86674 12.6096 9.75998 12.5573L8.04377 11.6991C7.67313 11.5138 7.52206 11.0626 7.70738 10.692C7.89269 10.3213 8.34392 10.1703 8.71454 10.3556L10.0944 11.0465L11.4742 10.3556C11.8449 10.1703 12.2961 10.3213 12.4814 10.692C12.6667 11.0626 12.5156 11.5138 12.145 11.6991L10.4288 12.5573C10.326 12.6096 10.2112 12.6358 10.0964 12.6358Z" fill="#004254"/>
<path d="M14.3852 16.9263C12.7818 16.9263 11.3134 16.191 10.3525 14.9079C10.1047 14.5755 10.1712 14.1062 10.5036 13.8584C10.8359 13.6106 11.3053 13.6771 11.5531 14.0095C12.2259 14.9099 13.2592 15.4256 14.3832 15.4256C16.3352 15.4256 17.9245 13.8383 17.9245 11.8843C17.9245 11.4694 18.2609 11.135 18.6738 11.135C19.0888 11.135 19.4231 11.4714 19.4231 11.8843C19.4251 14.6641 17.165 16.9263 14.3852 16.9263Z" fill="#004254"/>
<path d="M16.9595 13.4938C16.6835 13.4938 16.4196 13.3427 16.2887 13.0789C16.1034 12.7082 16.2544 12.257 16.6251 12.0717L18.3413 11.2136C18.5528 11.1088 18.8006 11.1088 19.0121 11.2136L20.7283 12.0717C21.0989 12.257 21.25 12.7082 21.0647 13.0789C20.8794 13.4495 20.4281 13.5986 20.0575 13.4153L18.6777 12.7244L17.2958 13.4153C17.1871 13.4676 17.0723 13.4938 16.9595 13.4938Z" fill="#004254"/>
<path d="M14.3852 21.7709C8.93449 21.7709 4.50073 17.3373 4.50073 11.8865C4.50073 6.43567 8.93434 2 14.3852 2C19.8358 2 24.2696 6.43361 24.2696 11.8844C24.2696 17.3351 19.836 21.7709 14.3852 21.7709ZM14.3852 3.50061C9.76225 3.50061 6.00134 7.26142 6.00134 11.8844C6.00134 16.5074 9.76215 20.2682 14.3852 20.2682C19.0082 20.2682 22.769 16.5074 22.769 11.8844C22.771 7.26152 19.0102 3.50061 14.3852 3.50061Z" fill="#004254"/>
</svg>
