<svg width="52" height="52" viewBox="0 0 52 52" fill="none" xmlns="http://www.w3.org/2000/svg">
<path d="M27.1853 5.24759C27.3203 5.24759 27.4553 5.20259 27.5603 5.10509L28.1153 4.60259C28.3478 4.39259 28.3628 4.04009 28.1528 3.80759C27.9428 3.57509 27.5903 3.56009 27.3578 3.77009L26.8028 4.27259C26.5703 4.48259 26.5553 4.83509 26.7653 5.06759C26.8778 5.18009 27.0278 5.24759 27.1853 5.24759Z" fill="#004254"/>
<path d="M24.8679 7.14494C24.9954 7.14494 25.1304 7.09994 25.2354 7.00994C25.4304 6.84494 25.6179 6.68744 25.7979 6.54494C26.0454 6.34994 26.0829 5.99744 25.8879 5.75744C25.6929 5.51744 25.3404 5.47244 25.1004 5.66744C24.9054 5.81744 24.7104 5.98244 24.5004 6.16244C24.2679 6.36494 24.2379 6.72494 24.4404 6.95744C24.5529 7.08494 24.7104 7.14494 24.8679 7.14494Z" fill="#004254"/>
<path d="M29.6303 3.55255C29.6978 3.55255 29.7578 3.54505 29.8253 3.52255C30.0353 3.44755 30.2528 3.38005 30.4853 3.32755C30.7853 3.25255 30.9728 2.95255 30.8978 2.64505C30.8228 2.33755 30.5228 2.15755 30.2228 2.23255C29.9528 2.30005 29.6903 2.37505 29.4428 2.46505C29.1503 2.57005 28.9928 2.89255 29.1053 3.18505C29.1878 3.41755 29.4053 3.55255 29.6303 3.55255Z" fill="#004254"/>
<path d="M39.3804 8.33761C39.4854 8.51761 39.6729 8.61511 39.8679 8.61511C39.9654 8.61511 40.0629 8.59261 40.1529 8.54011C40.4229 8.38261 40.5129 8.03761 40.3554 7.76761L39.9729 7.12261C39.8154 6.85261 39.4704 6.77011 39.2004 6.92011C38.9304 7.07761 38.8404 7.42261 38.9979 7.69261L39.3804 8.33761Z" fill="#004254"/>
<path d="M32.5627 3.125C32.7952 3.1325 33.0277 3.1475 33.2677 3.1775C33.2902 3.1775 33.3127 3.1775 33.3277 3.1775C33.6127 3.1775 33.8527 2.9675 33.8827 2.675C33.9202 2.3675 33.6952 2.09 33.3877 2.0525C33.1252 2.03 32.8552 2.015 32.6002 2C32.3002 2.0075 32.0302 2.2325 32.0227 2.5475C32.0077 2.855 32.2552 3.1175 32.5627 3.125Z" fill="#004254"/>
<path d="M37.8577 5.71994C37.9627 5.90744 38.1502 6.01994 38.3527 6.01994C38.4427 6.01994 38.5327 5.99744 38.6152 5.95244C38.8927 5.80244 38.9902 5.46494 38.8477 5.19494C38.7127 4.94744 38.5552 4.70744 38.3827 4.48244C38.1877 4.23494 37.8352 4.19744 37.5952 4.39244C37.3477 4.58744 37.3102 4.93994 37.5052 5.17994C37.6402 5.35244 37.7602 5.53244 37.8577 5.71994Z" fill="#004254"/>
<path d="M35.3153 3.66503C35.5328 3.74753 35.7428 3.84503 35.9453 3.94253C36.0278 3.98003 36.1178 4.00253 36.2003 4.00253C36.4028 4.00253 36.6053 3.89003 36.7028 3.69503C36.8453 3.41753 36.7328 3.08003 36.4553 2.93753C36.2153 2.81753 35.9678 2.70503 35.7203 2.60753C35.4278 2.49503 35.1053 2.63753 34.9928 2.93003C34.8803 3.23003 35.0228 3.55253 35.3153 3.66503Z" fill="#004254"/>
<path d="M43.7078 35.2251C45.0728 32.2176 45.8603 28.6851 45.8603 24.9126C45.8603 19.4901 44.2328 14.3676 41.3603 10.6401C41.3303 10.5201 41.2703 10.2876 41.1878 10.0026C41.1053 9.71008 40.8053 9.53758 40.5128 9.61258C39.8903 8.93008 39.1178 8.37508 38.2178 7.96258C37.9328 7.83508 37.6028 7.95508 37.4753 8.24008C37.3478 8.52508 37.4678 8.85508 37.7528 8.98258C38.5403 9.34258 39.2078 9.83008 39.7403 10.4301C42.9203 14.0076 44.7428 19.2876 44.7428 24.9126C44.7428 28.5276 43.9928 31.9101 42.6953 34.7751C40.1453 37.8726 35.2853 40.3251 31.0928 40.6251C27.3503 40.8876 23.8628 39.7626 21.2753 37.4526C21.0878 37.2876 20.9378 37.0926 20.8103 36.8901C20.1728 35.2551 20.4278 33.3651 21.5828 31.9626C23.0678 30.1626 23.9228 27.5976 23.9228 24.9201C23.9228 24.8301 23.9153 24.7326 23.9153 24.6426C24.1553 24.6351 24.3953 24.6351 24.6278 24.6351C25.0778 24.9726 26.6678 26.4051 26.5478 29.3976C25.7153 29.5701 24.9503 30.2826 24.4028 30.9276C23.0303 32.5626 21.8678 35.2101 22.3628 36.6351C22.8053 37.9101 24.5453 38.5701 25.8953 38.7426C26.2028 38.7801 26.5028 38.8026 26.7878 38.8026C28.0103 38.8026 28.9703 38.4276 29.4353 37.7526C29.5103 37.6476 29.5553 37.5126 29.6153 37.3851C29.8103 37.7151 30.0278 37.9851 30.2753 38.1726C30.6953 38.4876 31.2353 38.6151 31.7978 38.6151C32.6828 38.6151 33.6428 38.3076 34.3853 37.9401C35.8703 37.1976 36.7553 36.1476 36.7553 35.1351C36.7553 35.0301 36.7478 34.9251 36.7328 34.8201C36.9353 34.9026 37.1378 34.9626 37.3253 34.9851C37.4003 34.9926 37.4678 35.0001 37.5428 35.0001C38.8103 35.0001 40.0553 33.7926 40.7603 32.7201C41.6678 31.3326 41.9078 29.9826 41.3978 29.0976C41.3078 28.9476 41.1878 28.7976 41.0528 28.6551C41.4053 28.6176 41.7353 28.5501 41.9978 28.4076C43.1828 27.7626 43.5578 25.9476 43.5128 24.5826C43.4603 22.9251 42.8828 21.6801 41.9678 21.2451C40.5578 20.5776 37.5728 21.3876 35.7803 22.5276C35.1128 22.9476 34.6403 23.3976 34.3553 23.8551C33.0878 23.1651 31.8203 22.8501 30.7553 22.7226C32.2178 21.9426 33.2903 21.1776 33.8003 20.7801C34.1603 20.9676 34.5878 21.0426 35.0303 21.0426C35.5478 21.0426 36.0728 20.9451 36.5303 20.8326C38.6003 20.3076 41.0903 18.8451 41.5178 17.3976C41.9003 16.1076 40.8728 14.5551 39.8828 13.6176C38.6753 12.4776 37.3853 12.0051 36.4328 12.3501C34.9628 12.8826 33.4253 15.5601 32.9603 17.6301C32.7428 18.5976 32.7728 19.3776 33.0203 19.9551C32.6078 20.2626 31.8728 20.7801 30.9128 21.3351C32.4878 18.7476 32.5553 15.4101 32.5103 14.1276C33.3203 13.8876 34.0253 13.1151 34.5128 12.4326C35.7503 10.6926 36.7103 7.96258 36.0953 6.58258C35.5478 5.35258 33.7703 4.82758 32.4053 4.75258C30.7553 4.66258 29.4578 5.13508 28.9553 6.02008C28.1753 7.37758 28.7303 10.4151 29.7203 12.2901C30.2078 13.2276 30.7778 13.8276 31.3778 14.0751C31.4228 15.3126 31.3928 19.3551 29.2328 21.7176C28.1453 22.9026 26.6528 23.5026 24.7928 23.5026C24.4778 23.5026 24.1553 23.5026 23.8328 23.5101C23.7953 23.1951 23.7503 22.8876 23.6978 22.5876C24.0653 22.5726 24.4328 22.5576 24.7778 22.5576C24.9803 22.5501 29.4728 22.3851 29.8028 19.5051C29.8778 19.4526 29.9603 19.4001 30.0278 19.3326C30.5903 18.7701 30.7253 17.7876 30.4403 16.4826C29.9753 14.4126 28.4378 11.7351 26.9678 11.2026C26.0153 10.8576 24.7253 11.3301 23.5178 12.4701C22.5278 13.4076 21.5003 14.9526 21.8828 16.2501C22.3103 17.6976 24.8078 19.1601 26.8703 19.6851C27.3278 19.8051 27.8603 19.8951 28.3703 19.8951C28.4228 19.8951 28.4753 19.8876 28.5353 19.8876C27.7778 21.3276 24.7778 21.4401 24.7628 21.4401C24.3353 21.4476 23.8928 21.4626 23.4353 21.4851C23.0378 20.1126 22.4153 18.8676 21.5828 17.8626C20.1653 16.1526 20.0753 13.6926 21.3653 11.8776C21.9803 11.0151 22.6553 10.2201 23.3828 9.53008C24.2528 8.69758 25.3778 8.10508 26.6378 7.80508C26.9378 7.73008 27.1253 7.43008 27.0578 7.13008C26.9828 6.83008 26.6828 6.64258 26.3828 6.71008C25.4153 6.94258 24.5303 7.33258 23.7353 7.85008C23.7128 7.82008 23.6903 7.78258 23.6603 7.75258C23.4203 7.55008 23.0678 7.58008 22.8653 7.82008C22.7003 8.01508 22.5353 8.22508 22.3778 8.43508C22.2503 8.60758 22.2428 8.83258 22.3328 9.02008C21.6653 9.68758 21.0353 10.4226 20.4578 11.2326C18.8753 13.4676 18.9878 16.4901 20.7278 18.5901C21.4178 19.4226 21.9428 20.4426 22.3028 21.5751C21.7178 21.6276 21.1178 21.6876 20.4878 21.7776C18.9578 21.9951 17.4803 22.7226 16.4228 23.7801C15.6128 24.5901 15.1103 25.5876 14.6228 26.5551C14.5253 26.7426 14.4353 26.9226 14.3378 27.1026C12.3578 27.8976 10.4153 28.1901 8.25532 28.4976C7.72282 28.5726 7.17532 28.6551 6.61282 28.7451C6.30532 28.7976 6.09532 29.0826 6.14782 29.3901C6.19282 29.6676 6.43282 29.8626 6.70282 29.8626C6.73282 29.8626 6.76282 29.8626 6.79282 29.8551C7.34782 29.7651 7.88782 29.6901 8.42032 29.6076C10.1603 29.3526 11.7653 29.1126 13.3778 28.6251C11.8253 30.6051 9.23782 31.7976 6.74782 31.6401C6.44032 31.6176 6.17032 31.8576 6.14782 32.1651C6.12532 32.4726 6.36532 32.7426 6.67282 32.7651C6.86032 32.7801 7.04032 32.7801 7.22032 32.7801C10.1753 32.7801 13.0628 31.2426 14.6903 28.7526C14.8553 28.5051 14.9978 28.2426 15.1403 27.9876C15.2828 27.9276 15.4328 27.8451 15.5828 27.7776C15.3053 29.2026 15.0653 31.9476 15.3203 37.2126C15.6278 43.6701 15.5828 47.1201 15.5303 48.6051C15.5153 48.9726 15.6503 49.3251 15.9053 49.5876C16.1603 49.8501 16.5053 50.0001 16.8803 50.0001H17.8853C18.2453 50.0001 18.5903 49.8576 18.8453 49.6026C19.1003 49.3476 19.2353 49.0101 19.2353 48.6501C19.2203 46.8351 19.2728 41.2476 20.2553 38.2476C20.3228 38.3601 20.3828 38.4801 20.4578 38.5926C23.2703 42.5676 27.0653 44.7576 31.1453 44.7576C36.4403 44.7576 41.0978 40.9701 43.6928 35.3076C43.6778 35.2776 43.7003 35.2551 43.7078 35.2251ZM30.7178 11.7726C29.8103 10.0401 29.4203 7.47508 29.9303 6.58258C30.2003 6.11008 31.1903 5.82508 32.3453 5.87758C33.6578 5.94508 34.7978 6.43258 35.0678 7.03258C35.4428 7.88008 34.7228 10.1826 33.5978 11.7726C32.8853 12.7776 32.2928 13.0926 31.9703 13.0776C31.6028 13.0551 31.1303 12.5601 30.7178 11.7726ZM26.1203 24.5301C26.1578 24.5226 26.1953 24.5226 26.2328 24.5151C26.8928 24.9576 29.3528 26.7876 29.7953 29.7126C29.4053 30.0426 29.1503 30.5451 28.9853 31.0851C28.6028 30.3201 28.1528 29.7951 27.6503 29.5401C27.7853 27.0426 26.8928 25.4301 26.1203 24.5301ZM32.7728 29.9376C32.0678 29.5176 31.4228 29.3076 30.8753 29.3226C30.4778 27.1326 29.1578 25.5201 28.0928 24.5451C29.3378 25.0551 31.5053 26.1426 32.6678 27.8676C32.4278 28.4901 32.5478 29.2476 32.7728 29.9376ZM28.4978 37.1151C28.1903 37.5651 27.1778 37.7751 26.0378 37.6251C24.7403 37.4526 23.6378 36.8751 23.4203 36.2601C23.1128 35.3826 24.0053 33.1476 25.2578 31.6476C25.9928 30.7776 26.5703 30.4701 26.9078 30.4701C26.9378 30.4701 26.9603 30.4701 26.9828 30.4776C27.3503 30.5376 27.7778 31.0626 28.1303 31.8876C28.4528 32.6376 28.6628 33.5301 28.7678 34.3701C28.7753 34.4451 28.7828 34.5201 28.7903 34.5951C28.8953 35.6751 28.8128 36.6576 28.4978 37.1151ZM33.8753 36.9351C32.7053 37.5201 31.4678 37.6626 30.9353 37.2726C30.1928 36.7176 29.6753 34.3626 29.8703 32.4276C29.9978 31.2051 30.3503 30.6276 30.6353 30.4926C30.7103 30.4551 30.8003 30.4401 30.9053 30.4401C31.2653 30.4401 31.7903 30.6426 32.3678 31.0176C33.0353 31.4451 33.6878 32.0301 34.2353 32.6451C34.4003 32.8626 34.5728 33.0726 34.7453 33.2751C35.2703 33.9801 35.6153 34.6701 35.6153 35.1351C35.6228 35.6751 34.9028 36.4176 33.8753 36.9351ZM39.8153 32.0976C39.0953 33.1926 38.0978 33.9351 37.4453 33.8676C36.9503 33.8151 36.2528 33.2676 35.5853 32.5026C35.4503 32.3301 35.3078 32.1576 35.1653 31.9851C34.7528 31.4376 34.3703 30.8301 34.0928 30.2151C33.5828 29.0901 33.5978 28.4151 33.7778 28.1526C33.9878 27.8526 34.6478 27.6951 35.5403 27.7326C37.4903 27.8151 39.9128 28.7676 40.4228 29.6601C40.6928 30.1251 40.4453 31.1301 39.8153 32.0976ZM36.3803 23.4651C37.6553 22.6551 39.4628 22.1151 40.6478 22.1151C40.9928 22.1151 41.2778 22.1601 41.4878 22.2576C41.9828 22.4901 42.3503 23.4576 42.3878 24.6051C42.4253 25.9176 42.0353 27.0951 41.4578 27.4101C40.6403 27.8526 38.2853 27.3276 36.6128 26.3376C35.5553 25.7076 35.1803 25.1451 35.1803 24.8226C35.1728 24.4551 35.6228 23.9451 36.3803 23.4651ZM34.0628 24.9876C34.1303 25.6101 34.5353 26.1576 35.0453 26.6076C34.3778 26.6301 33.8378 26.7651 33.4253 26.9976C32.2628 25.4226 30.4478 24.3801 29.1278 23.7726C30.2378 23.7351 32.1878 23.8776 34.0628 24.9876ZM34.0628 17.8701C34.4903 15.9651 35.8553 13.7526 36.8153 13.4001C37.3328 13.2201 38.2778 13.6326 39.1103 14.4276C40.0628 15.3276 40.6253 16.4376 40.4378 17.0676C40.1753 17.9601 38.1428 19.2501 36.2528 19.7301C35.0603 20.0301 34.3928 19.9026 34.1678 19.6776C33.9053 19.4151 33.8678 18.7401 34.0628 17.8701ZM27.1478 18.5901C25.2578 18.1101 23.2253 16.8126 22.9628 15.9276C22.7753 15.2976 23.3378 14.1876 24.2903 13.2876C24.9953 12.6201 25.7753 12.2151 26.3153 12.2151C26.4128 12.2151 26.5103 12.2301 26.5853 12.2601C27.5528 12.6051 28.9178 14.8251 29.3378 16.7301C29.5328 17.6001 29.4953 18.2751 29.2328 18.5376C29.0078 18.7626 28.3403 18.8976 27.1478 18.5901ZM17.2028 24.5676C18.0878 23.6826 19.3403 23.0676 20.6303 22.8801C21.2978 22.7826 21.9428 22.7151 22.5578 22.6626C22.6178 22.9626 22.6628 23.2626 22.7003 23.5701C21.9728 23.6376 21.2378 23.7651 20.5253 24.0351C19.0403 24.5901 17.7878 25.1976 16.6928 25.8876C16.4603 26.0376 16.2278 26.1576 15.9953 26.2851C16.3478 25.6476 16.7153 25.0551 17.2028 24.5676ZM18.0878 48.6501C18.0878 48.7251 18.0578 48.7776 18.0278 48.8076C18.0053 48.8301 17.9528 48.8751 17.8703 48.8751H16.8653C16.7828 48.8751 16.7303 48.8301 16.7003 48.8076C16.6703 48.7776 16.6403 48.7251 16.6403 48.6501C16.6928 47.1501 16.7378 43.6626 16.4228 37.1676C16.0628 29.5476 16.7528 27.4626 16.9178 27.0651C17.0453 26.9901 17.1728 26.9226 17.3003 26.8476C18.3353 26.2026 19.5203 25.6251 20.9303 25.1001C21.5228 24.8826 22.1528 24.7626 22.7903 24.7101C22.7903 24.7851 22.7978 24.8526 22.7978 24.9276C22.7978 27.3501 22.0403 29.6601 20.7128 31.2576C19.3928 32.8476 19.0178 34.9626 19.5878 36.8676C18.1853 39.6351 18.0653 45.9876 18.0878 48.6501ZM31.1228 43.6251C28.2428 43.6251 25.5128 42.4026 23.2178 40.1376C25.2503 41.2101 27.5678 41.7801 30.0128 41.7801C30.3953 41.7801 30.7778 41.7651 31.1603 41.7426C34.4528 41.5101 38.0303 40.0926 40.8053 38.0451C38.3378 41.4876 34.9028 43.6251 31.1228 43.6251Z" fill="#004254"/>
<path d="M38.4054 25.3477C38.8554 25.1452 39.3279 24.9727 39.7629 24.8677C39.7554 25.0477 39.7404 25.2277 39.7104 25.3777C39.6504 25.6852 39.8529 25.9777 40.1529 26.0377C40.1904 26.0452 40.2279 26.0452 40.2579 26.0452C40.5204 26.0452 40.7604 25.8577 40.8129 25.5877C40.8954 25.1452 40.9104 24.5677 40.8354 24.1102C40.7904 23.8102 40.5204 23.6077 40.2129 23.6377C39.5379 23.7127 38.7054 23.9602 37.9329 24.3202C37.6479 24.4477 37.5279 24.7852 37.6554 25.0627C37.7829 25.3402 38.1279 25.4827 38.4054 25.3477Z" fill="#004254"/>
<path d="M38.5853 30.065C38.1053 29.81 37.2578 29.4875 36.3278 29.3225C36.0203 29.27 35.7278 29.4725 35.6753 29.78C35.6228 30.0875 35.8253 30.38 36.1328 30.4325C36.6428 30.5225 37.1228 30.6725 37.5128 30.8225C37.4078 30.9725 37.2878 31.1075 37.1828 31.2125C36.9578 31.43 36.9503 31.7825 37.1678 32.0075C37.2803 32.12 37.4228 32.18 37.5728 32.18C37.7153 32.18 37.8503 32.1275 37.9628 32.0225C38.2853 31.7075 38.6303 31.235 38.8328 30.8225C38.9603 30.5375 38.8553 30.2075 38.5853 30.065Z" fill="#004254"/>
<path d="M33.0505 34.3926C32.9155 34.4826 32.7505 34.5726 32.5855 34.6476C32.5105 34.2126 32.4655 33.6951 32.4655 33.2151C32.4655 32.9076 32.2105 32.6526 31.903 32.6526C31.5955 32.6526 31.3405 32.9076 31.3405 33.2151C31.3405 34.0626 31.4605 34.9551 31.648 35.5476C31.723 35.7876 31.9405 35.9376 32.1805 35.9376C32.2255 35.9376 32.263 35.9301 32.308 35.9226C32.833 35.8026 33.3655 35.5251 33.6805 35.3151C33.9355 35.1426 34.003 34.7901 33.8305 34.5351C33.658 34.2801 33.3055 34.2126 33.0505 34.3926Z" fill="#004254"/>
<path d="M26.7653 35.0525C26.6003 35.0525 26.4278 35.0375 26.2553 35.0075C26.4353 34.6025 26.6903 34.1525 26.9528 33.755C27.1253 33.5 27.0578 33.1475 26.8028 32.975C26.5478 32.8025 26.1953 32.87 26.0228 33.125C25.5503 33.8225 25.1453 34.6325 24.9728 35.225C24.8903 35.51 25.0403 35.8025 25.3103 35.9075C25.7528 36.0725 26.2853 36.17 26.7653 36.17H26.7803C27.0878 36.17 27.3353 35.915 27.3353 35.6075C27.3353 35.3 27.0728 35.0525 26.7653 35.0525Z" fill="#004254"/>
<path d="M36.0954 18.095C36.1629 18.1175 36.2304 18.1325 36.2979 18.1325C36.5229 18.1325 36.7404 17.9975 36.8229 17.7725C36.9954 17.3225 37.2204 16.8575 37.4454 16.475C37.5729 16.61 37.6854 16.745 37.7679 16.8725C37.9404 17.1275 38.2929 17.2025 38.5479 17.0225C38.8029 16.85 38.8704 16.4975 38.6979 16.2425C38.4429 15.8675 38.0379 15.4475 37.6629 15.17C37.4154 14.99 37.0779 15.0425 36.8904 15.2825C36.5004 15.785 36.0654 16.5875 35.7729 17.375C35.6604 17.66 35.8104 17.9825 36.0954 18.095Z" fill="#004254"/>
<path d="M27.2903 15.8976C26.8553 15.7401 26.3828 15.5151 25.9928 15.2826C26.1203 15.1476 26.2628 15.0276 26.3903 14.9301C26.6378 14.7501 26.6978 14.3976 26.5178 14.1426C26.3378 13.8951 25.9853 13.8351 25.7303 14.0151C25.3553 14.2851 24.9503 14.7051 24.6953 15.0876C24.5303 15.3351 24.5828 15.6651 24.8228 15.8451C25.3403 16.2426 26.1578 16.6701 26.9153 16.9476C26.9753 16.9701 27.0428 16.9776 27.1103 16.9776C27.3428 16.9776 27.5528 16.8351 27.6428 16.6101C27.7328 16.3251 27.5828 16.0026 27.2903 15.8976Z" fill="#004254"/>
<path d="M32.413 10.6249C32.7055 10.5199 32.863 10.1974 32.758 9.90487C32.6005 9.44737 32.4655 8.95237 32.3905 8.51737C32.6155 8.53987 32.788 8.58487 32.893 8.61487C33.193 8.70487 33.5005 8.53237 33.5905 8.23237C33.6805 7.93237 33.508 7.62487 33.208 7.53487C32.953 7.45987 32.548 7.36987 32.038 7.36987C31.918 7.36987 31.813 7.37737 31.7155 7.38487C31.4155 7.40737 31.183 7.66987 31.198 7.96987C31.228 8.60737 31.4155 9.49237 31.693 10.2799C31.7755 10.5124 31.993 10.6549 32.2255 10.6549C32.293 10.6549 32.353 10.6474 32.413 10.6249Z" fill="#004254"/>
</svg>
