<svg width="52" height="52" viewBox="0 0 52 52" fill="none" xmlns="http://www.w3.org/2000/svg">
<path d="M49.6824 36.5742C49.624 36.2794 48.2071 29.3156 44.8533 26.3062C42.7285 24.4003 40.1807 23.191 37.2756 22.6927C37.7569 21.4694 38.0114 20.1589 38.0114 18.8457C38.0114 13.0438 33.2882 8.32368 27.4821 8.32368C26.6952 8.32368 26.1391 8.39649 25.4523 8.52042C24.5967 8.6681 23.7498 8.89169 22.9247 9.18395L21.8661 3.57463C21.7969 3.20853 21.4773 2.94312 21.1045 2.94312H13.8794C13.6207 2.94312 13.3791 3.07221 13.2355 3.28702C13.092 3.50234 13.0651 3.77499 13.1637 4.01355L14.4237 7.05806H11.2527C10.9754 7.05806 10.7193 7.20626 10.5809 7.44689C10.4425 7.68751 10.4435 7.98339 10.5834 8.22299L14.5936 15.1103C14.1061 15.6912 13.8149 16.11 13.725 16.2437C11.1995 20.0458 10.7115 23.9712 10.7461 26.5737C10.711 29.1938 11.199 33.1151 13.7209 36.9114C13.7622 36.9754 17.9737 43.3283 25.4461 44.6394C26.185 44.7731 26.7277 44.8454 27.4816 44.8454C33.2872 44.8454 38.0109 40.1217 38.0109 34.3151C38.0109 33.256 37.8477 32.2078 37.5379 31.2092C39.9086 32.9395 41.4009 36.74 41.4195 36.787C41.6931 37.4965 41.9245 38.7404 41.9245 39.5031V46.7333C41.9245 48.0144 42.967 49.0569 44.2481 49.0569H47.6763C48.9574 49.0569 50 48.0144 50 46.7333V39.7938C50.0005 38.8974 49.858 37.4531 49.6824 36.5742ZM15.5829 8.60717C15.8416 8.60717 16.0833 8.47807 16.2268 8.26327C16.3704 8.04794 16.3972 7.7753 16.2986 7.53673L15.0387 4.49222H20.4637L21.5718 10.3716C21.5728 10.3773 21.5713 10.383 21.5723 10.3886L21.8733 11.9698H18.315C17.8875 11.9698 17.5405 12.3168 17.5405 12.7443V17.0952L12.6025 8.60768H15.5829V8.60717ZM27.4827 43.2963C26.8382 43.2963 26.4014 43.238 25.7182 43.114C18.898 41.9176 15.0583 36.1245 15.016 36.0599C12.7099 32.5879 12.2642 28.996 12.2962 26.5737C12.2637 24.169 12.7099 20.5735 15.0144 17.1035C15.0526 17.0462 15.191 16.8443 15.4265 16.5427L17.6463 20.3515C17.6866 20.4207 17.7388 20.479 17.7951 20.5312C17.8136 20.5482 17.8343 20.5611 17.8539 20.5761C17.8958 20.6076 17.9381 20.6344 17.9846 20.6566C18.0109 20.6685 18.0362 20.6788 18.0631 20.6887C18.11 20.7052 18.1586 20.7155 18.2076 20.7222C18.2345 20.7263 18.2603 20.732 18.2872 20.7331C18.297 20.7331 18.3052 20.7367 18.315 20.7367C18.3822 20.7367 18.4498 20.7279 18.5175 20.7098C18.8552 20.6184 19.0896 20.3117 19.0896 19.9621V13.5184H22.809C22.8131 13.5189 22.8167 13.5189 22.8193 13.5184C23.2474 13.5184 23.5939 13.1714 23.5939 12.7438C23.5939 12.6994 23.5789 12.6596 23.5717 12.6168C23.5706 12.6111 23.5712 12.6054 23.5701 12.5992L23.5474 12.4794C23.5469 12.4789 23.5474 12.4779 23.5469 12.4774L23.2159 10.7248C24.0292 10.4201 24.8688 10.1929 25.7224 10.0458C26.3575 9.93114 26.8047 9.87279 27.4827 9.87279C32.4341 9.87279 36.4628 13.8979 36.4628 18.8457C36.4628 20.1124 36.2026 21.3331 35.6898 22.482C35.2711 22.4417 35.1074 22.4376 35.0728 22.4371C34.6034 22.4329 34.2915 22.1675 34.2915 21.9935C34.2915 20.9019 33.249 20.0138 31.9678 20.0138H31.1447C29.8636 20.0138 28.8211 21.0563 28.8211 22.3374V30.8255C28.8211 32.1066 29.8636 33.1492 31.1447 33.1492H31.9678C33.249 33.1492 34.2915 32.1691 34.2915 30.9644C34.2915 30.7145 34.2931 30.4945 34.2956 30.3091C34.4573 30.306 34.6411 30.3029 34.8321 30.2993C35.0702 30.3133 35.3077 30.3355 35.5437 30.3737C36.1463 31.5846 36.4628 32.9395 36.4628 34.3162C36.4628 39.2671 32.4341 43.2963 27.4827 43.2963ZM48.4514 46.7333C48.4514 47.1603 48.1039 47.5078 47.6768 47.5078H44.2486C43.8216 47.5078 43.4741 47.1603 43.4741 46.7333V39.5031C43.4741 38.5524 43.2066 37.1149 42.8658 36.2303C42.7646 35.9675 40.3439 29.7866 36.2129 28.9216C35.3857 28.7481 35.2354 28.7435 35.1559 28.7435C35.1538 28.7435 35.1518 28.7435 35.1497 28.7435C35.0614 28.745 34.9803 28.7466 34.9013 28.7481C34.4542 28.7223 34.0049 28.7306 33.5572 28.7734C33.5526 28.7734 33.551 28.7745 33.5464 28.7745C33.4927 28.7765 33.4818 28.7776 33.4694 28.7791C33.4354 28.7827 33.4044 28.7879 33.3729 28.7931C33.3677 28.7941 33.362 28.7941 33.3569 28.7951C33.1374 28.8344 32.997 28.918 32.9061 29.0817C32.8049 29.2124 32.7419 29.3745 32.7419 29.5532C32.7419 29.6136 32.7507 29.6714 32.7636 29.7282C32.7419 30.0355 32.7419 30.4372 32.7419 30.9639C32.7419 31.3088 32.3871 31.5995 31.9673 31.5995H31.1442C30.7172 31.5995 30.3697 31.252 30.3697 30.825V22.3369C30.3697 21.9099 30.7172 21.5623 31.1442 21.5623H31.9673C32.4326 21.5623 32.7419 21.8216 32.7419 21.993C32.7419 23.081 33.7813 23.9753 35.0537 23.9857C35.0635 23.9857 35.3026 23.9924 36.0663 24.0802C39.0819 24.4127 41.6906 25.5498 43.819 27.4588C46.7876 30.1227 48.1503 36.8092 48.1638 36.8763C48.3197 37.6596 48.4514 38.9955 48.4514 39.7933V46.7333Z" fill="#004254"/>
<path d="M26.672 35.5684C25.7844 35.5684 25.0625 36.2908 25.0625 37.1789C25.0625 38.0666 25.7844 38.7884 26.672 38.7884C27.5602 38.7884 28.2826 38.0666 28.2826 37.1789C28.2826 36.2913 27.5602 35.5684 26.672 35.5684Z" fill="#004254"/>
<path d="M21.9689 22.3616C21.0813 22.3616 20.3594 23.0835 20.3594 23.9711C20.3594 24.8592 21.0813 25.5811 21.9689 25.5811C22.8571 25.5811 23.5795 24.8592 23.5795 23.9711C23.58 23.084 22.8571 22.3616 21.9689 22.3616Z" fill="#004254"/>
<path d="M20.299 29.5974C19.4113 29.5974 18.6895 30.3193 18.6895 31.2069C18.6895 32.0951 19.4113 32.817 20.299 32.817C21.1866 32.817 21.9085 32.0951 21.9085 31.2069C21.9085 30.3193 21.1866 29.5974 20.299 29.5974Z" fill="#004254"/>
<path d="M26.672 14.4236C25.7844 14.4236 25.0625 15.146 25.0625 16.0341C25.0625 16.9218 25.7844 17.6437 26.672 17.6437C27.5602 17.6437 28.2826 16.9218 28.2826 16.0341C28.2826 15.146 27.5602 14.4236 26.672 14.4236Z" fill="#004254"/>
<path d="M42.0979 17.7623C42.5105 17.327 43.1456 16.6563 43.773 15.9948L43.5722 18.1574C43.5412 18.4863 43.7229 18.7982 44.0235 18.9345C44.1262 18.981 44.2347 19.0037 44.3431 19.0037C44.5507 19.0037 44.7557 18.92 44.9054 18.762L48.3166 15.1624C48.6109 14.8521 48.5985 14.362 48.2876 14.0677C47.9773 13.7734 47.4873 13.7847 47.1929 14.0966L45.3211 16.0712L45.5215 13.9092C45.5524 13.5803 45.3712 13.2689 45.0707 13.1321C44.7712 12.9963 44.4164 13.0644 44.1887 13.304C43.393 14.1426 41.768 15.8569 40.9728 16.6966C40.6784 17.0074 40.6919 17.4974 41.0027 17.7913C41.3136 18.0866 41.8036 18.0727 42.0979 17.7623Z" fill="#004254"/>
<path d="M7.72125 17.7588L5.47298 16.8252L7.56376 16.2407C7.88184 16.1519 8.10904 15.871 8.12866 15.5415C8.1488 15.2116 7.95775 14.9064 7.65257 14.7789L3.07186 12.8765C2.67684 12.7123 2.22347 12.9003 2.05926 13.2953C1.89557 13.6903 2.0825 14.1437 2.47804 14.3079L4.99069 15.3515L2.90043 15.936C2.58234 16.0248 2.35566 16.3052 2.33552 16.6352C2.31538 16.9646 2.50644 17.2703 2.8111 17.3974L7.12691 19.1902C7.22399 19.2305 7.32468 19.2491 7.42331 19.2491C7.72745 19.2491 8.01506 19.0694 8.13951 18.7714C8.30371 18.3759 8.11576 17.9225 7.72125 17.7588Z" fill="#004254"/>
</svg>
