<svg width="52" height="52" viewBox="0 0 52 52" fill="none" xmlns="http://www.w3.org/2000/svg">
<path d="M24.4001 2.00005C23.9582 2.00005 23.6 2.35823 23.6 2.80006V21.4787C23.6 21.8862 23.3937 22.2629 23.05 22.4819L20.2094 24.2912C20.3664 23.445 20.4264 22.607 20.3875 21.7974C20.3045 20.0695 19.7937 18.4674 18.8406 17.2177C17.8875 15.968 16.4738 15.093 14.7421 14.8677C11.3442 14.4255 8.11243 16.2033 5.7932 19.1505C3.47397 22.0978 1.99939 26.2442 1.99939 30.8003C1.99939 35.3564 3.47429 39.5028 5.7932 42.4501C8.11211 45.3973 11.3438 47.1751 14.7421 46.7329C18.1378 46.2911 20.2176 43.701 20.3875 40.6047C20.5313 37.9842 19.3702 35.022 16.9437 32.3998H19.6C20.9349 32.3998 22 33.4648 22 34.7998V49.2C22 49.6418 22.3582 50 22.8 50C23.2418 50 23.6 49.6418 23.6 49.2V34.7998C23.6 32.6001 21.7997 30.7997 19.6 30.7997H17.8062L25.4484 26.4356C25.791 26.24 26.209 26.24 26.5516 26.4356L34.1938 30.7997H32.4001C30.2003 30.7997 28.4 32.6001 28.4 34.7998V49.2C28.4 49.6418 28.7582 50 29.2 50C29.6418 50 30 49.6418 30 49.2V34.7998C30 33.4648 31.0651 32.3998 32.4001 32.3998H35.0563C32.6298 35.0219 31.4687 37.984 31.6125 40.6047C31.7825 43.701 33.8622 46.291 37.2579 46.7329C40.6558 47.1751 43.8876 45.3973 46.2068 42.4501C48.5257 39.5028 50.0006 35.3564 50.0006 30.8003C50.0006 26.2442 48.5257 22.0978 46.2068 19.1505C46.0079 18.8977 45.8005 18.6564 45.588 18.4224C48.2222 16.8996 50.0006 14.0542 50.0006 10.8004C50.0006 5.94974 46.0512 2.00032 41.2005 2.00032C36.3498 2.00032 32.4003 5.94974 32.4003 10.8004C32.4003 12.8094 33.0793 14.6626 34.2176 16.1458C33.8221 16.4602 33.4651 16.8173 33.1597 17.2177C32.2066 18.4674 31.6958 20.0695 31.6128 21.7974C31.5739 22.6069 31.6339 23.4449 31.7909 24.2912L28.9503 22.4818C28.6066 22.2628 28.4003 21.8862 28.4003 21.4787V2.80001C28.4003 2.35818 28.0421 2 27.6002 2C27.1584 2 26.8002 2.35818 26.8002 2.80001V21.4787C26.8002 22.4308 27.2879 23.3202 28.0909 23.8318L32.4737 26.624C32.7277 27.2595 33.0376 27.889 33.4034 28.5053L27.344 25.0474C26.9279 24.8099 26.4641 24.6912 26.0002 24.6912C25.5364 24.6912 25.0725 24.8099 24.6564 25.0474L18.597 28.5053C18.9628 27.889 19.2728 27.2596 19.5267 26.624L23.9096 23.8318C24.7125 23.3202 25.2002 22.4308 25.2002 21.4787V2.80001C25.2002 2.35818 24.8419 2.00005 24.4001 2.00005ZM41.2003 3.60007C45.1863 3.60007 48.4004 6.8142 48.4004 10.8002C48.4004 14.7861 45.1863 18.0003 41.2003 18.0003C37.2143 18.0003 34.0002 14.7861 34.0002 10.8002C34.0002 6.8142 37.2143 3.60007 41.2003 3.60007ZM41.1425 5.22825C39.8267 5.22825 38.7424 6.31251 38.7424 7.62829V8.4283H37.9424C36.6266 8.4283 35.5424 9.51255 35.5424 10.8283C35.5424 12.1441 36.6266 13.2284 37.9424 13.2284H38.7424V14.0284C38.7424 15.3442 39.8267 16.4284 41.1425 16.4284C42.4582 16.4284 43.5425 15.3442 43.5425 14.0284V13.2284H44.3425C45.6583 13.2284 46.7425 12.1441 46.7425 10.8283C46.7425 9.51255 45.6583 8.4283 44.3425 8.4283H43.5425V7.62829C43.5425 6.31251 42.4582 5.22825 41.1425 5.22825ZM41.1425 6.82828C41.5995 6.82828 41.9425 7.17124 41.9425 7.62829V9.22831C41.9425 9.67012 42.3007 10.0283 42.7425 10.0283H44.3425C44.7996 10.0283 45.1425 10.3713 45.1425 10.8283C45.1425 11.2854 44.7996 11.6283 44.3425 11.6283H42.7425C42.3007 11.6284 41.9425 11.9865 41.9425 12.4284V14.0284C41.9425 14.4854 41.5995 14.8284 41.1425 14.8284C40.6854 14.8284 40.3425 14.4854 40.3425 14.0284V12.4284C40.3424 11.9865 39.9843 11.6284 39.5424 11.6283H37.9424C37.4854 11.6283 37.1424 11.2854 37.1424 10.8283C37.1424 10.3713 37.4854 10.0283 37.9424 10.0283H39.5424C39.9843 10.0283 40.3424 9.67012 40.3425 9.22831V7.62829C40.3425 7.17124 40.6854 6.82828 41.1425 6.82828ZM14.5357 16.4532C15.8659 16.6263 16.8505 17.246 17.5685 18.1876C18.2867 19.1292 18.7188 20.4142 18.7889 21.8736C18.9291 24.7924 17.6097 28.3578 14.5279 30.9897C14.1548 31.3091 14.1548 31.8861 14.5279 32.2054C17.6382 34.8614 18.9266 38.0365 18.7904 40.5183C18.6542 42.9997 17.2636 44.793 14.5356 45.148C11.8099 45.5027 9.12082 44.0926 7.05112 41.462C4.98141 38.8315 3.59947 35.0096 3.59947 30.8011C3.59947 26.5926 4.98133 22.7706 7.05112 20.1401C8.78282 17.9359 11.2872 16.0704 14.5356 16.4542L14.5357 16.4532ZM35.3 17.3219C36.8623 18.7369 38.9323 19.6001 41.2001 19.6001C42.1985 19.6001 43.1578 19.4301 44.0532 19.122C44.3623 19.4375 44.6619 19.7749 44.9485 20.1392C47.0182 22.7697 48.4002 26.5916 48.4002 30.8002C48.4002 35.0087 47.0183 38.8307 44.9485 41.4611C42.8787 44.0916 40.1897 45.5018 37.464 45.1471C34.7361 44.7921 33.3455 42.9988 33.2092 40.5173C33.073 38.0359 34.3614 34.8608 37.4718 32.2044C37.8448 31.8851 37.8448 31.3081 37.4718 30.9888C34.3901 28.3572 33.0706 24.7918 33.2108 21.8727C33.2809 20.4133 33.713 19.1283 34.4311 18.1867C34.6845 17.8544 34.9765 17.5675 35.2998 17.3211L35.3 17.3219Z" fill="#004254"/>
</svg>
