<svg xmlns="http://www.w3.org/2000/svg" xmlns:xlink="http://www.w3.org/1999/xlink" width="56" zoomAndPan="magnify" viewBox="0 0 42 42" height="56" preserveAspectRatio="xMidYMid meet" version="1.0"><defs><clipPath id="e30e9c1513"><path d="M 1.367188 0.878906 L 40.925781 0.878906 L 40.925781 40.4375 L 1.367188 40.4375 Z M 1.367188 0.878906 " clip-rule="nonzero"/></clipPath></defs><path fill="#004254" d="M 18.175781 21.277344 C 17.226562 21.277344 16.328125 20.910156 15.65625 20.238281 C 14.265625 18.847656 14.265625 16.589844 15.65625 15.199219 C 17.046875 13.808594 19.304688 13.808594 20.695312 15.199219 C 22.085938 16.589844 22.085938 18.847656 20.695312 20.238281 C 20.023438 20.910156 19.132812 21.277344 18.175781 21.277344 Z M 16.089844 15.617188 C 14.9375 16.769531 14.9375 18.652344 16.089844 19.804688 C 16.644531 20.363281 17.390625 20.671875 18.183594 20.671875 C 18.976562 20.671875 19.722656 20.363281 20.277344 19.804688 C 21.429688 18.652344 21.429688 16.769531 20.277344 15.617188 C 19.117188 14.464844 17.234375 14.464844 16.089844 15.617188 Z M 16.089844 15.617188 " fill-opacity="1" fill-rule="nonzero"/><path fill="#004254" d="M 19.027344 18.867188 C 18.945312 18.867188 18.871094 18.832031 18.8125 18.773438 L 17.121094 17.082031 C 17.007812 16.96875 17.007812 16.769531 17.121094 16.65625 C 17.234375 16.542969 17.429688 16.542969 17.546875 16.65625 L 19.238281 18.351562 C 19.355469 18.464844 19.355469 18.660156 19.238281 18.773438 C 19.183594 18.832031 19.101562 18.867188 19.027344 18.867188 Z M 19.027344 18.867188 " fill-opacity="1" fill-rule="nonzero"/><path fill="#004254" d="M 17.324219 18.867188 C 17.242188 18.867188 17.167969 18.832031 17.113281 18.773438 C 16.996094 18.660156 16.996094 18.464844 17.113281 18.351562 L 18.804688 16.65625 C 18.921875 16.542969 19.117188 16.542969 19.230469 16.65625 C 19.34375 16.769531 19.34375 16.96875 19.230469 17.082031 L 17.539062 18.773438 C 17.488281 18.832031 17.40625 18.867188 17.324219 18.867188 Z M 17.324219 18.867188 " fill-opacity="1" fill-rule="nonzero"/><path fill="#004254" d="M 15.214844 16.648438 C 15.132812 16.648438 15.058594 16.617188 15.003906 16.558594 L 12.828125 14.382812 C 12.710938 14.269531 12.710938 14.070312 12.828125 13.957031 L 14.421875 12.363281 C 14.535156 12.25 14.730469 12.25 14.847656 12.363281 L 17.023438 14.539062 C 17.089844 14.605469 17.121094 14.703125 17.105469 14.808594 C 17.089844 14.90625 17.023438 14.988281 16.933594 15.027344 C 16.621094 15.175781 16.328125 15.371094 16.082031 15.625 C 15.828125 15.878906 15.632812 16.15625 15.484375 16.476562 C 15.445312 16.566406 15.363281 16.632812 15.265625 16.648438 C 15.246094 16.648438 15.230469 16.648438 15.214844 16.648438 Z M 13.464844 14.171875 L 15.140625 15.847656 C 15.289062 15.609375 15.460938 15.390625 15.65625 15.199219 C 15.851562 15.003906 16.074219 14.832031 16.304688 14.6875 L 14.625 13.007812 Z M 13.464844 14.171875 " fill-opacity="1" fill-rule="nonzero"/><path fill="#004254" d="M 22.976562 23.945312 C 22.609375 23.945312 22.242188 23.804688 21.960938 23.527344 L 19.328125 20.894531 C 19.265625 20.828125 19.230469 20.730469 19.246094 20.625 C 19.265625 20.527344 19.328125 20.445312 19.417969 20.402344 C 19.730469 20.253906 20.023438 20.058594 20.269531 19.804688 C 20.523438 19.550781 20.71875 19.273438 20.867188 18.957031 C 20.90625 18.867188 20.988281 18.800781 21.085938 18.785156 C 21.1875 18.765625 21.285156 18.800781 21.359375 18.867188 L 23.992188 21.5 C 24.261719 21.769531 24.410156 22.128906 24.410156 22.511719 C 24.410156 22.898438 24.261719 23.257812 23.992188 23.527344 C 23.714844 23.804688 23.34375 23.945312 22.976562 23.945312 Z M 20.050781 20.746094 L 22.394531 23.09375 C 22.714844 23.414062 23.246094 23.414062 23.566406 23.09375 C 23.722656 22.9375 23.804688 22.734375 23.804688 22.511719 C 23.804688 22.292969 23.722656 22.089844 23.566406 21.933594 L 21.21875 19.585938 C 21.070312 19.824219 20.898438 20.042969 20.703125 20.230469 C 20.5 20.425781 20.277344 20.609375 20.050781 20.746094 Z M 20.050781 20.746094 " fill-opacity="1" fill-rule="nonzero"/><path fill="#004254" d="M 32.316406 32.15625 C 32.234375 32.15625 32.164062 32.125 32.105469 32.066406 L 23.558594 23.527344 C 23.441406 23.414062 23.441406 23.214844 23.558594 23.101562 C 23.671875 22.988281 23.867188 22.988281 23.984375 23.101562 L 32.523438 31.640625 C 32.636719 31.753906 32.636719 31.953125 32.523438 32.066406 C 32.472656 32.125 32.390625 32.15625 32.316406 32.15625 Z M 32.316406 32.15625 " fill-opacity="1" fill-rule="nonzero"/><path fill="#004254" d="M 12.105469 15.265625 C 11.941406 15.265625 11.78125 15.199219 11.65625 15.078125 L 9.585938 13.007812 C 9.464844 12.886719 9.398438 12.722656 9.398438 12.558594 C 9.398438 12.394531 9.464844 12.230469 9.585938 12.109375 L 12.574219 9.125 C 12.695312 9 12.859375 8.9375 13.023438 8.9375 C 13.1875 8.9375 13.351562 9 13.472656 9.125 L 15.542969 11.191406 C 15.789062 11.4375 15.789062 11.847656 15.542969 12.09375 L 12.558594 15.078125 C 12.433594 15.199219 12.269531 15.265625 12.105469 15.265625 Z M 13.023438 9.539062 C 13.015625 9.539062 13.007812 9.539062 13 9.550781 L 10.011719 12.535156 C 10.003906 12.542969 10.003906 12.550781 10.003906 12.558594 C 10.003906 12.566406 10.003906 12.574219 10.011719 12.582031 L 12.082031 14.652344 C 12.089844 14.660156 12.113281 14.660156 12.132812 14.652344 L 15.117188 11.667969 C 15.125 11.660156 15.125 11.636719 15.117188 11.617188 L 13.046875 9.550781 C 13.039062 9.539062 13.03125 9.539062 13.023438 9.539062 Z M 13.023438 9.539062 " fill-opacity="1" fill-rule="nonzero"/><path fill="#004254" d="M 17.488281 26.800781 C 17.242188 26.800781 17.007812 26.699219 16.835938 26.527344 L 14.191406 23.886719 C 14.019531 23.714844 13.921875 23.476562 13.921875 23.234375 C 13.921875 22.988281 14.019531 22.75 14.191406 22.578125 L 16.402344 20.371094 C 16.5 20.273438 16.636719 20.253906 16.761719 20.320312 C 17.578125 20.769531 18.578125 20.8125 19.425781 20.417969 C 19.542969 20.371094 19.679688 20.394531 19.769531 20.484375 L 21.773438 22.488281 C 21.832031 22.546875 21.863281 22.621094 21.863281 22.703125 C 21.863281 22.78125 21.832031 22.855469 21.773438 22.914062 L 18.136719 26.527344 C 17.964844 26.691406 17.734375 26.800781 17.488281 26.800781 Z M 16.671875 20.941406 L 14.609375 22.996094 C 14.542969 23.0625 14.511719 23.136719 14.511719 23.226562 C 14.511719 23.316406 14.542969 23.386719 14.609375 23.453125 L 17.25 26.097656 C 17.316406 26.160156 17.390625 26.195312 17.480469 26.195312 C 17.570312 26.195312 17.644531 26.160156 17.710938 26.097656 L 21.121094 22.683594 L 19.476562 21.039062 C 18.570312 21.394531 17.546875 21.351562 16.671875 20.941406 Z M 14.398438 22.78125 Z M 23.140625 21.394531 C 23.058594 21.394531 22.984375 21.359375 22.929688 21.300781 L 21.078125 19.445312 C 20.996094 19.4375 20.914062 19.398438 20.867188 19.324219 C 20.785156 19.207031 20.808594 19.101562 20.84375 19.027344 L 20.867188 18.980469 L 20.867188 18.972656 C 20.867188 18.972656 20.867188 18.964844 20.875 18.964844 L 20.875 18.957031 C 21.269531 18.105469 21.234375 17.105469 20.777344 16.289062 C 20.710938 16.175781 20.734375 16.027344 20.824219 15.929688 L 23.035156 13.71875 C 23.207031 13.546875 23.441406 13.449219 23.6875 13.449219 C 23.933594 13.449219 24.171875 13.546875 24.34375 13.71875 L 26.984375 16.363281 C 27.15625 16.535156 27.253906 16.769531 27.253906 17.015625 C 27.253906 17.261719 27.15625 17.5 26.984375 17.671875 L 23.351562 21.300781 C 23.304688 21.359375 23.222656 21.394531 23.140625 21.394531 Z M 21.496094 19.011719 L 23.148438 20.664062 L 26.558594 17.253906 C 26.625 17.1875 26.65625 17.113281 26.65625 17.023438 C 26.65625 16.933594 26.625 16.863281 26.558594 16.796875 L 23.917969 14.152344 C 23.851562 14.089844 23.777344 14.054688 23.6875 14.054688 C 23.597656 14.054688 23.523438 14.089844 23.460938 14.152344 L 21.40625 16.214844 C 21.816406 17.082031 21.847656 18.105469 21.496094 19.011719 Z M 21.496094 19.011719 " fill-opacity="1" fill-rule="nonzero"/><path fill="#004254" d="M 29.382812 31.183594 C 29.300781 31.183594 29.226562 31.152344 29.167969 31.09375 C 29.054688 30.980469 29.054688 30.78125 29.167969 30.667969 L 31.140625 28.695312 C 31.253906 28.582031 31.449219 28.582031 31.566406 28.695312 C 31.679688 28.8125 31.679688 29.007812 31.566406 29.121094 L 29.585938 31.09375 C 29.527344 31.152344 29.457031 31.183594 29.382812 31.183594 Z M 29.382812 31.183594 " fill-opacity="1" fill-rule="nonzero"/><path fill="#004254" d="M 27.753906 29.554688 C 27.671875 29.554688 27.597656 29.523438 27.542969 29.464844 C 27.425781 29.351562 27.425781 29.15625 27.542969 29.039062 L 29.511719 27.070312 C 29.625 26.953125 29.824219 26.953125 29.9375 27.070312 C 30.050781 27.183594 30.050781 27.378906 29.9375 27.496094 L 27.964844 29.464844 C 27.902344 29.523438 27.828125 29.554688 27.753906 29.554688 Z M 27.753906 29.554688 " fill-opacity="1" fill-rule="nonzero"/><path fill="#004254" d="M 26.125 27.929688 C 26.042969 27.929688 25.972656 27.894531 25.914062 27.839844 C 25.800781 27.722656 25.800781 27.527344 25.914062 27.414062 L 27.882812 25.441406 C 28 25.328125 28.195312 25.328125 28.308594 25.441406 C 28.425781 25.554688 28.425781 25.753906 28.308594 25.867188 L 26.347656 27.839844 C 26.273438 27.894531 26.199219 27.929688 26.125 27.929688 Z M 26.125 27.929688 " fill-opacity="1" fill-rule="nonzero"/><path fill="#004254" d="M 24.5 26.300781 C 24.417969 26.300781 24.34375 26.265625 24.285156 26.210938 C 24.171875 26.097656 24.171875 25.898438 24.285156 25.785156 L 26.257812 23.8125 C 26.371094 23.699219 26.566406 23.699219 26.683594 23.8125 C 26.796875 23.929688 26.796875 24.125 26.683594 24.238281 L 24.710938 26.210938 C 24.652344 26.277344 24.570312 26.300781 24.5 26.300781 Z M 24.5 26.300781 " fill-opacity="1" fill-rule="nonzero"/><g clip-path="url(#e30e9c1513)"><path fill="#004254" d="M 20.996094 40.140625 C 18.355469 40.140625 15.789062 39.617188 13.359375 38.59375 C 11.019531 37.605469 8.917969 36.1875 7.117188 34.390625 C 5.308594 32.574219 3.894531 30.480469 2.914062 28.148438 C 1.890625 25.734375 1.367188 23.167969 1.367188 20.507812 C 1.367188 17.867188 1.890625 15.300781 2.914062 12.871094 C 3.910156 10.515625 5.328125 8.414062 7.117188 6.628906 C 8.933594 4.820312 11.027344 3.40625 13.359375 2.425781 C 15.769531 1.402344 18.339844 0.878906 20.996094 0.878906 C 23.640625 0.878906 26.207031 1.402344 28.636719 2.425781 C 30.976562 3.414062 33.078125 4.828125 34.878906 6.628906 C 36.6875 8.445312 38.101562 10.539062 39.082031 12.871094 C 40.105469 15.300781 40.628906 17.867188 40.628906 20.507812 C 40.628906 23.152344 40.105469 25.71875 39.082031 28.148438 C 38.09375 30.488281 36.675781 32.589844 34.878906 34.390625 C 33.0625 36.195312 30.96875 37.613281 28.636719 38.59375 C 26.222656 39.617188 23.65625 40.140625 20.996094 40.140625 Z M 20.988281 1.605469 C 10.570312 1.605469 2.085938 10.089844 2.085938 20.507812 C 2.085938 30.929688 10.570312 39.410156 20.988281 39.410156 C 31.410156 39.410156 39.890625 30.929688 39.890625 20.507812 C 39.890625 10.089844 31.410156 1.605469 20.988281 1.605469 Z M 20.988281 1.605469 " fill-opacity="1" fill-rule="nonzero"/></g></svg>