<svg width="52" height="52" viewBox="0 0 52 52" fill="none" xmlns="http://www.w3.org/2000/svg">
<path d="M39.6875 18.8984H31.0325C29.2625 18.8984 27.53 19.3559 26 20.2184C24.5075 19.3784 22.7975 18.8984 20.9675 18.8984H12.3125C6.6275 18.8984 2 23.5259 2 29.2109V49.4309C2 49.7459 2.255 49.9934 2.5625 49.9934C2.87 49.9934 3.125 49.7384 3.125 49.4309V29.2109C3.125 24.1484 7.25 20.0234 12.3125 20.0234H20.9675C26.03 20.0234 30.155 24.1484 30.155 29.2109V32.8034H23.7125C20.99 27.7409 17.6825 27.1184 15.3425 27.1484C12.74 27.1709 10.6325 29.2934 10.6325 31.8734C10.6325 32.3984 10.73 32.9009 10.895 33.3734C10.28 34.2359 9.1625 34.6784 8.5175 34.8659C7.925 35.0384 7.52 35.5784 7.52 36.1859V36.9209C7.52 37.6634 8.1275 38.2784 8.8775 38.2934C8.96 38.2934 10.5125 38.2559 11.3225 38.1359C9.7775 39.3884 8.9075 41.4059 8.675 44.2109C8.6225 44.8559 9.02 45.4484 9.62 45.6284C9.845 45.6959 10.0625 45.7259 10.28 45.7259C10.4825 45.7259 10.685 45.6959 10.88 45.6359C11.63 47.8709 14.18 50.0009 17.3225 50.0009C19.0325 50.0009 20.8175 49.2359 21.92 48.5234C25.1825 46.4084 26.3675 42.8534 25.4825 37.9259H30.17V49.4384C30.17 49.7459 30.425 50.0009 30.7325 50.0009C31.04 50.0009 31.295 49.7459 31.295 49.4384V37.9184H35.8625C35.9675 37.9184 36.05 38.0009 36.05 38.1059V39.8834C36.05 40.2659 36.275 40.6034 36.6275 40.7459C36.7475 40.7909 36.8675 40.8209 36.9875 40.8209C37.2275 40.8209 37.4675 40.7234 37.6475 40.5434L41.915 36.2909C42.1625 36.0434 42.2975 35.7134 42.2975 35.3609C42.2975 35.0084 42.1625 34.6784 41.915 34.4309L37.6475 30.1784C37.3775 29.9084 36.98 29.8334 36.6275 29.9759C36.275 30.1184 36.05 30.4634 36.05 30.8384V32.6159C36.05 32.7209 35.9675 32.8034 35.8625 32.8034H31.295V29.2109C31.295 25.8134 29.6375 22.8059 27.095 20.9234C28.325 20.3384 29.675 20.0234 31.0475 20.0234H39.7025C44.765 20.0234 48.89 24.1484 48.89 29.2109V49.4309C48.89 49.7384 49.145 49.9934 49.4525 49.9934C49.76 49.9934 50 49.7459 50 49.4309V29.2109C50 23.5259 45.3725 18.8984 39.6875 18.8984ZM8.885 37.1609C8.75 37.1609 8.6375 37.0484 8.6375 36.9134V36.1784C8.6375 36.0659 8.7125 35.9684 8.825 35.9384C9.5075 35.7434 10.6175 35.3009 11.435 34.4684C11.975 35.2709 12.7475 35.9009 13.655 36.2534C12.0125 37.0934 9.8675 37.1834 8.885 37.1609ZM9.92 44.5409C9.8375 44.5184 9.77 44.4059 9.785 44.3009C10.085 40.6709 11.5025 38.6384 14.225 37.9484C14.255 38.6159 14.39 39.2534 14.615 39.8234C12.275 40.5959 10.64 42.3209 10.64 44.3309C10.64 44.3909 10.6475 44.4509 10.655 44.5184C10.415 44.6084 10.1825 44.6159 9.92 44.5409ZM21.29 47.5709C20.3225 48.2009 18.77 48.8684 17.3075 48.8684C14.42 48.8684 12.065 46.6784 11.7875 44.7134C11.7725 44.5859 11.7575 44.4584 11.7575 44.3309C11.7575 42.7559 13.16 41.4059 15.155 40.8209C15.56 41.3909 16.07 41.8559 16.6775 42.1484C17.1575 42.3809 17.6225 42.7409 18.0425 43.2209C18.155 43.3484 18.305 43.4084 18.4625 43.4084C18.5975 43.4084 18.725 43.3634 18.8375 43.2659C19.07 43.0634 19.0925 42.7034 18.8825 42.4709C18.365 41.8859 17.7875 41.4359 17.1725 41.1359C16.07 40.6034 15.3275 39.2084 15.3275 37.6709C15.3275 36.1409 16.07 34.7534 17.1725 34.2209C17.7875 33.9209 18.365 33.4709 18.8825 32.8859C19.085 32.6534 19.07 32.3009 18.8375 32.0909C18.605 31.8809 18.2525 31.9034 18.0425 32.1359C17.6225 32.6084 17.165 32.9684 16.6775 33.2084C15.8075 33.6359 15.1175 34.4084 14.69 35.3609C13.025 35.0459 11.7575 33.6134 11.7575 31.8584C11.7575 29.8559 13.34 28.2734 15.3575 28.2584C17.9075 28.2509 21.1475 29.0384 23.7275 35.4809C25.5125 41.3909 24.7175 45.3434 21.29 47.5709ZM37.16 32.6159V31.2959L41.105 35.2334C41.15 35.2784 41.1575 35.3384 41.1575 35.3684C41.1575 35.3984 41.15 35.4509 41.105 35.5034L37.16 39.4409V38.1209C37.16 37.4009 36.5675 36.8084 35.8475 36.8084H25.235C25.1075 36.2609 24.965 35.7059 24.7925 35.1284C24.6275 34.7084 24.455 34.3184 24.2825 33.9434H35.8475C36.5675 33.9284 37.16 33.3359 37.16 32.6159Z" fill="#004254"/>
<path d="M29.555 11.4134C29.555 14.4284 32.0375 17.8109 35.36 17.8109C38.675 17.8109 41.15 14.4359 41.15 11.4134C41.15 11.1884 41.12 10.9709 41.0975 10.7459C41.6825 10.1084 43.4375 8.01591 43.07 6.05091C42.8675 4.99341 42.11 4.17591 40.8125 3.62091C36.7475 1.88091 33.8825 1.54341 32.2925 2.61591C31.565 3.11091 31.2875 3.77841 31.1825 4.24341C30.665 4.33341 29.8775 4.59591 29.345 5.36841C28.565 6.50091 28.655 8.27841 29.6075 10.6334C29.585 10.8884 29.555 11.1509 29.555 11.4134ZM35.36 16.6859C32.6825 16.6859 30.68 13.9034 30.68 11.4134C30.68 11.1509 30.7025 10.8884 30.7475 10.6334C30.86 10.0784 31.34 8.51091 32.1425 8.24091C32.7875 8.02341 33.17 7.66341 33.395 7.31841C33.9875 7.79841 35.0375 8.33841 36.8675 8.58591C39.1625 8.89341 39.875 10.4384 39.9725 10.6859C40.01 10.9259 40.0325 11.1734 40.0325 11.4209C40.0325 13.9034 38.03 16.6859 35.36 16.6859ZM30.275 6.01341C30.7475 5.31591 31.64 5.32341 31.67 5.32341C31.8275 5.33091 31.97 5.27091 32.0825 5.15841C32.195 5.05341 32.255 4.90341 32.255 4.74591C32.255 4.71591 32.255 3.99591 32.9525 3.53091C33.6575 3.06591 35.5625 2.58591 40.3775 4.64841C41.3225 5.05341 41.84 5.57841 41.975 6.26091C42.185 7.36341 41.3225 8.73591 40.64 9.57591C40.1225 8.81841 39.0425 7.73841 37.0175 7.46841C34.7975 7.16841 34.025 6.43341 33.7925 6.12591C33.665 5.95341 33.455 5.85591 33.245 5.85591C33.2 5.85591 33.1475 5.86341 33.1025 5.87091C32.8475 5.93091 32.645 6.13341 32.585 6.38841C32.5025 6.76341 32.2325 7.02591 31.79 7.17591C31.04 7.43091 30.5225 8.12841 30.1925 8.81841C29.765 7.27341 29.975 6.44841 30.275 6.01341Z" fill="#004254"/>
<path d="M11 11.3458C11 14.3608 13.4825 17.7433 16.805 17.7433C20.12 17.7433 22.595 14.3683 22.595 11.3458C22.595 11.0758 22.565 10.8058 22.5275 10.5433C23.1875 8.50335 23.4875 4.42335 20.0825 2.87835C17.99 1.92585 16.205 1.74585 14.7725 2.34585C13.5725 2.84835 12.965 3.76335 12.725 4.22085C12.2375 4.38585 11.255 4.83585 10.7075 5.91585C10.1 7.11585 10.22 8.68335 11.0525 10.5733C11.03 10.8283 11 11.0833 11 11.3458ZM16.8125 16.6108C14.135 16.6108 12.1325 13.8283 12.1325 11.3383C12.1325 11.0758 12.155 10.8133 12.2 10.5583C12.3125 10.0033 12.7925 8.43585 13.595 8.16585C14.24 7.94835 14.6225 7.58835 14.8475 7.24335C15.44 7.72335 16.49 8.26335 18.32 8.51085C20.615 8.81835 21.3275 10.3633 21.425 10.6108C21.4625 10.8583 21.485 11.0983 21.485 11.3458C21.4775 13.8283 19.4825 16.6108 16.8125 16.6108ZM11.7125 6.43335C12.1925 5.47335 13.235 5.23335 13.2425 5.23335C13.4375 5.19585 13.595 5.06085 13.655 4.87335C13.655 4.86585 14.06 3.85335 15.2 3.37335C16.3325 2.90085 17.8175 3.07335 19.61 3.89085C21.9575 4.96335 21.9575 7.50585 21.71 9.04335C21.11 8.36085 20.09 7.61085 18.44 7.39335C16.22 7.09335 15.4475 6.35835 15.215 6.05085C15.0875 5.87835 14.8775 5.78085 14.6675 5.78085C14.6225 5.78085 14.57 5.78835 14.525 5.79585C14.27 5.85585 14.0675 6.05835 14.0075 6.31335C13.925 6.68835 13.655 6.95085 13.2125 7.10085C12.4475 7.35585 11.93 8.07585 11.6 8.77335C11.375 7.82835 11.405 7.04835 11.7125 6.43335Z" fill="#004254"/>
</svg>
