<svg width="52" height="52" viewBox="0 0 52 52" fill="none" xmlns="http://www.w3.org/2000/svg">
<path d="M35.3215 28.3446C35.3215 27.6168 34.2224 27.6168 34.2224 28.3446V42.1812H33.3271L33.325 28.3446C33.325 27.6168 32.2258 27.6168 32.2258 28.3446V42.1812H6.17387C5.06182 42.1812 4.15796 43.085 4.15796 44.1971V45.4251C4.15796 45.7278 4.40485 45.9747 4.70755 45.9747H6.50446V46.5694C5.84324 46.8291 5.37092 47.4689 5.37092 48.2224C5.37092 50.1052 7.95357 50.7063 8.76082 48.9653C9.56587 50.7021 12.1507 50.1117 12.1507 48.2224C12.1507 47.3079 11.453 46.5587 10.5621 46.462V45.9747H28.6514L28.7717 46.6724C27.1508 47.5741 27.8184 50 29.6304 50C30.6115 50 31.4102 49.2014 31.4102 48.2203C31.4102 47.3165 30.7274 46.5736 29.8537 46.4642L29.77 45.9747H33.3509L33.4711 46.6724C31.8481 47.5741 32.5158 50 34.3256 50C35.3067 50 36.1054 49.2014 36.1054 48.2203C36.1054 47.3165 35.4248 46.5758 34.5489 46.4642L34.4652 45.9747H36.1225C36.4252 45.9747 36.6721 45.7278 36.6721 45.4251V44.1971C36.6721 43.3211 36.1054 42.5805 35.3239 42.3035V39.9377H40.0255V41.4448C40.0255 42.5655 39.3901 43.5938 38.3639 44.1262C37.7262 44.459 38.2179 45.4379 38.8706 45.1009C40.2595 44.3774 41.1226 42.9755 41.1226 41.4427V39.9356H43.4369V40.395C43.4369 41.696 44.4953 42.7544 45.7963 42.7544H46.7581C48.0591 42.7544 49.1175 41.696 49.1175 40.395V32.9689C49.1175 32.6662 48.8706 32.4193 48.5679 32.4193H43.9866C43.6839 32.4193 43.437 32.6662 43.437 32.9689V38.8385H41.1227V22.9948C41.1227 22.267 40.0235 22.267 40.0235 22.9948V38.8385H35.3219L35.3215 28.3446ZM30.3086 48.2201C30.3086 48.5958 30.0038 48.9007 29.6281 48.9007C29.2524 48.9007 28.9475 48.5958 28.9475 48.2201C28.9475 47.8444 29.2524 47.5396 29.6281 47.5396C30.0038 47.5396 30.3086 47.8466 30.3086 48.2201ZM35.006 48.2201C35.006 48.5958 34.7011 48.9007 34.3254 48.9007C33.9497 48.9007 33.6448 48.5958 33.6448 48.2201C33.6448 47.8444 33.9497 47.5396 34.3254 47.5396C34.7011 47.5396 35.006 47.8466 35.006 48.2201ZM44.5359 33.5185H48.0181V40.3972C48.0181 41.0928 47.4535 41.6574 46.7579 41.6574H45.7961C45.1005 41.6574 44.5359 41.0928 44.5359 40.3972L44.5359 33.5185ZM7.15084 48.9005C6.77514 48.9005 6.47027 48.5957 6.47027 48.22C6.47027 47.8443 6.77513 47.5394 7.15084 47.5394C7.52655 47.5394 7.8314 47.8443 7.8314 48.22C7.82925 48.5957 7.5244 48.9005 7.15084 48.9005ZM11.0517 48.22C11.0517 48.5957 10.7468 48.9005 10.3711 48.9005C9.99543 48.9005 9.69057 48.5957 9.69057 48.22C9.69057 47.8443 9.99543 47.5394 10.3711 47.5394C10.7468 47.5394 11.0517 47.8464 11.0517 48.22ZM9.46304 46.7C9.15818 46.8825 8.9113 47.153 8.76104 47.4772C8.53992 47.0027 8.11911 46.6442 7.60387 46.5068V45.9723H9.46304V46.7ZM35.571 44.8752H5.25754V44.1968C5.25754 43.6923 5.66758 43.28 6.17426 43.28H34.6543C35.1588 43.28 35.571 43.6901 35.571 44.1968V44.8752Z" fill="#004254"/>
<path d="M32.3181 11.9057C27.8312 11.9057 12.7949 11.9057 9.1126 11.9036C8.00054 11.9036 7.09668 12.8074 7.09668 13.9195V38.2281C7.09668 39.3401 8.00049 40.244 9.1126 40.244H11.1822V41.1564C11.1822 41.8842 12.2813 41.8842 12.2813 41.1564V40.244H19.7119V41.1564C19.7119 41.8842 20.8111 41.8842 20.8111 41.1564V40.244H22.3611C23.4731 40.244 24.377 39.3402 24.377 38.2281L24.3748 34.9821C24.742 35.712 25.4139 36.6416 26.219 36.502C29.2289 36.0447 29.3598 30.5702 29.3212 28.7604C30.2701 28.4727 30.9678 27.6011 30.9678 26.5599C30.9678 25.2868 29.9309 24.2499 28.6578 24.2499C27.6574 24.2499 26.8115 24.8918 26.4917 25.7849H25.8927C25.1649 25.7849 25.1649 26.8841 25.8927 26.8841H26.3801C26.5196 27.8588 27.2603 28.6402 28.2199 28.827C28.2521 30.8601 27.9408 35.0402 26.1031 35.4095C25.97 35.3559 25.0533 34.8599 24.3749 31.1695C24.2869 13.14 24.5832 13.8573 24.1452 13.007H29.9956C31.2258 13.007 32.2262 13.9925 32.2262 15.2054V21.2746C32.2262 22.0024 33.3254 22.0024 33.3254 21.2746V15.2054C33.3254 14.366 32.9969 13.606 32.471 13.022C33.4478 13.1015 34.2207 13.898 34.2207 14.8769V21.2726C34.2207 22.0003 35.3198 22.0003 35.3198 21.2726V14.8769C35.322 13.2389 33.9734 11.9057 32.3181 11.9057ZM27.4469 26.5579C27.4469 25.8903 27.9901 25.3471 28.6577 25.3471C29.3254 25.3471 29.8685 25.8903 29.8685 26.5579C29.8685 27.1591 29.4263 27.655 28.8531 27.7494C28.7049 27.7215 28.7328 27.7237 28.5997 27.7623C27.9578 27.7323 27.4469 27.2063 27.4469 26.5579ZM23.2756 38.2258C23.2756 38.7303 22.8656 39.1425 22.3589 39.1425H9.11254C8.60803 39.1425 8.19582 38.7325 8.19582 38.2258V13.9172C8.19582 13.4127 8.60586 13.0005 9.11254 13.0005H22.3589C22.8634 13.0005 23.2756 13.4106 23.2756 13.9172V38.2258Z" fill="#004254"/>
<path d="M11.3174 31.73C12.2449 31.73 13.0005 30.9743 13.0005 30.0469C13.0005 29.1173 12.2449 28.3638 11.3174 28.3638C10.39 28.3638 9.63428 29.1195 9.63428 30.0469C9.63428 30.9743 10.39 31.73 11.3174 31.73ZM11.3174 29.4608C11.6394 29.4608 11.9014 29.7227 11.9014 30.0448C11.9014 30.3668 11.6394 30.6287 11.3174 30.6287C10.9954 30.6287 10.7335 30.3668 10.7335 30.0448C10.7335 29.7227 10.9954 29.4608 11.3174 29.4608Z" fill="#004254"/>
<path d="M17.4722 30.0467C17.4722 29.1192 16.7165 28.3635 15.7891 28.3635C14.8595 28.3635 14.106 29.1192 14.106 30.0467C14.106 30.9741 14.8617 31.7298 15.7891 31.7298C16.7165 31.7298 17.4722 30.9741 17.4722 30.0467ZM15.7891 30.6306C15.4671 30.6306 15.2051 30.3687 15.2051 30.0467C15.2051 29.7246 15.4671 29.4627 15.7891 29.4627C16.1111 29.4627 16.373 29.7246 16.373 30.0467C16.373 30.3687 16.1111 30.6306 15.7891 30.6306Z" fill="#004254"/>
<path d="M20.2617 28.3616C19.3343 28.3616 18.5786 29.1173 18.5786 30.0447C18.5786 30.9721 19.3343 31.7278 20.2617 31.7278C21.1913 31.7278 21.9449 30.9721 21.9449 30.0447C21.9449 29.1173 21.1892 28.3616 20.2617 28.3616ZM20.2617 30.6308C19.9397 30.6308 19.6778 30.3689 19.6778 30.0468C19.6778 29.7248 19.9397 29.4629 20.2617 29.4629C20.5838 29.4629 20.8457 29.7248 20.8457 30.0468C20.8457 30.3689 20.5838 30.6308 20.2617 30.6308Z" fill="#004254"/>
<path d="M21.1526 13.9585H10.5751C9.86877 13.9585 9.29346 14.5339 9.29346 15.2402V25.8177C9.29346 26.524 9.86883 27.0993 10.5751 27.0993H21.1526C21.859 27.0993 22.4343 26.5239 22.4343 25.8177V15.2402C22.4343 14.5317 21.8589 13.9585 21.1526 13.9585ZM21.3351 25.8155C21.3351 25.9164 21.2535 25.9979 21.1526 25.9979L10.5751 26.0001C10.4742 26.0001 10.3926 25.9185 10.3926 25.8176V15.2401C10.3926 15.1392 10.4742 15.0576 10.5751 15.0576H21.1526C21.2535 15.0576 21.3351 15.1392 21.3351 15.2401V25.8155Z" fill="#004254"/>
<path d="M13.3762 32.8313H10.0851C9.68148 32.8313 9.35303 33.1619 9.35303 33.5634V35.9893C9.35303 36.3994 9.68364 36.7214 10.0851 36.7214H13.3762C13.7798 36.7214 14.1083 36.3994 14.1083 35.9893V33.5634C14.1083 33.1619 13.7798 32.8313 13.3762 32.8313ZM13.5222 35.8347H9.93913V35.2851H13.5222V35.8347ZM13.5222 34.274H9.93913V33.7244H13.5222V34.274Z" fill="#004254"/>
<path d="M20.77 32.8313H17.4789C17.0753 32.8313 16.7468 33.1619 16.7468 33.5634V35.9893C16.7468 36.3994 17.0774 36.7214 17.4789 36.7214H20.77C21.1736 36.7214 21.5021 36.3994 21.5021 35.9893V33.5634C21.5042 33.1619 21.1736 32.8313 20.77 32.8313ZM20.916 35.8347H17.3329V35.2851H20.916V35.8347ZM20.916 34.274H17.3329V33.7244H20.916V34.274Z" fill="#004254"/>
<path d="M18.2991 17.1421H13.4236C12.3116 17.1421 11.4077 18.0459 11.4077 19.158V22.2473C11.4077 23.3594 12.3115 24.2632 13.4236 24.2632H18.2991C19.4112 24.2632 20.3151 23.3594 20.3151 22.2473V19.158C20.3129 18.046 19.4091 17.1421 18.2991 17.1421ZM19.2137 22.2473C19.2137 22.7518 18.8037 23.1641 18.297 23.1641H13.4215C12.917 23.1641 12.5048 22.754 12.5048 22.2473V19.158C12.5048 18.6535 12.9148 18.2413 13.4215 18.2413H18.297C18.8015 18.2413 19.2137 18.6513 19.2137 19.158V22.2473Z" fill="#004254"/>
<path d="M16.8866 8.06274H6.21235C4.37681 8.06274 2.88257 9.55698 2.88257 11.3925V21.543C2.88257 22.2708 3.98176 22.2708 3.98176 21.543V11.3925C3.98176 10.1624 4.98219 9.16193 6.21235 9.16193H16.8866C17.799 9.16193 18.6105 9.70938 18.954 10.5553C19.2288 11.2294 20.2464 10.815 19.9716 10.1431C19.4628 8.87856 18.2499 8.06274 16.8866 8.06274Z" fill="#004254"/>
<path d="M30.5598 15.2681H25.9011C25.1733 15.2681 25.1733 16.3673 25.9011 16.3673H30.5598C31.2875 16.3673 31.2875 15.2681 30.5598 15.2681Z" fill="#004254"/>
<path d="M29.5657 17.168H26.6374C25.9096 17.168 25.9096 18.2672 26.6374 18.2672H29.5657C30.2935 18.2672 30.2935 17.168 29.5657 17.168Z" fill="#004254"/>
<path d="M27.0473 21.0838C27.0473 21.6892 26.1414 21.6892 26.1414 21.0838C26.1414 20.4805 27.0473 20.4805 27.0473 21.0838Z" fill="#004254"/>
<path d="M27.3999 21.0838C27.3999 21.335 27.6039 21.5368 27.8529 21.5368C28.1041 21.5368 28.3059 21.3329 28.3059 21.0838C28.3059 20.8327 28.1019 20.6309 27.8529 20.6309C27.6017 20.6309 27.3999 20.8348 27.3999 21.0838Z" fill="#004254"/>
<path d="M29.5656 21.0838C29.5656 21.6892 28.6575 21.6892 28.6575 21.0838C28.6575 20.4805 29.5656 20.4805 29.5656 21.0838Z" fill="#004254"/>
<path d="M30.3685 21.539C30.6197 21.539 30.8215 21.3351 30.8215 21.086C30.8215 20.8349 30.6176 20.6331 30.3685 20.6331C30.1173 20.6331 29.9155 20.837 29.9155 21.086C29.9155 21.3351 30.1195 21.539 30.3685 21.539Z" fill="#004254"/>
<path d="M35.8217 22.9255H25.8928C25.165 22.9255 25.165 24.0247 25.8928 24.0247H35.8217C35.9205 24.0247 36.0042 24.1085 36.0042 24.2072V25.6005C36.0042 25.6993 35.9205 25.783 35.8217 25.783H31.6891C31.3864 25.783 31.1395 26.0299 31.1395 26.3326C31.1395 26.6353 31.3864 26.8822 31.6891 26.8822H35.8217C36.5281 26.8822 37.1034 26.3068 37.1034 25.6006V24.2072C37.1034 23.5009 36.528 22.9255 35.8217 22.9255Z" fill="#004254"/>
<path d="M37.9876 5.51652C37.6849 5.51652 37.438 5.76341 37.438 6.06612V19.2394C37.438 19.5421 37.6849 19.789 37.9876 19.789H38.4406V20.5618C38.4406 21.2681 39.0159 21.8435 39.7222 21.8435H41.313C42.0194 21.8435 42.5947 21.2681 42.5947 20.5618V19.789H43.0477C43.3504 19.789 43.5973 19.5421 43.5973 19.2394L43.5994 6.06612C43.5994 5.76341 43.3525 5.51652 43.0498 5.51652H41.0683V4.71148H41.5084C42.2361 4.71148 42.2361 3.61229 41.5084 3.61229H41.0683C41.0661 3.44269 41.0725 3.29241 41.0618 3.09919H42.9425C43.6703 3.09919 43.6703 2 42.9425 2H38.0927C37.365 2 37.365 3.09919 38.0927 3.09919H39.9734C39.9648 3.29026 39.9691 3.44269 39.9691 3.61014H39.529C38.8012 3.61014 38.8012 4.70933 39.529 4.70933H39.9691V5.51658L37.9876 5.51652ZM41.4977 20.5595C41.4977 20.6604 41.4161 20.742 41.3152 20.742H39.7244C39.6235 20.742 39.5419 20.6604 39.5419 20.5595V19.8746H41.4998L41.4977 20.5595ZM42.5003 18.6875H38.5372V9.62574H42.5003V18.6875ZM42.5003 8.52655H38.5372V6.61582H42.5003V8.52655Z" fill="#004254"/>
<path d="M43.8728 7.95114C43.8728 8.25385 44.1197 8.50074 44.4224 8.50074C45.1416 8.50074 45.7277 9.08468 45.7277 9.80388V30.1109L44.826 30.113C44.5233 30.113 44.2764 30.3599 44.2764 30.6626V31.6223C44.2764 32.35 45.3756 32.35 45.3756 31.6223V31.2122H47.1789V31.6223C47.1789 32.35 48.2781 32.35 48.2781 31.6223V30.6626C48.2781 30.3599 48.0312 30.113 47.7285 30.113H46.8269V9.80603C46.8269 7.53681 43.8728 6.76391 43.8728 7.95114Z" fill="#004254"/>
<path d="M17.5262 19.7418C17.3737 19.4778 17.0388 19.3897 16.7748 19.54L16.4098 19.7504V19.3296C16.4098 19.0269 16.1629 18.78 15.8602 18.78C15.5575 18.78 15.3106 19.0269 15.3106 19.3296V19.7504L14.9456 19.54C14.6837 19.3876 14.3467 19.4778 14.1942 19.7418C14.0418 20.0037 14.132 20.3408 14.396 20.4932L14.761 20.7036L14.396 20.914C14.1341 21.0664 14.044 21.4013 14.1942 21.6654C14.3467 21.9295 14.6837 22.0175 14.9456 21.8672L15.3106 21.6568V22.0776C15.3106 22.3803 15.5575 22.6272 15.8602 22.6272C16.1629 22.6272 16.4098 22.3803 16.4098 22.0776V21.6568C16.7146 21.8157 16.8198 21.9424 17.0496 21.9424C17.6099 21.9424 17.8096 21.1974 17.3244 20.9162L16.9594 20.7058L17.3244 20.4954C17.5884 20.3387 17.6764 20.0037 17.5262 19.7418Z" fill="#004254"/>
</svg>
