<svg width="49" height="50" viewBox="0 0 49 50" fill="none" xmlns="http://www.w3.org/2000/svg">
<path d="M42.9905 10.039C41.5616 8.83672 39.7615 8.16457 37.8943 8.13608C36.6216 8.11862 35.394 8.6074 34.4816 9.49493C33.5692 10.3825 33.0467 11.5961 33.0289 12.8688C33.0107 14.1669 34.2318 15.2861 35.1943 16.1246C34.5348 16.4313 33.9737 16.9158 33.5741 17.5236C32.0097 17.44 27.7087 16.4823 26.7375 14.3842C25.9414 12.6621 25.7462 9.19185 26.1606 4.07836C26.1688 3.97635 26.1361 3.87528 26.0697 3.79738C26.0034 3.71948 25.9088 3.67113 25.8068 3.66297C25.7048 3.65481 25.6037 3.68751 25.5258 3.75387C25.4479 3.82023 25.3995 3.91481 25.3914 4.01682C24.9683 9.26589 25.1866 12.863 26.0395 14.7073C27.2837 17.3996 32.4933 18.2986 33.7808 18.2986C33.847 18.2986 33.912 18.2815 33.9696 18.249C34.0272 18.2165 34.0755 18.1697 34.1097 18.1131C34.6684 17.19 35.3693 16.8448 36.0443 16.6082C36.1075 16.5861 36.1638 16.5479 36.2076 16.4974C36.2515 16.4468 36.2814 16.3857 36.2944 16.3201C36.3074 16.2544 36.3031 16.1865 36.2818 16.123C36.2606 16.0596 36.2231 16.0028 36.1732 15.9582C36.0684 15.8621 35.9539 15.7659 35.8347 15.6621C34.9693 14.9111 33.7837 13.8813 33.7972 12.8784C33.8045 12.3491 33.9159 11.8263 34.1253 11.3401C34.3346 10.8538 34.6376 10.4136 35.0171 10.0444C35.3966 9.67531 35.8451 9.38455 36.3369 9.18877C36.8288 8.99299 37.3544 8.89602 37.8838 8.90339C39.5747 8.92833 41.2052 9.53668 42.4992 10.6255C45.0444 12.7698 46.3011 16.3736 46.2329 21.3352C46.1867 24.7141 45.4425 27.4333 44.0213 29.4324C43.0301 27.7392 41.6133 26.3347 39.9115 25.3582C38.2098 24.3818 36.2823 23.8673 34.3203 23.866C34.0934 23.866 33.8693 23.8737 33.6472 23.8871C34.0447 23.532 34.4865 23.2298 34.9616 22.9881C35.0401 22.9597 35.1072 22.9066 35.1528 22.8368C35.1984 22.7669 35.2201 22.6841 35.2146 22.6009C35.209 22.5177 35.1766 22.4385 35.1221 22.3753C35.0676 22.3121 34.9941 22.2683 34.9126 22.2506C34.4741 22.1544 33.6433 21.1535 33.6626 20.4563C33.6641 20.4026 33.6543 20.3491 33.6338 20.2994C33.6134 20.2497 33.5827 20.2048 33.5438 20.1677C33.505 20.1305 33.4588 20.1019 33.4082 20.0837C33.3576 20.0656 33.3037 20.0582 33.2501 20.0621C31.026 20.2227 29.6202 20.0967 27.1731 18.9275C27.1227 18.9034 27.0677 18.8905 27.0118 18.8898C26.9559 18.8892 26.9006 18.9007 26.8496 18.9235C26.7986 18.9464 26.7533 18.9801 26.7166 19.0223C26.68 19.0645 26.653 19.1142 26.6375 19.1679C26.202 20.6804 25.9135 23.5862 25.7808 27.7958C24.0205 29.847 23.0599 32.4647 23.0756 35.1676C23.0914 37.8705 24.0823 40.4769 25.8664 42.5075C25.9241 44.0834 25.9914 45.3479 26.052 45.9892C26.0608 46.0849 26.1053 46.1738 26.1765 46.2385C26.2476 46.3031 26.3404 46.3387 26.4366 46.3382H26.4731C26.5234 46.3335 26.5724 46.319 26.617 46.2953C26.6617 46.2717 26.7013 46.2395 26.7336 46.2006C26.7658 46.1617 26.7901 46.1167 26.8049 46.0684C26.8198 46.0201 26.825 45.9693 26.8202 45.919C26.7722 45.4104 26.7241 44.494 26.6712 43.3344C28.5932 45.1167 31.0779 46.171 33.6952 46.3149C36.3125 46.4588 38.8977 45.6832 41.0036 44.1224C43.1095 42.5616 44.6035 40.3137 45.2271 37.7677C45.8506 35.2217 45.5646 32.5378 44.4184 30.1804C46.078 28.0247 46.9473 25.0564 46.9973 21.3467C47.0694 16.1438 45.7213 12.339 42.9905 10.039ZM27.2645 19.815C29.4702 20.8092 30.9395 20.9689 32.9376 20.8506C33.0751 21.5112 33.5443 22.1967 34.051 22.6189C33.4458 23.0017 32.9019 23.4737 32.4376 24.0189C30.2379 24.3932 28.1997 25.4149 26.5837 26.9535C26.7058 23.6439 26.9366 21.2487 27.2654 19.8208L27.2645 19.815ZM34.3155 45.5844C32.2442 45.5844 30.2194 44.9702 28.4971 43.8195C26.7748 42.6688 25.4325 41.0332 24.6397 39.1196C23.847 37.206 23.6395 35.1003 24.0434 33.0687C24.4474 31.0372 25.4447 29.1711 26.9092 27.7063C28.3737 26.2415 30.2396 25.2439 32.2711 24.8396C34.3025 24.4353 36.4083 24.6424 38.322 25.4348C40.2358 26.2272 41.8716 27.5692 43.0226 29.2913C44.1737 31.0133 44.7882 33.038 44.7886 35.1093C44.7871 37.8867 43.6832 40.5499 41.7195 42.514C39.7558 44.478 37.0928 45.5824 34.3155 45.5844Z" fill="#004254"/>
<path d="M2.4037 28.3728C2.4538 28.3729 2.50342 28.363 2.54962 28.3436C2.59582 28.3242 2.63765 28.2957 2.67262 28.2598C2.7076 28.224 2.73501 28.1814 2.75324 28.1348C2.77146 28.0881 2.78012 28.0382 2.7787 27.9881C2.65081 23.0266 3.86332 19.4179 6.38257 17.2438C7.66182 16.14 9.28297 15.5116 10.972 15.465C12.0403 15.4391 13.0752 15.8377 13.8502 16.5734C14.6251 17.309 15.077 18.3219 15.1067 19.39C15.1326 20.3929 13.9595 21.4362 13.1028 22.1977C12.9845 22.3025 12.872 22.4035 12.7682 22.4977C12.7099 22.551 12.6694 22.6209 12.6522 22.6979C12.635 22.775 12.6419 22.8555 12.672 22.9285C12.7816 23.1948 13.0567 23.2622 13.4413 23.3564C13.9268 23.4766 14.6615 23.6573 15.2182 24.242C15.2541 24.2796 15.2972 24.3095 15.3449 24.33C15.3927 24.3505 15.4441 24.3611 15.4961 24.3612C17.8038 24.3612 21.6057 20.2362 22.1423 17.7083C22.5913 15.5929 22.6077 11.0102 22.1913 4.07549C22.1852 3.97348 22.1388 3.87809 22.0624 3.81028C21.9859 3.74248 21.8856 3.70783 21.7836 3.71395C21.6816 3.72007 21.5862 3.76646 21.5184 3.84292C21.4506 3.91938 21.416 4.01964 21.4221 4.12164C21.8346 10.9871 21.8231 15.5044 21.3884 17.5487C20.9077 19.8006 17.4586 23.3881 15.6442 23.5833C15.0144 22.9939 14.2701 22.7727 13.7605 22.6439C14.7115 21.7948 15.9105 20.6631 15.8759 19.3698C15.8412 18.0976 15.3034 16.8912 14.3806 16.0148C13.4577 15.1385 12.2251 14.6638 10.9528 14.6948C9.08635 14.7454 7.29465 15.4389 5.88064 16.6583C3.17678 18.9881 1.87485 22.8035 2.00946 28.0074C2.01248 28.1067 2.05458 28.2008 2.12661 28.2692C2.19863 28.3376 2.29476 28.3748 2.39408 28.3728H2.4037Z" fill="#004254"/>
<path d="M3.2133 31.7246C3.07751 31.1123 2.9748 30.4932 2.9056 29.8698C2.89413 29.7685 2.84285 29.6758 2.76306 29.6122C2.68327 29.5487 2.58149 29.5194 2.48012 29.5309C2.37875 29.5424 2.28609 29.5936 2.22253 29.6734C2.15896 29.7532 2.1297 29.855 2.14118 29.9564C2.21367 30.6075 2.3212 31.2543 2.46329 31.8939C2.4823 31.9792 2.5298 32.0555 2.59797 32.1102C2.66613 32.1649 2.75089 32.1948 2.8383 32.1948C2.86677 32.1947 2.89514 32.1915 2.92291 32.1852C2.97225 32.1741 3.0189 32.1533 3.06021 32.1242C3.10151 32.095 3.13666 32.0579 3.16363 32.0152C3.1906 31.9724 3.20887 31.9247 3.2174 31.8749C3.22592 31.825 3.22453 31.774 3.2133 31.7246Z" fill="#004254"/>
<path d="M21.8154 24.1679C21.8111 24.0972 21.7875 24.0291 21.747 23.9711C21.7065 23.913 21.6508 23.8672 21.586 23.8388C21.5211 23.8104 21.4497 23.8004 21.3796 23.8099C21.3095 23.8195 21.2433 23.8482 21.1885 23.8929C19.4356 25.3189 18.1211 26.265 15.9076 26.4141C15.852 26.4178 15.7978 26.4335 15.7488 26.4603C15.6999 26.487 15.6573 26.5241 15.6241 26.5689C15.5909 26.6137 15.5679 26.6652 15.5565 26.7198C15.5452 26.7745 15.5459 26.8309 15.5586 26.8852C15.6201 27.1506 15.5528 27.4429 15.3576 27.7506C15.0125 28.3025 14.3961 28.7045 14.1076 28.7708C14.0262 28.7894 13.953 28.834 13.8991 28.8978C13.8452 28.9617 13.8136 29.0414 13.809 29.1248C13.8045 29.2082 13.8272 29.2909 13.8738 29.3603C13.9204 29.4296 13.9883 29.4819 14.0673 29.5093C14.1769 29.5583 17.048 30.9064 17.123 33.718C17.1425 34.4629 17.015 35.2043 16.7478 35.8999C16.4807 36.5956 16.0791 37.2317 15.566 37.7721C15.0529 38.3125 14.4384 38.7465 13.7576 39.0494C13.0768 39.3523 12.3429 39.518 11.598 39.5372C11.4134 39.543 7.06721 39.6026 4.52777 35.1958C4.21972 34.6577 3.95696 34.0948 3.74219 33.5131C3.72457 33.4658 3.6978 33.4224 3.66341 33.3854C3.62901 33.3484 3.58767 33.3185 3.54173 33.2975C3.44895 33.255 3.3431 33.2511 3.24747 33.2867C3.20012 33.3043 3.1567 33.3311 3.11969 33.3655C3.08269 33.3999 3.05282 33.4412 3.03179 33.4872C2.98933 33.5799 2.98545 33.6858 3.02103 33.7814C3.24967 34.4046 3.5298 35.0076 3.85853 35.5843C6.07009 39.4161 9.77396 40.3593 11.6153 40.3103C12.4613 40.2886 13.2946 40.1005 14.0679 39.7566C14.8411 39.4128 15.539 38.92 16.1217 38.3064C16.7044 37.6928 17.1605 36.9704 17.464 36.1804C17.7675 35.3905 17.9124 34.5485 17.8904 33.7026C17.8298 31.3526 16.0875 29.8295 15.0336 29.1622C15.4227 28.8974 15.7549 28.5574 16.0105 28.1621C16.2096 27.8592 16.3263 27.5095 16.349 27.1477C18.3067 26.9333 19.5942 26.1371 21.0933 24.9564L21.1086 25.2044C21.3875 29.7006 22.1269 41.6468 21.4933 45.5892C21.4852 45.6391 21.487 45.69 21.4986 45.7392C21.5102 45.7884 21.5314 45.8348 21.5609 45.8758C21.5905 45.9168 21.6278 45.9516 21.6708 45.9781C21.7138 46.0047 21.7616 46.0225 21.8115 46.0305C21.8319 46.0337 21.8525 46.0353 21.8731 46.0353C21.9643 46.0351 22.0524 46.0026 22.1218 45.9434C22.1912 45.8842 22.2373 45.8023 22.2519 45.7123C22.9038 41.6824 22.1558 29.6756 21.8798 25.1554C21.8519 24.7746 21.8317 24.4419 21.8154 24.1679Z" fill="#004254"/>
<path d="M39.5001 33.469H36.0385V30.0074C36.0385 29.9054 35.998 29.8076 35.9259 29.7355C35.8537 29.6633 35.7559 29.6228 35.6539 29.6228H32.577C32.4749 29.6228 32.3771 29.6633 32.305 29.7355C32.2329 29.8076 32.1923 29.9054 32.1923 30.0074V33.469H28.6346C28.5326 33.469 28.4348 33.5095 28.3627 33.5816C28.2905 33.6538 28.25 33.7516 28.25 33.8536V36.9305C28.25 37.0325 28.2905 37.1304 28.3627 37.2025C28.4348 37.2746 28.5326 37.3152 28.6346 37.3152H32.1923V40.8729C32.1923 40.9749 32.2329 41.0727 32.305 41.1448C32.3771 41.217 32.4749 41.2575 32.577 41.2575H35.6539C35.7559 41.2575 35.8537 41.217 35.9259 41.1448C35.998 41.0727 36.0385 40.9749 36.0385 40.8729V37.3152H39.5001C39.6021 37.3152 39.6999 37.2746 39.772 37.2025C39.8442 37.1304 39.8847 37.0325 39.8847 36.9305V33.8536C39.8847 33.7516 39.8442 33.6538 39.772 33.5816C39.6999 33.5095 39.6021 33.469 39.5001 33.469ZM39.1155 36.5459H35.6539C35.5519 36.5459 35.4541 36.5864 35.3819 36.6586C35.3098 36.7307 35.2693 36.8285 35.2693 36.9305V40.4883H32.9616V36.9305C32.9616 36.8285 32.921 36.7307 32.8489 36.6586C32.7768 36.5864 32.679 36.5459 32.577 36.5459H29.0192V34.2382H32.577C32.679 34.2382 32.7768 34.1977 32.8489 34.1256C32.921 34.0534 32.9616 33.9556 32.9616 33.8536V30.392H35.2693V33.8536C35.2693 33.9556 35.3098 34.0534 35.3819 34.1256C35.4541 34.1977 35.5519 34.2382 35.6539 34.2382H39.1155V36.5459Z" fill="#004254"/>
</svg>
