<svg width="52" height="52" viewBox="0 0 52 52" fill="none" xmlns="http://www.w3.org/2000/svg">
<path d="M24.7377 21.0794C24.7377 20.8741 24.6561 20.6771 24.5109 20.5319C24.3656 20.3866 24.1687 20.3051 23.9633 20.3051C23.7579 20.3051 23.561 20.3866 23.4157 20.5319C23.2705 20.6771 23.1889 20.8741 23.1889 21.0794C23.1895 22.1511 22.7736 23.181 22.029 23.9516C21.2843 24.7223 20.2693 25.1733 19.1983 25.2095C19.1315 24.1671 18.8706 23.1463 18.4291 22.1997C19.9389 21.3548 21.1454 20.057 21.8781 18.4896C22.6109 16.9222 22.8329 15.1643 22.5129 13.4639C22.1929 11.7635 21.347 10.2065 20.0946 9.01269C18.8423 7.81885 17.2466 7.04844 15.5329 6.81016C12.2495 6.3352 9.20874 8.08531 6.75653 11.8695C4.6657 15.0754 3.14275 19.5617 2.40966 24.4919C1.0674 33.7483 2.87946 44.1509 9.99345 45.1782C10.3901 45.2357 10.7904 45.265 11.1912 45.266C12.82 45.2725 14.4144 44.7973 15.7739 43.9001C17.1334 43.0029 18.1973 41.7238 18.8318 40.2236C19.4663 38.7234 19.6431 37.0691 19.34 35.4687C19.0368 33.8683 18.2673 32.3932 17.1281 31.229C18.2014 30.0179 18.8976 28.5196 19.1312 26.9183V26.7841C20.2112 26.807 21.2393 27.2523 21.995 28.0243C22.7506 28.7964 23.1737 29.8338 23.1734 30.9141V44.4916C23.1734 44.697 23.255 44.8939 23.4002 45.0392C23.5455 45.1844 23.7424 45.266 23.9478 45.266C24.1532 45.266 24.3502 45.1844 24.4954 45.0392C24.6406 44.8939 24.7222 44.697 24.7222 44.4916V30.9296C24.7245 29.9326 24.4642 28.9525 23.9676 28.0879C23.471 27.2234 22.7555 26.5048 21.8931 26.0045C22.7584 25.5061 23.477 24.7884 23.9764 23.9238C24.4758 23.0591 24.7384 22.078 24.7377 21.0794ZM17.5979 26.6963C17.3788 28.2291 16.6365 29.6389 15.4967 30.6869C15.4151 30.7603 15.3503 30.8504 15.3067 30.9511C15.263 31.0517 15.2416 31.1606 15.2438 31.2703C15.2459 31.3806 15.2714 31.4891 15.3185 31.5888C15.3657 31.6884 15.4335 31.777 15.5174 31.8485C16.6442 32.7856 17.4333 34.0659 17.7642 35.4936C18.095 36.9214 17.9494 38.4182 17.3495 39.7554C16.7497 41.0926 15.7286 42.1968 14.4422 42.8991C13.1559 43.6014 11.675 43.8634 10.2258 43.6449C6.88043 43.1648 5.25939 39.9795 4.48501 37.3983C3.4525 33.9393 3.25632 29.4428 3.93262 24.7242C4.60891 20.0056 6.07507 15.7465 8.06265 12.7264C9.41524 10.6614 11.5938 8.29697 14.5262 8.29697C14.7957 8.29568 15.0649 8.31466 15.3315 8.35376C16.7848 8.55167 18.1333 9.22023 19.1706 10.2571C20.2079 11.2941 20.877 12.6422 21.0755 14.0955C21.274 15.5487 20.9909 17.0269 20.2697 18.304C19.5484 19.5811 18.4286 20.5868 17.0816 21.1672C16.9793 21.2091 16.8871 21.2724 16.8112 21.3529C16.7354 21.4334 16.6777 21.5292 16.642 21.6339C16.6063 21.7386 16.5934 21.8497 16.6042 21.9597C16.6151 22.0698 16.6493 22.1763 16.7048 22.272C17.5043 23.5994 17.8199 25.1626 17.5979 26.6963Z" fill="#004254"/>
<path d="M49.5954 24.5021C48.8829 19.5719 47.3393 15.0857 45.2485 11.8797C42.786 8.09556 39.7504 6.34546 36.4722 6.82041C34.7584 7.05869 33.1628 7.82911 31.9104 9.02294C30.658 10.2168 29.8121 11.7737 29.4921 13.4741C29.1721 15.1745 29.3942 16.9324 30.1269 18.4999C30.8596 20.0673 32.0661 21.365 33.576 22.21C33.1344 23.1566 32.8735 24.1773 32.8067 25.2197C31.7357 25.1836 30.7207 24.7325 29.9761 23.9619C29.2314 23.1912 28.8155 22.1613 28.8161 21.0897C28.8161 20.8843 28.7345 20.6873 28.5893 20.5421C28.4441 20.3969 28.2471 20.3153 28.0417 20.3153C27.8363 20.3153 27.6394 20.3969 27.4941 20.5421C27.3489 20.6873 27.2673 20.8843 27.2673 21.0897C27.27 22.088 27.5358 23.068 28.0379 23.9308C28.54 24.7937 29.2607 25.5089 30.1274 26.0044C29.2621 26.5028 28.5435 27.2205 28.0441 28.0852C27.5447 28.9499 27.2821 29.931 27.2828 30.9295V44.4915C27.2828 44.6969 27.3644 44.8939 27.5096 45.0391C27.6549 45.1843 27.8518 45.2659 28.0572 45.2659C28.2626 45.2659 28.4595 45.1843 28.6048 45.0391C28.75 44.8939 28.8316 44.6969 28.8316 44.4915V30.9295C28.8313 29.8492 29.2544 28.8118 30.0101 28.0397C30.7657 27.2677 31.7938 26.8224 32.8739 26.7995V26.9337C33.1074 28.535 33.8036 30.0333 34.8769 31.2444C33.7442 32.4081 32.9797 33.8799 32.6788 35.4758C32.378 37.0716 32.5543 38.7208 33.1856 40.217C33.8169 41.7132 34.8753 42.9901 36.2284 43.8881C37.5815 44.7861 39.1693 45.2654 40.7932 45.2659C41.1975 45.2654 41.6012 45.2361 42.0012 45.1781C49.1152 44.1508 50.9273 33.7483 49.5954 24.5021ZM47.5303 37.4085C46.756 39.9898 45.1349 43.1751 41.7896 43.6552C40.336 43.8834 38.8478 43.6276 37.5538 42.9272C36.2599 42.2268 35.232 41.1206 34.6283 39.7789C34.0246 38.4371 33.8785 36.9341 34.2126 35.5012C34.5467 34.0683 35.3424 32.7849 36.4773 31.8484C36.5612 31.7769 36.629 31.6884 36.6762 31.5887C36.7233 31.489 36.7488 31.3805 36.7509 31.2702C36.7531 31.1605 36.7317 31.0517 36.688 30.951C36.6444 30.8503 36.5795 30.7602 36.498 30.6869C35.3561 29.6393 34.6119 28.2289 34.3917 26.6951C34.1715 25.1612 34.4889 23.5984 35.2899 22.2719C35.3459 22.1775 35.3812 22.0723 35.3935 21.9632C35.4057 21.8541 35.3946 21.7437 35.3609 21.6392C35.3272 21.5347 35.2717 21.4386 35.1981 21.3572C35.1244 21.2758 35.0343 21.211 34.9337 21.1671C33.5867 20.5867 32.4669 19.5811 31.7457 18.304C31.0244 17.0268 30.7414 15.5486 30.9399 14.0954C31.1383 12.6422 31.8074 11.294 32.8448 10.2571C33.8821 9.22016 35.2305 8.5516 36.6838 8.35369C36.9453 8.31456 37.2093 8.29558 37.4737 8.2969C42.8737 8.2969 46.854 16.3608 48.0621 24.7241C48.7384 29.4427 48.5474 33.9393 47.5097 37.3982L47.5303 37.4085Z" fill="#004254"/>
</svg>
