<svg width="49" height="50" viewBox="0 0 49 50" fill="none" xmlns="http://www.w3.org/2000/svg">
<path d="M22.0731 38.1708C22.0731 38.473 22.3197 38.7196 22.6219 38.7196C22.9242 38.7196 23.1707 38.473 23.1707 38.1708C23.1707 37.4077 23.1814 36.6402 23.1986 35.8813C23.2865 30.7623 23.3679 25.493 18.9777 23.8296C19.1749 23.1822 19.4279 22.5348 19.6851 21.8982L19.7173 21.8167C20.4633 19.9453 21.0571 17.9688 20.3325 16.1489C19.608 14.3225 17.5457 13.1971 15.5478 13.5315C13.8457 13.8166 12.2272 15.0899 11.2176 16.9228C10.4373 18.344 9.97642 20.0612 9.77919 22.3292C9.59912 24.3807 9.68058 26.1492 10.0321 27.7462C10.4609 29.6884 11.2991 31.3626 12.4631 32.5909C13.2584 33.4312 14.1265 33.9735 15.0312 34.2093C15.3377 34.2865 15.6571 34.3251 15.9637 34.3251C16.7547 34.3251 17.5114 34.0722 18.0924 33.5963C18.982 32.8674 19.5136 31.5769 19.5072 30.1385C19.5007 29.2725 19.2606 28.4815 19.0291 27.7119C18.9305 27.3882 18.8319 27.0581 18.7483 26.7301C18.6047 26.1384 18.6175 25.5275 18.7161 24.9144C22.2553 26.3914 22.1846 30.8247 22.1032 35.8576C22.086 36.6293 22.0731 37.397 22.0731 38.1708ZM17.6786 26.9916C17.7601 27.3432 17.8651 27.6883 17.9744 28.0334C18.1931 28.758 18.4032 29.4439 18.4075 30.1471C18.4139 31.2554 18.0345 32.2265 17.3978 32.7474C16.8555 33.1911 16.0687 33.339 15.3013 33.1482C14.6089 32.9725 13.9015 32.518 13.2605 31.8427C12.2337 30.7559 11.4877 29.2639 11.104 27.519C10.7803 26.0377 10.7031 24.3742 10.8724 22.4363C11.0589 20.3291 11.477 18.7492 12.1779 17.4588C13.029 15.911 14.3559 14.8521 15.7279 14.6205C15.908 14.5884 16.0902 14.5777 16.2702 14.5777C17.5864 14.5777 18.8341 15.3687 19.31 16.5584C19.8909 18.0247 19.3593 19.7568 18.6948 21.416L18.6626 21.4974C18.4054 22.1448 18.131 22.8265 17.9209 23.5275C17.5907 23.4567 17.2456 23.3967 16.8726 23.3624C16.5553 23.341 16.3023 23.5554 16.268 23.8512C16.2359 24.1534 16.4545 24.4214 16.7568 24.4557C17.0741 24.4879 17.3763 24.5372 17.6614 24.5993C17.5199 25.3797 17.4857 26.1856 17.6786 26.9916ZM30.3006 26.7344C30.2234 27.0645 30.1205 27.3882 30.0197 27.7162C29.7839 28.4836 29.5417 29.2811 29.5417 30.1428C29.5353 31.5812 30.069 32.8696 30.9565 33.6006C31.5439 34.0786 32.2963 34.3294 33.0852 34.3294C33.3917 34.3294 33.7047 34.2908 34.0177 34.2137C34.9223 33.9821 35.7905 33.4398 36.5858 32.5952C37.7498 31.3669 38.588 29.6927 39.0167 27.7505C39.3683 26.1599 39.4497 24.3871 39.2697 22.3335C39.066 20.0676 38.6116 18.3484 37.827 16.9271C36.8173 15.0878 35.1988 13.8209 33.4968 13.5358C31.4946 13.2014 29.4367 14.3204 28.7121 16.1532C27.9875 17.9753 28.5813 19.9561 29.3273 21.821L29.3595 21.9025C29.6124 22.5327 29.8697 23.1758 30.0626 23.8168C25.6295 25.4567 25.7152 30.7473 25.7988 35.8833C25.8095 36.64 25.8267 37.4096 25.8267 38.1728C25.8267 38.475 26.0732 38.7216 26.3755 38.7216C26.6777 38.7216 26.9242 38.475 26.9242 38.1728C26.9242 37.3989 26.9135 36.6315 26.8964 35.8619C26.8149 30.8072 26.742 26.3571 30.3198 24.9034C30.4313 25.5207 30.442 26.1363 30.3006 26.7344ZM32.127 23.3538C31.7711 23.3924 31.441 23.4481 31.1237 23.5124C30.9094 22.8157 30.6414 22.134 30.382 21.4867L30.3498 21.4052C29.6853 19.7482 29.1537 18.0139 29.7346 16.5476C30.2062 15.3579 31.4581 14.5733 32.7744 14.5733C32.9544 14.5733 33.1366 14.5904 33.3167 14.6162C34.6887 14.8477 36.0177 15.9109 36.8667 17.4544C37.5741 18.7384 37.9857 20.3183 38.1786 22.432C38.3479 24.3698 38.2772 26.0312 37.9471 27.5146C37.5633 29.2595 36.8173 30.758 35.7905 31.8384C35.1474 32.5179 34.44 32.9681 33.7497 33.1439C32.9823 33.3411 32.1977 33.1867 31.6532 32.743C31.0165 32.2221 30.6371 31.251 30.6436 30.1427C30.6436 29.4396 30.8515 28.7536 31.0766 28.029C31.1816 27.6839 31.2845 27.3324 31.3724 26.9872C31.5653 26.1812 31.531 25.3731 31.3895 24.5842C31.6575 24.5285 31.9447 24.4791 32.2449 24.447C32.5471 24.4148 32.7658 24.1447 32.7336 23.8425C32.6993 23.5466 32.4399 23.3323 32.127 23.3538ZM4.07935 31.4203C4.17367 31.7118 4.00861 32.0183 3.7235 32.1063C3.66776 32.1234 3.61417 32.1341 3.55844 32.1341C3.32263 32.1341 3.10827 31.9862 3.03752 31.7504C2.34513 29.5703 2 27.3001 2 24.9999C2 17.8592 5.27556 11.3018 10.9951 7.00597C14.9137 4.05842 19.5824 2.5 24.5 2.5C31.0919 2.5 37.2267 5.32105 41.5122 10.2773V5.24395C41.5122 4.94169 41.7587 4.69517 42.061 4.69517C42.3632 4.69517 42.6097 4.94169 42.6097 5.24395V11.8293C42.6097 12.1316 42.3632 12.3781 42.061 12.3781H35.4756C35.1733 12.3781 34.9268 12.1316 34.9268 11.8293C34.9268 11.527 35.1733 11.2805 35.4756 11.2805H40.9141C36.8304 6.39079 30.8923 3.59761 24.5001 3.59761C19.8248 3.59761 15.3788 5.07888 11.6532 7.88281C6.21463 11.9665 3.09767 18.2064 3.09767 24.9998C3.09767 27.1885 3.42765 29.3518 4.07935 31.4203ZM47 25.0001C47 32.1408 43.7244 38.6982 38.0049 42.994C34.0863 45.9416 29.4176 47.5 24.5 47.5C17.9081 47.5 11.7732 44.6789 7.48782 39.7227V44.7561C7.48782 45.0583 7.2413 45.3048 6.93904 45.3048C6.63679 45.3048 6.39026 45.0583 6.39026 44.7561V38.1707C6.39026 37.8684 6.63679 37.6219 6.93904 37.6219H13.5244C13.8267 37.6219 14.0732 37.8684 14.0732 38.1707C14.0732 38.473 13.8267 38.7195 13.5244 38.7195H8.08588C12.1696 43.6092 18.1077 46.4024 24.4999 46.4024C29.1752 46.4024 33.6212 44.9211 37.3468 42.1172C42.7854 38.0335 45.9023 31.7936 45.9023 25.0002C45.9023 22.8115 45.5722 20.6486 44.9205 18.5801C44.8262 18.2885 44.9913 17.982 45.2764 17.8941C45.5679 17.7998 45.8744 17.9648 45.9623 18.2499C46.6547 20.4301 47 22.6999 47 25.0001Z" fill="#004254"/>
</svg>
