<svg width="49" height="50" viewBox="0 0 49 50" fill="none" xmlns="http://www.w3.org/2000/svg">
<path d="M33.0305 6.10913C30.3555 6.10913 28.1796 8.2851 28.1796 10.9598C28.1796 13.5729 30.3048 15.7482 32.9169 15.8092L32.9914 15.811C30.0457 17.1783 24.3657 21.0449 25.1679 30.2732C25.0637 30.3219 24.9619 30.3767 24.8641 30.4398C24.5415 30.6469 24.1542 30.6779 23.8114 30.536C24.7445 21.1172 18.9812 17.1909 16.0079 15.811L16.0831 15.8092C18.6952 15.7482 20.8204 13.5729 20.8204 10.9598C20.8204 8.2851 18.6445 6.10913 15.9695 6.10913C8.2666 6.10913 2 12.3759 2 20.0788V21.0272C2 23.7172 4.18848 25.9055 6.87827 25.9055C9.56806 25.9055 11.7562 23.7172 11.7562 21.0272V18.3984C11.7562 18.0279 11.8398 17.6755 11.9856 17.3559C13.5619 17.948 21.4363 21.3847 20.6985 30.5799C20.0482 31.0869 19.6238 31.8995 19.6238 32.8171C19.6238 34.4197 21.3951 36.5881 22.4508 37.7379C22.6178 37.92 22.8112 38.0729 23.0221 38.1945V43.5448C23.0221 43.736 23.1769 43.8909 23.3682 43.8909C23.5596 43.8909 23.7144 43.736 23.7144 43.5448V38.4633C23.8832 38.5005 24.0566 38.5208 24.2319 38.5212C24.2333 38.5213 24.2346 38.5213 24.2363 38.5213C24.6017 38.5213 24.9583 38.4358 25.2822 38.2812V43.5448C25.2822 43.736 25.437 43.8909 25.6284 43.8909C25.8197 43.8909 25.9745 43.736 25.9745 43.5448V37.7863C25.9893 37.7711 26.0055 37.7577 26.0198 37.7422C27.3166 36.34 28.8624 34.347 28.8624 32.8171C28.8624 32.2099 28.6753 31.6493 28.3617 31.1914C27.2024 21.4095 35.3722 17.9458 37.0132 17.3532C37.1597 17.6735 37.2438 18.0269 37.2438 18.3984V21.0272C37.2438 23.7172 39.4319 25.9055 42.1217 25.9055C44.8115 25.9055 47 23.7172 47 21.0272V20.0788C47 12.3759 40.7334 6.10913 33.0305 6.10913ZM11.5523 16.7056C11.551 16.7072 11.5504 16.7093 11.5491 16.7109C11.2435 17.2048 11.0639 17.7825 11.0639 18.3984V21.0272C11.0639 23.3354 9.18607 25.2132 6.87827 25.2132C4.57012 25.2132 2.69231 23.3354 2.69231 21.0272V20.0788C2.69231 12.7577 8.64859 6.80144 15.9695 6.80144C18.2625 6.80144 20.1281 8.66692 20.1281 10.9598C20.1281 13.1999 18.3064 15.0648 16.0669 15.1172L14.2273 15.1603C14.2176 15.1606 14.2083 15.1621 14.1987 15.1625C14.1901 15.1634 14.1817 15.1629 14.1733 15.1643C13.0696 15.2089 12.1039 15.818 11.5523 16.7056ZM12.3629 16.7607C12.8119 16.2306 13.4707 15.883 14.207 15.855C15.0834 16.0909 24.1326 18.8209 23.1448 30.2053C22.8606 30.0975 22.5613 30.0357 22.2557 30.0357C21.9616 30.0357 21.6796 30.0892 21.4152 30.1837C21.8891 21.1012 14.2962 17.5204 12.3629 16.7607ZM25.5114 37.2723C25.1795 37.6313 24.7268 37.829 24.2363 37.829C24.2353 37.829 24.2343 37.8289 24.2333 37.8289C23.9798 37.8284 23.7377 37.7731 23.5163 37.6721C23.5103 37.6692 23.5055 37.665 23.4993 37.6625C23.2992 37.5684 23.1156 37.4386 22.9606 37.2697C21.2798 35.4392 20.3161 33.8163 20.3161 32.8171C20.3161 31.6652 21.1862 30.728 22.2557 30.728C22.6063 30.728 22.9497 30.8297 23.2492 31.0222C23.2568 31.0271 23.2649 31.0302 23.2725 31.0349C23.2771 31.0377 23.2817 31.0401 23.2865 31.0426C23.8933 31.4141 24.6368 31.4093 25.2386 31.0219C25.5374 30.8296 25.8806 30.728 26.2308 30.728C26.8201 30.728 27.3478 31.0136 27.7039 31.4619C27.7266 31.5409 27.7736 31.6055 27.8384 31.6499C28.0477 31.9834 28.1701 32.3851 28.1701 32.8171C28.1701 33.8212 27.2009 35.4452 25.5114 37.2723ZM27.5949 30.443C27.1966 30.1863 26.7306 30.0357 26.2308 30.0357C26.1015 30.0357 25.9733 30.0472 25.8465 30.0669C24.9443 18.7976 33.9199 16.0901 34.793 15.855C35.5293 15.883 36.1883 16.2308 36.6373 16.761C34.6839 17.5287 26.9596 21.1687 27.5949 30.443ZM46.3077 21.0272C46.3077 23.3354 44.4299 25.2132 42.1217 25.2132C39.8139 25.2132 37.9361 23.3354 37.9361 21.0272V18.3984C37.9361 17.7995 37.7658 17.237 37.4757 16.7522C37.4653 16.7353 37.458 16.7162 37.4452 16.7015C36.8935 15.8165 35.9295 15.2094 34.8281 15.1644C34.8194 15.1629 34.8106 15.1634 34.8017 15.1625C34.792 15.1622 34.7825 15.1606 34.7727 15.1603L32.9331 15.1172C30.6936 15.0648 28.8719 13.1999 28.8719 10.9598C28.8719 8.66692 30.7375 6.80144 33.0305 6.80144C40.3514 6.80144 46.3077 12.7577 46.3077 20.0788V21.0272Z" fill="#004254"/>
<path d="M38.955 12.7459C38.8188 12.8799 38.8171 13.0991 38.951 13.2354C38.9996 13.2849 43.7883 18.2178 41.4068 21.0384C41.2834 21.1844 41.3017 21.4028 41.4477 21.5262C41.513 21.5809 41.5921 21.6078 41.6708 21.6078C41.7695 21.6078 41.8672 21.566 41.9355 21.4849C44.7227 18.1841 39.6612 12.9702 39.4445 12.7499C39.31 12.6134 39.0916 12.6117 38.955 12.7459Z" fill="#004254"/>
<path d="M9.55554 12.7499C9.33886 12.9702 4.27737 18.1841 7.06452 21.4849C7.1328 21.566 7.2305 21.6078 7.3292 21.6078C7.40797 21.6078 7.48707 21.5809 7.55231 21.5262C7.69834 21.4028 7.7166 21.1844 7.59321 21.0384C5.21172 18.2178 10.0004 13.2849 10.0491 13.2354C10.1829 13.0991 10.1813 12.8799 10.045 12.7459C9.90812 12.6117 9.68974 12.6134 9.55554 12.7499Z" fill="#004254"/>
</svg>
