<svg width="103" height="110" viewBox="0 0 103 110" fill="none" xmlns="http://www.w3.org/2000/svg">
<path d="M24.0652 73.4034C32.8478 73.4034 40 65.9622 40 56.8474V37.713V18.556C40 9.41853 32.8478 2 24.0652 2C15.2826 2 8.13043 9.44115 8.13043 18.556V37.713V56.8474C8.13043 65.9622 15.2826 73.4034 24.0652 73.4034ZM24.0652 3.78678C31.8913 3.78678 38.2609 10.4137 38.2609 18.5334V36.7857H9.86956V18.556C9.86956 10.4137 16.2391 3.78678 24.0652 3.78678ZM9.86956 38.5951H38.2609V56.8248C38.2609 64.1981 33.0217 70.3274 26.2174 71.413C25.5217 71.5261 24.7826 71.594 24.0652 71.594C23.3261 71.594 22.6087 71.5261 21.913 71.413C15.1087 70.3274 9.86956 64.1981 9.86956 56.8248V38.5951Z" fill="#004254"/>
<path d="M50.2391 44.0685C50.2609 44.0912 50.2826 44.1364 50.3044 44.159C51.8696 45.6744 53.6739 46.941 55.6087 47.9135H55.6304C55.7826 47.9814 55.9348 48.0492 56.0652 48.1397C56.087 48.1397 56.087 48.1623 56.1087 48.1623C56.2609 48.2302 56.413 48.298 56.5652 48.3659H56.587C57.2609 48.6599 57.9348 48.9087 58.6304 49.1349C58.6522 49.1349 58.6522 49.1349 58.6739 49.1349C60.6522 49.7681 62.7391 50.1074 64.8913 50.1074C76.6739 50.1074 86.2609 40.1331 86.2609 27.897C86.2609 21.5415 83.6739 15.7967 79.5652 11.7482C79.5435 11.7029 79.5 11.6577 79.4565 11.6351C77.087 9.35071 74.2174 7.60917 71.1522 6.63661C71.1304 6.63661 71.1304 6.63661 71.1087 6.63661C69.1304 6.00333 67.0435 5.66406 64.8913 5.66406C53.1087 5.66406 43.5217 15.6384 43.5217 27.897C43.5 34.2752 46.087 40.02 50.2391 44.0685ZM71.5 8.6948C71.6304 8.74004 71.7826 8.80789 71.913 8.85313C72.0652 8.92098 72.2391 8.98883 72.3913 9.05668C72.5 9.10192 72.6304 9.16977 72.7391 9.21501C72.913 9.30548 73.087 9.37333 73.2609 9.4638C73.3696 9.50903 73.4565 9.55427 73.5652 9.62212C73.7609 9.71259 73.9348 9.82568 74.1304 9.91615C74.1957 9.96138 74.2826 10.0066 74.3478 10.0519C74.5652 10.1876 74.7826 10.3006 75 10.4364C75.0435 10.459 75.0652 10.4816 75.1087 10.5042C76.0435 11.0923 76.9348 11.7708 77.7391 12.5172L58.4783 47.2124C58.413 47.1898 58.3696 47.1671 58.3043 47.1445C58.1087 47.0767 57.8913 46.9862 57.6957 46.8957C57.6087 46.8505 57.5217 46.8279 57.4348 46.7826C57.2391 46.6922 57.0435 46.6017 56.8478 46.5112C56.7609 46.466 56.6739 46.4208 56.587 46.3755C56.3913 46.2851 56.1957 46.1946 56.0217 46.0815C55.9348 46.0363 55.8478 45.991 55.7609 45.9458C55.587 45.8553 55.413 45.7422 55.2391 45.6518C55.1304 45.5839 55.0217 45.5161 54.913 45.4482C54.7609 45.3577 54.6304 45.2673 54.4783 45.1768C54.3261 45.0863 54.1957 44.9959 54.0435 44.8828C53.9565 44.8149 53.8478 44.7471 53.7609 44.6792C53.5652 44.5435 53.3913 44.4078 53.1957 44.2495C53.1522 44.2269 53.1304 44.1816 53.087 44.159C52.7174 43.865 52.3696 43.571 52.0217 43.2543L71.2826 8.60433C71.3478 8.62695 71.4348 8.64957 71.5 8.6948ZM84.5 27.897C84.5 39.1605 75.6957 48.298 64.8696 48.298C63.2609 48.298 61.6739 48.0944 60.1739 47.7099L79.0217 13.7611C82.413 17.4478 84.5 22.4236 84.5 27.897ZM64.8696 7.49608C66.4783 7.49608 68.0652 7.69964 69.5652 8.08413L50.7174 42.033C47.3261 38.3689 45.2391 33.3931 45.2391 27.9197C45.2391 16.6562 54.0435 7.49608 64.8696 7.49608Z" fill="#004254"/>
<path d="M100.13 105.95H54.3043C54.5435 105.814 54.7826 105.701 55 105.565L86.8913 86.4084C90.5652 84.2145 93.1957 80.6409 94.3043 76.3436C95.413 72.0463 94.8478 67.5907 92.7391 63.7683C88.3478 55.8522 78.587 53.1381 70.9783 57.7068L39.087 76.8412C35.413 79.0351 32.7826 82.6087 31.6739 86.906C31.1522 88.9189 31 90.9545 31.2174 92.9448C31.4348 95.2292 32.1304 97.4457 33.2609 99.4813C34.8478 102.354 37.1522 104.548 39.8043 105.95H2.86957C2.3913 105.95 2 106.357 2 106.855C2 107.352 2.3913 107.759 2.86957 107.759H46.587C46.7391 107.759 46.913 107.759 47.0652 107.759C47.2391 107.759 47.3913 107.759 47.5652 107.759H100.13C100.609 107.759 101 107.352 101 106.855C101 106.357 100.609 105.95 100.13 105.95ZM34.7609 98.5766C33.8261 96.8803 33.2174 95.0256 32.9783 93.1258C32.7391 91.2259 32.8696 89.2808 33.3478 87.3809C34.3261 83.5586 36.6739 80.3695 39.9565 78.4244L55.1522 69.3096L69.3261 94.8673L54.1304 103.982C52.0217 105.249 49.7391 105.882 47.4565 105.95H46.6739C45.2826 105.905 43.913 105.656 42.587 105.204C39.3913 104.118 36.5652 101.834 34.7609 98.5766ZM71.8478 59.29C74.087 57.9556 76.5217 57.3223 78.9348 57.3223C83.8478 57.3223 88.6304 59.9686 91.2391 64.6956C93.1304 68.0882 93.6304 72.0689 92.6304 75.8913C91.6522 79.7136 89.3043 82.9027 86.0435 84.8478L70.8478 93.9626L56.6522 68.4049L71.8478 59.29Z" fill="#004254"/>
</svg>
