<svg width="103" height="108" viewBox="0 0 103 108" fill="none" xmlns="http://www.w3.org/2000/svg">
<path d="M32.4941 45.6956L32.1083 46.097C32.0585 45.7603 31.7846 45.4927 31.4486 45.4927H19.5701C19.2008 45.4927 18.8938 45.8121 18.8938 46.1963V58.5547C18.8938 58.9389 19.2008 59.2583 19.5701 59.2583H31.4486C31.8178 59.2583 32.1249 58.9389 32.1249 58.5547V48.0916L33.4442 46.7189C33.718 46.434 33.718 45.9981 33.4442 45.7132C33.1704 45.4283 32.7513 45.4279 32.4941 45.6956ZM30.7723 57.8507H20.2634V46.9171H30.7723V47.5042L25.5282 52.9602L23.7276 51.0869C23.4538 50.802 23.0348 50.802 22.7609 51.0869C22.4871 51.3717 22.4871 51.8077 22.7609 52.0926L25.0469 54.4709C25.1755 54.6047 25.3539 54.6738 25.5282 54.6738C25.7066 54.6738 25.8808 54.6047 26.0094 54.4709L30.7723 49.5156L30.7723 57.8507Z" fill="#004254"/>
<path d="M32.4941 68.1321L32.1083 68.5335C32.0585 68.1968 31.7846 67.9292 31.4486 67.9292H19.5701C19.2008 67.9292 18.8938 68.2486 18.8938 68.6328V80.9913C18.8938 81.3755 19.2008 81.6949 19.5701 81.6949H31.4486C31.8178 81.6949 32.1249 81.3755 32.1249 80.9913V70.5281L33.4442 69.1555C33.718 68.8706 33.718 68.4346 33.4442 68.1497C33.1704 67.8649 32.7513 67.8472 32.4941 68.1321ZM30.7723 80.2696H20.2634V69.336H30.7723V69.9231L25.5282 75.3791L23.7276 73.5057C23.4538 73.2208 23.0348 73.2208 22.7609 73.5057C22.4871 73.7906 22.4871 74.2266 22.7609 74.5115L25.0469 76.8898C25.1755 77.0236 25.3539 77.0927 25.5282 77.0927C25.7066 77.0927 25.8808 77.0236 26.0094 76.8898L30.7723 71.9345L30.7723 80.2696Z" fill="#004254"/>
<path d="M71.6474 45.4976H46.995C46.6257 45.4976 46.3187 45.817 46.3187 46.2011C46.3187 46.5853 46.6257 46.9047 46.995 46.9047H71.6474C72.0167 46.9047 72.3237 46.5853 72.3237 46.2011C72.3237 45.817 72.0332 45.4976 71.6474 45.4976Z" fill="#004254"/>
<path d="M71.6474 51.6733H67.4488C67.0796 51.6733 66.7726 51.9928 66.7726 52.3769C66.7726 52.7611 67.0796 53.0805 67.4488 53.0805H71.6474C72.0167 53.0805 72.3237 52.7611 72.3237 52.3769C72.3403 51.9928 72.0333 51.6733 71.6474 51.6733Z" fill="#004254"/>
<path d="M64.3742 52.3774C64.3742 51.9932 64.0672 51.6738 63.6979 51.6738H45.8376C45.4684 51.6738 45.1614 51.9932 45.1614 52.3774C45.1614 52.7616 45.4684 53.081 45.8376 53.081H63.6979C64.0672 53.0983 64.3742 52.7788 64.3742 52.3774Z" fill="#004254"/>
<path d="M38.0629 53.0976H41.1206C41.4898 53.0976 41.7968 52.7782 41.7968 52.394C41.7968 52.0098 41.4898 51.6904 41.1206 51.6904H38.0629C37.6936 51.6904 37.3866 52.0098 37.3866 52.394C37.37 52.7782 37.677 53.0976 38.0629 53.0976Z" fill="#004254"/>
<path d="M71.6474 57.8506H62.2006C61.8313 57.8506 61.5243 58.17 61.5243 58.5542C61.5243 58.9383 61.8313 59.2578 62.2006 59.2578H71.6474C72.0167 59.2578 72.3237 58.9383 72.3237 58.5542C72.3403 58.17 72.0332 57.8506 71.6474 57.8506Z" fill="#004254"/>
<path d="M58.0185 58.5542C58.0185 58.17 57.7115 57.8506 57.3422 57.8506H38.063C37.6937 57.8506 37.3867 58.17 37.3867 58.5542C37.3867 58.9383 37.6937 59.2578 38.063 59.2578H57.3422C57.7115 59.2578 58.0185 58.9426 58.0185 58.5542Z" fill="#004254"/>
<path d="M71.6474 68.6851H46.995C46.6257 68.6851 46.3187 69.0045 46.3187 69.3886C46.3187 69.7728 46.6257 70.0922 46.995 70.0922H71.6474C72.0167 70.0922 72.3237 69.7728 72.3237 69.3886C72.3403 69.0045 72.0332 68.6851 71.6474 68.6851Z" fill="#004254"/>
<path d="M71.6474 74.8447H67.4488C67.0796 74.8447 66.7726 75.1641 66.7726 75.5483C66.7726 75.9325 67.0796 76.2519 67.4488 76.2519H71.6474C72.0167 76.2519 72.3237 75.9325 72.3237 75.5483C72.3403 75.1641 72.0333 74.8447 71.6474 74.8447Z" fill="#004254"/>
<path d="M45.8204 76.269H63.6807C64.05 76.269 64.357 75.9496 64.357 75.5654C64.357 75.1812 64.05 74.8618 63.6807 74.8618H45.8204C45.4512 74.8618 45.1442 75.1812 45.1442 75.5654C45.1442 75.9496 45.4512 76.269 45.8204 76.269Z" fill="#004254"/>
<path d="M38.0627 74.8447C37.6935 74.8447 37.3865 75.1641 37.3865 75.5483C37.3865 75.9325 37.6935 76.2519 38.0627 76.2519H41.1204C41.4897 76.2519 41.7967 75.9325 41.7967 75.5483C41.7967 75.1641 41.4897 74.8447 41.1204 74.8447H38.0627Z" fill="#004254"/>
<path d="M71.6474 81.0259H62.2006C61.8313 81.0259 61.5243 81.3453 61.5243 81.7295C61.5243 82.1136 61.8313 82.4331 62.2006 82.4331H71.6474C72.0167 82.4331 72.3237 82.1136 72.3237 81.7295C72.3403 81.341 72.0332 81.0259 71.6474 81.0259Z" fill="#004254"/>
<path d="M57.342 81.0259H38.0627C37.6935 81.0259 37.3865 81.3453 37.3865 81.7295C37.3865 82.1136 37.6935 82.4331 38.0627 82.4331H57.342C57.7112 82.4331 58.0182 82.1136 58.0182 81.7295C58.0182 81.341 57.7112 81.0259 57.342 81.0259Z" fill="#004254"/>
<path d="M30.113 34.5809H61.5735C61.9427 34.5809 62.2497 34.2615 62.2497 33.8773V31.3996C62.2497 31.0155 61.9427 30.6961 61.5735 30.6961C61.2042 30.6961 60.8972 31.0155 60.8972 31.3996V33.1737H30.8058V27.6142H61.5738C61.943 27.6142 62.25 27.2948 62.25 26.9106C62.25 26.5264 61.943 26.207 61.5738 26.207H30.1133C29.744 26.207 29.437 26.5264 29.437 26.9106V33.8903C29.437 34.2615 29.7437 34.5809 30.113 34.5809Z" fill="#004254"/>
<path d="M10.0615 11.3919C10.1901 11.5257 10.3685 11.5947 10.5428 11.5947C10.7212 11.5947 10.8954 11.5257 11.024 11.3919C11.2978 11.107 11.2978 10.671 11.024 10.3861L6.90837 6.09989C6.63455 5.81501 6.21552 5.81501 5.94169 6.09989C5.66787 6.38478 5.66787 6.82074 5.94169 7.10563L10.0615 11.3919Z" fill="#004254"/>
<path d="M13.4263 8.59556C13.7955 8.59556 14.1025 8.27615 14.1025 7.89198V2.71654C14.1025 2.31511 13.7955 2 13.4263 2C13.057 2 12.7334 2.31511 12.7334 2.70358V7.87903C12.7334 8.27615 13.0404 8.59556 13.4263 8.59556Z" fill="#004254"/>
<path d="M2.67699 14.6044H7.65145C8.0207 14.6044 8.32771 14.285 8.32771 13.9008C8.32771 13.5167 8.0207 13.1973 7.65145 13.1973H2.67699C2.30774 13.1973 2.00073 13.5167 2.00073 13.9008C2.00073 14.2893 2.30774 14.6044 2.67699 14.6044Z" fill="#004254"/>
<path d="M4.05861 5.1466C4.18722 5.28041 4.36562 5.34947 4.53987 5.34947C4.71827 5.34947 4.89252 5.28041 5.02113 5.1466C5.29495 4.86172 5.29495 4.42576 5.02113 4.14086L4.27019 3.35526C3.99637 3.07038 3.57734 3.07038 3.30351 3.35526C3.02969 3.64015 3.02969 4.07611 3.30351 4.361L4.05861 5.1466Z" fill="#004254"/>
<path d="M83.1564 50.2016H84.6997C85.069 50.2016 85.376 49.8822 85.376 49.498C85.376 49.1139 85.069 48.7944 84.6997 48.7944H83.1564C82.7871 48.7944 82.4801 49.1139 82.4801 49.498C82.4801 49.8822 82.783 50.2016 83.1564 50.2016Z" fill="#004254"/>
<path d="M83.1564 55.8959H86.2306C86.5999 55.8959 86.9069 55.5765 86.9069 55.1924C86.9069 54.8082 86.5999 54.4888 86.2306 54.4888H83.1564C82.7871 54.4888 82.4801 54.8082 82.4801 55.1924C82.4801 55.5765 82.783 55.8959 83.1564 55.8959Z" fill="#004254"/>
<path d="M83.1564 61.5678H84.6997C85.069 61.5678 85.376 61.2484 85.376 60.8642C85.376 60.4801 85.069 60.1606 84.6997 60.1606H83.1564C82.7871 60.1606 82.4801 60.4801 82.4801 60.8642C82.4801 61.2527 82.783 61.5678 83.1564 61.5678Z" fill="#004254"/>
<path d="M101 39.6044C101 38.5167 100.581 37.4635 99.8255 36.6563C99.0538 35.8707 98.0539 35.452 97.0085 35.452H80.8858V31.3687H94.6145C94.9838 31.3687 95.2908 31.0492 95.2908 30.6651V20.5689C95.2908 18.3761 94.4693 16.2999 92.9716 14.759C91.4739 13.218 89.4949 12.3633 87.4039 12.3633H18.67C14.3262 12.3633 10.7831 16.0452 10.7831 20.5689V89.3991L2.67626 89.3948C2.30701 89.3948 2 89.7142 2 90.0984V97.6176C2 102.137 5.53892 105.823 9.88695 105.823H45.6627H45.6793H72.9913C75.7751 105.823 78.2064 104.3 79.6045 102.038C81.4715 104.347 84.2719 105.823 87.3919 105.823C92.9927 105.823 97.5482 101.084 97.5482 95.2566L97.5399 43.6878C99.5023 43.4029 101 41.6763 101 39.6044ZM93.9176 20.5474V29.9227H80.8824V20.5474V20.5301C80.8824 16.7964 83.8115 13.7662 87.4002 13.7662C89.1386 13.7662 90.765 14.4698 92.0012 15.7604C93.2459 17.0165 93.9176 18.7259 93.9176 20.5474ZM3.36926 97.6V90.8016H65.1166V97.6C65.1166 100.414 66.4858 102.909 68.5767 104.381H9.88291C6.29418 104.381 3.36926 101.334 3.36926 97.6ZM72.9995 104.381C69.3942 104.381 66.4652 101.334 66.4652 97.6V90.0807C66.4652 89.6965 66.1581 89.3771 65.7889 89.3771H12.1358V20.5469C12.1358 16.8132 15.0649 13.7658 18.6536 13.7658H82.9606C80.8696 15.2376 79.5005 17.7325 79.5005 20.5469V30.6431V30.6603V35.4473H77.7622C75.5716 35.4473 73.7876 37.3077 73.7876 39.5997C73.7876 40.7047 74.2066 41.7407 74.945 42.5133C75.5425 43.1478 76.3598 43.5492 77.2144 43.6874V95.2385C77.2144 97.2628 77.7787 99.1578 78.7288 100.764C77.6501 102.904 75.4929 104.381 72.9995 104.381ZM96.1873 65.5852C95.8637 65.4686 95.4779 65.3996 94.9966 65.3996C93.9843 65.3996 93.4034 65.719 92.9388 66.0211L92.7147 66.1722C92.2791 66.4398 91.9596 66.6557 91.2169 66.6557C90.4619 66.6557 90.105 66.4226 89.6736 66.1377C89.1757 65.8183 88.5617 65.3996 87.4208 65.3996C86.2633 65.3996 85.6492 65.801 85.1514 66.1377C84.7158 66.4226 84.3797 66.6557 83.6371 66.6557C82.882 66.6557 82.5418 66.4226 82.1103 66.1377C81.6124 65.801 80.9984 65.3996 79.8409 65.3996C79.343 65.3996 78.9406 65.4816 78.6004 65.5852V43.7391H96.1909L96.1873 65.5852ZM87.3876 104.381C82.5418 104.381 78.6004 100.281 78.6004 95.2389V67.1428C78.9074 66.9572 79.2435 66.8234 79.8409 66.8234C80.596 66.8234 80.9362 67.0565 81.3677 67.3414C81.8656 67.6781 82.4796 68.0795 83.6371 68.0795C84.778 68.0795 85.392 67.6781 85.8899 67.3414C86.3255 67.0565 86.6782 66.8234 87.4167 66.8234C88.1552 66.8234 88.4954 67.0392 88.931 67.3414C89.4289 67.6781 90.0595 68.0795 91.217 68.0795C92.3455 68.0795 92.9553 67.6953 93.4366 67.3759L93.644 67.2421C93.9967 67.0263 94.3369 66.8407 94.9965 66.8407C95.5441 66.8407 95.8636 66.9572 96.1872 67.1428V95.2389C96.1872 100.276 92.246 104.381 87.3876 104.381ZM97.0087 42.3147H77.7794C77.0699 42.3147 76.4269 42.0298 75.929 41.5118C75.4311 40.9939 75.1573 40.3076 75.1573 39.5867C75.1573 38.0802 76.3315 36.8586 77.7628 36.8586H96.9921C97.6849 36.8586 98.3446 37.1435 98.8425 37.6442C99.3403 38.1795 99.6142 38.8658 99.6142 39.5866C99.6308 41.0931 98.4567 42.3147 97.0087 42.3147Z" fill="#004254"/>
<path d="M90.7324 80.8059C90.7324 80.0851 90.1847 79.498 89.4918 79.498C88.799 79.498 88.2347 80.0678 88.2347 80.8059C88.2347 81.5268 88.7824 82.0966 89.4918 82.0966C90.1722 82.0966 90.7324 81.5268 90.7324 80.8059Z" fill="#004254"/>
<path d="M83.3464 85.4628C83.3464 86.516 84.1679 87.3707 85.1968 87.3707C86.2091 87.3707 87.0306 86.516 87.0306 85.4628C87.0306 84.3923 86.2092 83.5376 85.1968 83.5376C84.1679 83.5333 83.3464 84.3879 83.3464 85.4628Z" fill="#004254"/>
<path d="M91.2635 91.3896C90.2678 91.3896 89.4753 92.2098 89.4753 93.25C89.4753 94.273 90.2636 95.0932 91.2635 95.0932C92.2468 95.0932 93.0351 94.2731 93.0351 93.25C93.0517 92.2098 92.2634 91.3896 91.2635 91.3896Z" fill="#004254"/>
<path d="M82.2059 75.5175C83.1892 75.5175 83.9775 74.6974 83.9775 73.6744C83.9775 72.6384 83.1892 71.814 82.2059 71.814C81.2102 71.814 80.4177 72.6341 80.4177 73.6744C80.4177 74.6801 81.206 75.5175 82.2059 75.5175Z" fill="#004254"/>
<path d="M85.1977 96.1768C83.783 96.1768 82.6545 97.3508 82.6545 98.8227C82.6545 100.277 83.783 101.451 85.1977 101.451C86.5959 101.451 87.7244 100.277 87.7244 98.8227C87.7244 97.3465 86.6 96.1768 85.1977 96.1768Z" fill="#004254"/>
<path d="M80.9982 78.9317C80.9982 79.5015 81.4504 79.9547 81.9814 79.9547C82.5291 79.9547 82.9647 79.5015 82.9647 78.9317C82.9647 78.3619 82.5125 77.9087 81.9814 77.9087C81.4462 77.9087 80.9982 78.3792 80.9982 78.9317Z" fill="#004254"/>
<path d="M81.5293 88.9126C80.9816 88.9126 80.546 89.3658 80.546 89.9356C80.546 90.5054 80.9982 90.9586 81.5293 90.9586C82.0769 90.9586 82.5126 90.5054 82.5126 89.9356C82.5084 89.3615 82.0603 88.9126 81.5293 88.9126Z" fill="#004254"/>
<path d="M88.2385 73.6573C88.7862 73.6573 89.2218 73.2041 89.2218 72.6343C89.2218 72.0646 88.7696 71.6113 88.2385 71.6113C87.6909 71.6113 87.2552 72.0646 87.2552 72.6343C87.2594 73.2041 87.6909 73.6573 88.2385 73.6573Z" fill="#004254"/>
<path d="M93.3876 76.4717C92.8399 76.4717 92.4043 76.9249 92.4043 77.4947C92.4043 78.0645 92.8565 78.5177 93.3876 78.5177C93.9352 78.5177 94.3708 78.0644 94.3708 77.4947C94.3708 76.9206 93.9186 76.4717 93.3876 76.4717Z" fill="#004254"/>
</svg>
