<svg width="107" height="174" viewBox="0 0 107 174" fill="none" xmlns="http://www.w3.org/2000/svg">
<path d="M92.1465 3.18994H91.9484H90.1954C90.0049 2.3946 89.2199 2.00079 88.4425 2.00079H82.7875C81.8043 2.00079 81.027 2.78842 81.027 3.7768V5.95442C81.027 6.9428 81.8043 7.73043 82.7799 7.73043H88.4349C89.0218 7.73043 89.6086 7.33662 89.9973 6.74204H91.9484C93.1221 6.9428 103.655 9.31343 101.902 23.1508L92.1466 55.7676C90.7824 55.9684 89.6086 56.9567 89.22 58.339C87.2689 65.6515 79.6628 84.4304 69.3209 84.4304H68.9322H68.5435C58.0108 84.4304 50.5951 65.6511 48.6444 58.339C48.2557 56.9568 47.082 55.9684 45.7178 55.7676L35.9623 22.9492C34.2094 8.91096 44.544 6.74125 45.916 6.54041H47.8671C48.2558 7.13499 48.8426 7.5288 49.4295 7.5288H55.0845C56.06 7.5288 56.8374 6.74117 56.8374 5.75278V3.77601C56.8374 2.78763 56.06 2 55.0845 2H49.4295C48.6521 2 47.8671 2.59457 47.6765 3.3822H45.9084H45.7102C45.5121 3.3822 30.2998 5.75275 32.8299 23.9367V24.1374L42.5854 57.3492C41.9985 58.1368 41.808 59.326 41.9985 60.3144C42.3872 61.5035 50.3897 89.966 67.1636 91.3477C65.6012 97.6718 65.9899 105.185 68.1391 113.879C68.9165 116.844 69.7015 119.608 70.4789 122.574C72.2318 128.303 73.7941 134.434 74.381 140.365C75.3566 150.449 72.43 159.144 66.5767 163.884C61.3103 168.232 53.1173 169.421 44.5275 167.444C38.6742 166.062 33.9948 163.49 30.8699 160.132C26.5791 155.583 24.8184 149.854 24.2394 145.699C23.2638 139.97 23.6525 134.04 24.2394 129.098L24.4375 127.909C25.0243 123.168 25.413 118.419 24.0488 113.677C23.462 111.307 22.0977 108.936 20.1466 106.365C19.3693 105.176 18.3937 104.187 17.6087 103.006C18.7824 101.423 19.5598 99.4462 19.5598 97.2765C19.5598 92.3346 15.6576 88.3811 10.7799 88.3811C5.90217 88.3811 2 92.3346 2 97.2765C2 102.218 5.90217 106.172 10.7799 106.172C12.3423 106.172 13.7065 105.778 14.8803 105.184C15.6577 106.172 16.4427 107.16 17.22 108.35C18.9729 110.72 19.9484 112.697 20.5353 114.674C21.709 118.627 21.3127 123.175 20.7335 127.523L20.5353 128.712C19.9484 134.048 19.5598 140.179 20.5353 146.302C21.709 152.827 24.2392 158.556 28.1414 162.51C31.8453 166.464 37.1195 169.228 43.5518 170.811C46.6767 171.598 49.6033 172 52.3317 172C58.5736 172 64.2365 170.224 68.5273 166.664C75.1578 161.128 78.6714 151.244 77.6958 140.179C77.109 133.855 75.3561 127.724 73.5954 121.601C72.818 118.837 72.033 115.871 71.2557 113.099C69.1064 104.405 68.9159 97.2851 70.4783 91.3548C87.2607 89.7718 95.2551 61.5015 95.4541 60.3214C95.6523 59.1323 95.4541 58.1438 94.8673 57.1554L104.623 23.9436V23.7429C107.565 5.75109 92.3446 3.38169 92.1465 3.18994ZM15.666 101.04C15.0791 102.029 14.1036 102.816 12.9376 103.218C12.3508 103.419 11.5734 103.612 10.7883 103.612C7.47301 103.612 4.7368 100.847 4.7368 97.4805C4.7368 94.1215 7.4652 91.3493 10.7883 91.3493C14.1036 91.3493 16.8398 94.1136 16.8398 97.4805C16.8398 98.6619 16.4434 99.851 15.666 101.04Z" fill="#004254"/>
</svg>
